<?xml version="1.0" standalone="no"?><!DOCTYPE svg PUBLIC "-//W3C//DTD SVG 1.1//EN" "http://www.w3.org/Graphics/SVG/1.1/DTD/svg11.dtd"><svg height="250" node-id="1" sillyvg="true" template-height="250" template-width="250" version="1.1" viewBox="0 0 250 250" width="250" xmlns="http://www.w3.org/2000/svg" xmlns:xlink="http://www.w3.org/1999/xlink"><defs node-id="38"></defs><path d="M 225.60 126.00 C 225.60 181.23 180.83 226.00 125.60 226.00 C 70.37 226.00 25.60 181.23 25.60 126.00 C 25.60 70.77 70.37 26.00 125.60 26.00 C 180.83 26.00 225.60 70.77 225.60 126.00 Z" fill="#ffffff" fill-rule="nonzero" node-id="42" stroke="#000000" stroke-linecap="round" stroke-width="3" target-height="200" target-width="200" target-x="25.6" target-y="26"></path><g node-id="122"><g node-id="123"><g node-id="129"><path d="M 140.10 118.40 C 140.80 119.40 142.10 119.80 143.20 119.40 C 144.90 118.80 146.80 119.40 148.40 120.60 C 150.30 122.00 151.40 124.40 151.60 126.80 C 151.70 128.20 151.70 129.60 152.10 130.90 C 153.40 134.50 159.30 135.20 161.30 131.90 C 161.90 130.90 162.20 129.60 162.30 128.40 C 163.00 121.50 159.60 114.40 153.90 110.60 C 151.60 109.10 148.80 108.00 146.00 108.30 C 143.20 108.60 140.50 110.20 139.40 112.80 C 138.60 114.70 139.00 116.90 140.10 118.40 Z" fill="#ffffff" fill-rule="nonzero" group-id="1,2,8" node-id="50" stroke="none" target-height="27.199997" target-width="24.399994" target-x="138.6" target-y="108"></path></g><path d="M 157.10 134.30 C 156.90 134.30 156.60 134.30 156.40 134.30 C 154.20 134.10 152.50 132.80 151.90 131.10 C 151.60 130.10 151.50 129.10 151.50 128.20 C 151.50 127.80 151.50 127.40 151.40 127.00 C 151.10 124.40 150.00 122.20 148.30 121.00 C 146.60 119.70 144.80 119.30 143.30 119.80 C 142.10 120.20 140.70 119.80 139.90 118.70 C 138.70 117.10 138.40 114.80 139.20 113.00 C 140.20 110.50 142.90 108.60 146.00 108.30 C 149.30 108.00 152.20 109.40 154.10 110.70 C 159.90 114.50 163.40 121.80 162.60 128.70 C 162.50 129.70 162.30 131.10 161.50 132.30 C 160.60 133.50 159.00 134.30 157.10 134.30 Z M 144.50 119.00 C 145.80 119.00 147.20 119.50 148.50 120.50 C 150.30 121.90 151.60 124.20 151.80 126.90 C 151.80 127.30 151.90 127.80 151.90 128.20 C 152.00 129.20 152.00 130.10 152.30 131.00 C 152.90 132.60 154.40 133.70 156.40 133.90 C 158.40 134.10 160.20 133.40 161.10 131.90 C 161.80 130.80 162.00 129.40 162.10 128.50 C 162.80 121.70 159.50 114.70 153.80 110.90 C 152.00 109.70 149.20 108.30 146.00 108.60 C 143.10 108.80 140.60 110.60 139.60 113.00 C 138.90 114.70 139.20 116.80 140.30 118.30 L 140.30 118.30 C 140.90 119.20 142.10 119.60 143.10 119.20 C 143.50 119.00 144.00 119.00 144.50 119.00 Z" fill="#000000" fill-rule="nonzero" group-id="1,2,9" node-id="55" stroke="none" target-height="26.300003" target-width="25" target-x="138.4" target-y="108"></path></g><g node-id="124"><g node-id="131"><path d="M 40.60 138.70 C 39.60 135.90 41.60 131.40 44.60 131.60 C 47.60 131.80 49.60 135.70 48.10 138.30 C 46.60 140.90 42.30 141.10 40.60 138.70" fill="#ffffff" fill-rule="nonzero" group-id="1,3,10" node-id="63" stroke="none" target-height="9.700012" target-width="10" target-x="39.6" target-y="131.4"></path></g><path d="M 44.20 140.60 C 42.60 140.60 41.30 139.90 40.40 138.80 C 40.40 138.80 40.40 138.80 40.40 138.70 C 39.80 137.00 40.20 134.60 41.50 132.90 C 42.40 131.80 43.50 131.20 44.70 131.30 C 46.20 131.40 47.50 132.40 48.30 133.90 C 49.10 135.40 49.10 137.00 48.40 138.30 C 47.70 139.60 46.20 140.40 44.60 140.50 C 44.40 140.60 44.30 140.60 44.20 140.60 Z M 40.80 138.60 C 41.60 139.70 42.90 140.20 44.40 140.20 C 45.90 140.10 47.20 139.40 47.90 138.20 C 48.60 137.00 48.50 135.60 47.80 134.20 C 47.10 132.90 45.90 132.00 44.60 131.90 C 43.60 131.80 42.60 132.30 41.90 133.30 C 40.70 134.80 40.30 137.00 40.80 138.60 Z" fill="#000000" fill-rule="nonzero" group-id="1,3,11" node-id="68" stroke="none" target-height="9.400009" target-width="9.299999" target-x="39.8" target-y="131.2"></path></g><g node-id="125"><g node-id="133"><path d="M 126.30 112.40 C 127.60 113.30 129.70 112.60 130.10 111.10 C 130.60 109.60 129.20 107.80 127.60 107.90 C 126.00 107.90 124.70 109.70 125.30 111.20 L 126.30 112.40 Z" fill="#ffffff" fill-rule="nonzero" group-id="1,4,12" node-id="76" stroke="none" target-height="5.5" target-width="5.900009" target-x="124.7" target-y="107.8"></path></g><path d="M 127.60 113.00 C 127.10 113.00 126.60 112.90 126.10 112.60 C 126.10 112.60 126.10 112.60 126.00 112.50 L 125.00 111.20 C 125.00 111.20 125.00 111.20 125.00 111.10 C 124.70 110.30 124.90 109.40 125.40 108.70 C 125.90 108.00 126.70 107.50 127.50 107.50 C 128.30 107.50 129.10 107.90 129.70 108.60 C 130.20 109.30 130.40 110.20 130.20 111.00 C 130.00 111.80 129.30 112.40 128.40 112.70 C 128.30 113.00 127.90 113.00 127.60 113.00 Z M 126.50 112.20 C 127.00 112.60 127.80 112.60 128.50 112.40 C 129.20 112.10 129.80 111.60 130.00 111.00 C 130.20 110.40 130.00 109.60 129.60 109.00 C 129.10 108.40 128.50 108.00 127.80 108.00 C 127.10 108.00 126.50 108.40 126.00 109.00 C 125.60 109.60 125.40 110.30 125.60 111.00 L 126.50 112.20 Z" fill="#000000" fill-rule="nonzero" group-id="1,4,13" node-id="81" stroke="none" target-height="5.5" target-width="5.699997" target-x="124.7" target-y="107.5"></path></g><g node-id="126"><g node-id="135"><path d="M 156.80 100.60 C 158.40 101.70 160.90 100.80 161.50 99.00 C 162.10 97.20 160.40 95.00 158.50 95.10 C 156.60 95.20 155.00 97.30 155.70 99.10 L 156.80 100.60 Z" fill="#ffffff" fill-rule="nonzero" group-id="1,5,14" node-id="89" stroke="none" target-height="6.699997" target-width="7.100006" target-x="155" target-y="95"></path></g><path d="M 158.40 101.30 C 157.80 101.30 157.20 101.10 156.70 100.80 C 156.70 100.80 156.70 100.80 156.60 100.70 L 155.40 99.20 C 155.40 99.20 155.40 99.20 155.40 99.10 C 155.10 98.20 155.30 97.10 155.90 96.20 C 156.50 95.30 157.50 94.80 158.50 94.80 C 159.50 94.80 160.40 95.30 161.10 96.20 C 161.80 97.10 162.00 98.10 161.70 99.10 C 161.40 100.00 160.60 100.80 159.60 101.20 C 159.20 101.20 158.80 101.30 158.40 101.30 Z M 157.00 100.40 C 157.70 100.90 158.60 100.90 159.50 100.60 C 160.40 100.30 161.10 99.60 161.30 98.80 C 161.50 98.00 161.30 97.10 160.80 96.30 C 160.20 95.60 159.40 95.10 158.60 95.10 C 158.60 95.10 158.60 95.10 158.60 95.10 C 157.80 95.10 157.00 95.60 156.40 96.40 C 155.90 97.20 155.70 98.10 155.90 98.80 L 157.00 100.40 Z" fill="#000000" fill-rule="nonzero" group-id="1,5,15" node-id="94" stroke="none" target-height="6.5" target-width="6.899994" target-x="155.1" target-y="94.8"></path></g><g node-id="127"><g node-id="137"><path d="M 147.90 158.10 C 147.40 157.30 146.70 156.70 145.90 156.30 C 144.70 155.70 143.80 154.30 143.70 152.90 C 143.60 151.00 144.50 149.20 145.70 147.80 C 150.00 142.90 157.30 142.20 163.70 142.40 C 170.20 142.60 177.10 143.20 182.80 139.90 C 186.20 138.00 188.70 134.80 191.00 131.70 C 193.30 128.60 195.60 125.30 198.80 123.00 C 201.90 120.70 206.10 119.40 209.80 120.70 C 213.50 122.00 216.00 126.50 214.30 130.00 C 213.50 131.60 212.00 132.80 210.60 133.80 C 204.90 137.80 198.00 141.80 196.90 148.70 C 196.40 151.60 197.10 154.90 195.60 157.40 C 193.70 160.60 189.40 161.10 185.80 161.30 C 183.60 161.40 181.20 161.40 179.20 160.60 C 176.70 159.60 174.80 157.50 172.80 155.80 C 170.70 154.10 168.00 152.70 165.40 153.40 C 163.60 153.90 162.20 155.40 160.70 156.60 C 158.40 158.50 155.40 159.80 152.40 159.60 C 149.90 159.50 148.80 159.50 147.90 158.10 Z" fill="#ffffff" fill-rule="nonzero" group-id="1,6,16" node-id="102" stroke="none" target-height="41.999992" target-width="72.399994" target-x="143.6" target-y="119.4"></path></g><path d="M 183.90 161.60 C 182.20 161.60 180.50 161.40 178.90 160.80 C 177.00 160.00 175.50 158.70 174.00 157.30 C 173.50 156.80 173.00 156.40 172.50 155.90 C 170.70 154.40 168.00 152.80 165.30 153.50 C 163.90 153.90 162.80 154.90 161.70 155.80 C 161.40 156.10 161.00 156.40 160.70 156.70 C 158.10 158.80 155.10 159.90 152.30 159.80 C 149.90 159.70 148.70 159.60 147.80 158.10 C 147.30 157.40 146.70 156.80 145.90 156.40 C 144.60 155.80 143.70 154.30 143.60 152.80 C 143.50 151.10 144.20 149.20 145.70 147.60 C 150.30 142.30 158.30 141.90 163.90 142.10 C 164.60 142.10 165.20 142.10 165.90 142.20 C 171.80 142.40 177.90 142.60 182.90 139.70 C 186.30 137.80 188.80 134.60 191.10 131.60 C 191.30 131.30 191.50 131.10 191.70 130.80 C 193.80 127.90 196.00 125.00 198.90 122.80 C 202.50 120.10 206.70 119.20 210.10 120.50 C 212.20 121.20 213.90 122.90 214.80 125.00 C 215.50 126.80 215.50 128.60 214.80 130.10 C 214.00 131.80 212.40 133.00 211.00 134.00 C 210.40 134.40 209.70 134.90 209.10 135.30 C 203.80 138.90 198.30 142.70 197.30 148.70 C 197.10 149.70 197.10 150.70 197.10 151.80 C 197.00 153.80 197.00 155.80 195.90 157.60 C 193.90 160.90 189.50 161.40 185.90 161.60 C 185.10 161.60 184.50 161.60 183.90 161.60 Z M 166.70 153.00 C 169.00 153.00 171.20 154.40 172.80 155.70 C 173.30 156.10 173.90 156.60 174.40 157.10 C 175.90 158.40 177.40 159.80 179.20 160.50 C 181.20 161.30 183.40 161.30 185.80 161.20 C 189.30 161.10 193.60 160.50 195.40 157.40 C 196.40 155.80 196.40 153.90 196.50 151.90 C 196.50 150.90 196.60 149.80 196.70 148.80 C 197.70 142.60 203.30 138.80 208.60 135.10 C 209.20 134.70 209.90 134.20 210.50 133.80 C 211.90 132.80 213.40 131.70 214.20 130.10 C 214.90 128.70 214.90 127.00 214.20 125.40 C 213.40 123.40 211.70 121.80 209.80 121.10 C 206.50 119.90 202.50 120.80 199.00 123.40 C 196.20 125.50 194.00 128.50 191.90 131.30 C 191.70 131.60 191.50 131.80 191.30 132.10 C 189.00 135.20 186.40 138.40 183.00 140.40 C 177.90 143.30 171.70 143.10 165.80 142.90 C 165.10 142.90 164.50 142.90 163.80 142.80 C 158.30 142.70 150.40 143.10 145.90 148.20 C 144.50 149.80 143.80 151.50 143.90 153.10 C 144.00 154.40 144.80 155.70 146.00 156.30 C 146.90 156.70 147.60 157.40 148.10 158.20 C 148.90 159.50 150.00 159.60 152.30 159.70 C 155.00 159.80 157.90 158.80 160.40 156.70 C 160.70 156.40 161.10 156.10 161.40 155.90 C 162.50 154.90 163.70 153.90 165.20 153.50 C 165.70 153.00 166.20 153.00 166.70 153.00 Z" fill="#000000" fill-rule="nonzero" group-id="1,6,17" node-id="107" stroke="none" target-height="42.40001" target-width="72" target-x="143.5" target-y="119.2"></path></g><g node-id="128"><g node-id="139"><path d="M 71.80 118.90 C 71.00 117.80 69.60 117.30 68.20 117.60 C 63.10 118.70 57.90 119.50 52.90 118.40 C 47.10 117.10 41.60 112.40 41.40 106.50 C 41.20 100.10 48.30 94.60 54.40 96.40 C 59.70 98.00 63.00 103.50 68.30 105.00 C 74.50 106.80 80.70 102.60 86.60 99.90 C 91.80 97.50 97.60 96.20 103.30 96.10 C 105.20 96.10 107.20 96.30 108.60 97.50 C 110.20 99.00 110.20 101.50 110.30 103.80 C 110.40 108.40 111.30 113.60 115.00 116.40 C 118.80 119.20 124.00 118.70 128.50 120.10 C 135.30 122.20 140.00 129.50 139.20 136.60 C 139.10 137.50 138.90 138.40 138.40 139.00 C 137.80 139.80 136.80 140.20 135.80 140.50 C 127.40 143.00 117.50 139.10 113.00 131.50 C 111.50 128.90 110.40 125.80 107.90 124.00 C 106.30 122.90 104.40 122.50 102.50 122.30 C 99.50 122.00 96.40 122.10 93.40 122.80 C 90.60 123.40 87.80 124.50 84.90 124.70 C 79.70 125.00 74.80 122.90 71.80 118.90 Z" fill="#ffffff" fill-rule="nonzero" group-id="1,7,18" node-id="115" stroke="none" target-height="48.4" target-width="98.8" target-x="41.2" target-y="94.6"></path></g><path d="M 130.40 141.40 C 127.80 141.40 125.20 140.90 122.70 139.90 C 118.40 138.20 114.90 135.20 112.70 131.50 C 112.30 130.80 111.90 130.10 111.60 129.40 C 110.60 127.40 109.50 125.40 107.70 124.10 C 106.00 122.90 103.90 122.60 102.40 122.40 C 99.40 122.10 96.30 122.20 93.40 122.90 C 92.40 123.10 91.40 123.40 90.50 123.60 C 88.70 124.10 86.80 124.60 84.90 124.80 C 79.70 125.20 74.70 123.10 71.60 119.00 C 70.80 118.00 69.50 117.50 68.30 117.80 C 63.60 118.80 58.20 119.80 52.90 118.60 C 49.90 117.90 47.10 116.40 44.90 114.30 C 42.60 112.00 41.30 109.30 41.20 106.40 C 41.10 103.30 42.70 100.20 45.40 98.10 C 48.10 96.00 51.50 95.20 54.50 96.10 C 57.20 96.90 59.40 98.70 61.50 100.50 C 63.60 102.20 65.80 104.00 68.30 104.80 C 73.30 106.30 78.30 103.80 83.10 101.30 C 84.20 100.70 85.30 100.20 86.40 99.70 C 91.60 97.30 97.40 96.00 103.20 95.90 C 105.10 95.90 107.20 96.00 108.60 97.40 C 110.30 99.00 110.30 101.50 110.40 103.80 L 110.40 103.90 C 110.50 110.00 112.00 114.00 115.00 116.30 C 117.30 118.10 120.20 118.50 123.30 118.90 C 125.00 119.10 126.80 119.40 128.50 119.90 C 131.80 120.90 134.80 123.20 136.80 126.40 C 138.80 129.50 139.70 133.20 139.30 136.60 C 139.20 137.40 139.00 138.40 138.40 139.10 C 137.70 140.00 136.70 140.40 135.70 140.60 C 134.00 141.20 132.20 141.40 130.40 141.40 Z M 99.30 121.80 C 100.30 121.80 101.40 121.90 102.40 122.00 C 103.90 122.20 106.20 122.50 107.90 123.80 C 109.80 125.10 110.90 127.20 111.90 129.30 C 112.30 130.00 112.60 130.70 113.00 131.40 C 117.40 138.90 127.10 142.80 135.50 140.30 C 136.40 140.00 137.40 139.70 138.00 138.90 C 138.50 138.20 138.70 137.30 138.80 136.60 C 139.60 129.60 135.00 122.50 128.30 120.40 C 126.70 119.90 124.90 119.60 123.20 119.40 C 120.20 119.00 117.20 118.50 114.70 116.70 C 111.60 114.40 110.00 110.20 109.90 103.90 L 109.90 103.80 C 109.90 101.70 109.80 99.20 108.30 97.80 C 107.00 96.50 105.00 96.40 103.20 96.40 C 97.50 96.50 91.80 97.80 86.60 100.10 C 85.50 100.60 84.40 101.20 83.30 101.70 C 79.40 103.70 75.40 105.70 71.40 105.70 C 70.30 105.70 69.30 105.60 68.20 105.20 C 65.50 104.40 63.30 102.60 61.20 100.80 C 59.10 99.10 56.90 97.30 54.30 96.50 C 51.50 95.70 48.20 96.40 45.60 98.40 C 43.00 100.40 41.50 103.40 41.60 106.30 C 41.80 112.40 47.40 116.80 52.90 118.00 C 58.10 119.20 63.50 118.20 68.10 117.20 C 69.50 116.90 71.00 117.50 71.90 118.60 C 74.90 122.50 79.70 124.60 84.80 124.20 C 86.70 124.00 88.50 123.50 90.30 123.10 C 91.30 122.80 92.30 122.60 93.30 122.30 C 95.20 122.00 97.30 121.80 99.30 121.80 Z" fill="#000000" fill-rule="nonzero" group-id="1,7,19" node-id="120" stroke="none" target-height="47.600006" target-width="98.6" target-x="41.1" target-y="95.2"></path></g></g></svg>