<?xml version="1.0" standalone="no"?><!DOCTYPE svg PUBLIC "-//W3C//DTD SVG 1.1//EN" "http://www.w3.org/Graphics/SVG/1.1/DTD/svg11.dtd"><svg height="1024" node-id="1" sillyvg="true" template-height="1024" template-width="1024" version="1.1" viewBox="0 0 1024 1024" width="1024" xmlns="http://www.w3.org/2000/svg" xmlns:xlink="http://www.w3.org/1999/xlink"><defs node-id="34"><linearGradient gradientUnits="userSpaceOnUse" id="paint0_linear_604_1665" node-id="16" spreadMethod="pad" x1="323.048" x2="603.428" y1="0.00000666923" y2="707.048"><stop offset="0" stop-color="#ffcbd7"></stop><stop offset="1" stop-color="#f9cbbd"></stop></linearGradient><linearGradient gradientUnits="userSpaceOnUse" id="paint1_linear_604_1665" node-id="19" spreadMethod="pad" x1="396.19" x2="402.286" y1="627.81" y2="871.619"><stop offset="0" stop-color="#dea9ac"></stop><stop offset="0.558846" stop-color="#cea196" stop-opacity="0.06"></stop></linearGradient><linearGradient gradientUnits="userSpaceOnUse" id="paint2_linear_604_1665" node-id="22" spreadMethod="pad" x1="493.203" x2="493.203" y1="1294.94" y2="599.223"><stop offset="0" stop-color="#f9bebd"></stop><stop offset="0.997648" stop-color="#f9cbbd"></stop></linearGradient><linearGradient gradientUnits="userSpaceOnUse" id="paint3_linear_604_1665" node-id="25" spreadMethod="pad" x1="512" x2="512" y1="755.81" y2="779.03"><stop offset="0" stop-color="#eff7ff"></stop><stop offset="0.997648" stop-color="#ffffff"></stop></linearGradient><linearGradient gradientUnits="userSpaceOnUse" id="paint4_linear_604_1665" node-id="28" spreadMethod="pad" x1="512" x2="512" y1="816.762" y2="828.372"><stop offset="0" stop-color="#eff7ff"></stop><stop offset="0.997648" stop-color="#ffffff"></stop></linearGradient><clipPath id="clip0_604_1665" node-id="31"><path d="M 160.00 0.00 L 864.00 0.00 C 952.37 0.00 1024.00 71.63 1024.00 160.00 L 1024.00 864.00 C 1024.00 952.37 952.37 1024.00 864.00 1024.00 L 160.00 1024.00 C 71.63 1024.00 0.00 952.37 0.00 864.00 L 0.00 160.00 C -0.00 71.63 71.63 0.00 160.00 0.00 Z" fill="#000000" fill-rule="nonzero" node-id="67" stroke="none" target-height="1024" target-width="1024" target-x="0" target-y="0"></path></clipPath></defs><g clip-path="url(#clip0_604_1665)" id="sillyvg_g_0" node-id="71"><path d="M 160.00 0.00 L 864.00 0.00 C 952.37 0.00 1024.00 71.63 1024.00 160.00 L 1024.00 864.00 C 1024.00 952.37 952.37 1024.00 864.00 1024.00 L 160.00 1024.00 C 71.63 1024.00 0.00 952.37 0.00 864.00 L 0.00 160.00 C -0.00 71.63 71.63 0.00 160.00 0.00 Z" fill="url(#paint0_linear_604_1665)" fill-rule="nonzero" node-id="73" stroke="none" target-height="1024" target-width="1024" target-x="0" target-y="0"></path><path d="M 719.24 243.81 C 719.24 290.94 681.03 329.14 633.90 329.14 C 586.78 329.14 548.57 290.94 548.57 243.81 C 548.57 196.68 586.78 158.48 633.90 158.48 C 681.03 158.48 719.24 196.68 719.24 243.81 Z" fill="#ffffff" fill-rule="nonzero" node-id="75" stroke="none" target-height="170.66002" target-width="170.66998" target-x="548.57" target-y="158.48"></path><path d="M 157.42 184.91 C -98.43 240.64 -109.71 597.09 -109.71 597.09 L -109.71 828.06 L 1322.94 828.06 L 1322.94 259.72 C 1096.60 259.72 1048.38 530.93 753.61 530.93 C 426.67 530.93 381.12 151.76 157.42 184.91 Z" fill="#edb9bc" fill-rule="nonzero" node-id="77" stroke="none" target-height="676.3" target-width="1432.6499" target-x="-109.71" target-y="151.76"></path><path d="M 1103.24 694.87 L 1103.24 652.20 C 1103.24 652.20 1029.19 594.74 896.00 579.06 C 792.38 566.86 778.36 648.49 700.95 652.20 C 554.99 659.20 530.29 536.39 335.24 536.39 C 182.86 536.39 91.43 676.58 -18.29 676.58 C -91.43 676.58 -304.76 597.34 -304.76 597.34 L -304.76 694.87 L 1103.24 694.87 Z" fill="url(#paint1_linear_604_1665)" fill-rule="nonzero" node-id="79" stroke="none" target-height="158.47998" target-width="1408" target-x="-304.76" target-y="536.39"></path><path d="M -8.03 694.71 L 1032.03 694.71 L 1032.03 1158.53 L -8.03 1158.53 L -8.03 694.71 Z" fill="url(#paint2_linear_604_1665)" fill-rule="nonzero" node-id="81" stroke="none" target-height="463.82" target-width="1040.06" target-x="-8.03" target-y="694.71"></path><path d="M 0.00 755.81 L 1024.00 755.81 L 1024.00 780.19 L 0.00 780.19 Z" fill="url(#paint3_linear_604_1665)" fill-opacity="0.3" fill-rule="nonzero" group-id="1" node-id="85" stroke="none" target-height="24.380005" target-width="1024" target-x="0" target-y="755.81"></path><path d="M 0.00 816.76 L 1024.00 816.76 L 1024.00 828.95 L 0.00 828.95 Z" fill="url(#paint4_linear_604_1665)" fill-opacity="0.3" fill-rule="nonzero" group-id="2" node-id="90" stroke="none" target-height="12.190002" target-width="1024" target-x="0" target-y="816.76"></path><path d="M 316.22 1246.60 C 542.77 1180.94 724.79 1245.83 726.61 1246.49 C 728.22 1247.09 730.04 1246.85 731.47 1245.85 C 732.88 1244.86 733.73 1243.24 733.73 1241.51 L 733.73 1193.94 C 733.73 1191.55 732.13 1189.46 729.83 1188.82 C 729.24 1188.66 711.15 1183.83 680.48 1178.56 L 680.48 1125.96 L 701.93 1125.96 C 704.86 1125.96 707.23 1123.58 707.23 1120.65 L 707.23 1086.41 C 707.23 1083.48 704.86 1081.11 701.93 1081.11 L 680.48 1081.11 L 680.48 996.95 C 685.67 994.97 689.39 989.99 689.39 984.11 L 689.39 926.78 L 689.47 926.78 C 692.39 926.78 694.77 924.40 694.77 921.47 L 694.77 827.83 C 694.77 824.90 692.39 822.52 689.47 822.52 L 623.09 822.52 C 620.16 822.52 617.78 824.90 617.78 827.83 L 617.78 921.47 C 617.78 924.40 620.16 926.78 623.09 926.78 L 623.17 926.78 L 623.17 984.11 C 623.17 990.14 627.08 995.21 632.48 997.07 L 632.48 1081.11 L 410.69 1081.11 L 410.69 997.07 C 416.09 995.21 420.01 990.14 420.01 984.11 L 420.01 926.78 L 420.08 926.78 C 423.01 926.78 425.39 924.40 425.39 921.47 L 425.39 827.83 C 425.39 824.90 423.01 822.52 420.08 822.52 L 353.71 822.52 C 350.78 822.52 348.40 824.90 348.40 827.83 L 348.40 921.47 C 348.40 924.40 350.78 926.78 353.71 926.78 L 353.79 926.78 L 353.79 984.11 C 353.79 989.99 357.50 994.97 362.69 996.95 L 362.69 1081.11 L 341.25 1081.11 C 338.32 1081.11 335.94 1083.48 335.94 1086.41 L 335.94 1120.65 C 335.94 1123.58 338.32 1125.96 341.25 1125.96 L 362.69 1125.96 L 362.69 1179.35 C 346.39 1182.42 329.95 1185.99 313.41 1190.30 C 311.07 1190.91 309.44 1193.02 309.44 1195.43 L 309.44 1241.51 C 309.44 1243.17 310.23 1244.74 311.56 1245.75 C 312.89 1246.75 314.63 1247.06 316.22 1246.60 Z M 496.43 1125.96 L 464.61 1166.80 C 447.06 1167.88 429.05 1169.55 410.69 1171.85 L 410.69 1125.96 L 496.43 1125.96 Z M 548.16 1125.96 L 632.48 1125.96 L 632.48 1171.65 C 616.48 1169.77 598.88 1168.12 579.97 1166.93 L 548.16 1125.96 Z" fill="#dfa2a2" fill-rule="nonzero" node-id="93" stroke="none" target-height="424.56995" target-width="424.28998" target-x="309.44" target-y="822.52"></path><path d="M 725.03 406.28 C 498.11 472.05 315.80 407.05 313.99 406.39 C 312.36 405.79 310.54 406.03 309.12 407.03 C 307.69 408.02 306.85 409.65 306.85 411.38 L 306.85 459.02 C 306.85 461.42 308.45 463.51 310.75 464.15 C 311.35 464.31 329.46 469.15 360.18 474.43 L 360.18 527.12 L 338.70 527.12 C 335.77 527.12 333.39 529.50 333.39 532.43 L 333.39 566.73 C 333.39 569.66 335.77 572.04 338.70 572.04 L 360.18 572.04 L 360.18 656.34 C 354.98 658.31 351.26 663.31 351.26 669.19 L 351.26 726.62 L 351.18 726.62 C 348.25 726.62 345.87 729.00 345.87 731.93 L 345.87 825.73 C 345.87 828.67 348.25 831.04 351.18 831.04 L 417.67 831.04 C 420.60 831.04 422.98 828.67 422.98 825.73 L 422.98 731.93 C 422.98 729.00 420.60 726.62 417.67 726.62 L 417.59 726.62 L 417.59 669.19 C 417.59 663.16 413.67 658.07 408.26 656.21 L 408.26 572.04 L 630.41 572.04 L 630.41 656.21 C 625.00 658.07 621.08 663.16 621.08 669.19 L 621.08 726.62 L 621.00 726.62 C 618.07 726.62 615.69 729.00 615.69 731.93 L 615.69 825.73 C 615.69 828.67 618.07 831.04 621.00 831.04 L 687.49 831.04 C 690.42 831.04 692.80 828.67 692.80 825.73 L 692.80 731.93 C 692.80 729.00 690.42 726.62 687.49 726.62 L 687.41 726.62 L 687.41 669.19 C 687.41 663.31 683.69 658.31 678.49 656.34 L 678.49 572.04 L 699.97 572.04 C 702.90 572.04 705.28 569.66 705.28 566.73 L 705.28 532.43 C 705.28 529.50 702.90 527.12 699.97 527.12 L 678.49 527.12 L 678.49 473.64 C 694.81 470.56 711.28 466.98 727.85 462.67 C 730.19 462.06 731.82 459.95 731.82 457.53 L 731.82 411.38 C 731.82 409.71 731.04 408.14 729.70 407.13 C 728.37 406.13 726.63 405.82 725.03 406.28 Z M 544.53 527.12 L 576.40 486.20 C 593.98 485.13 612.02 483.46 630.41 481.15 L 630.41 527.12 L 544.53 527.12 Z M 492.72 527.12 L 408.26 527.12 L 408.26 481.35 C 424.28 483.24 441.92 484.89 460.86 486.08 L 492.72 527.12 Z" fill="#d6111d" fill-rule="nonzero" node-id="95" stroke="none" target-height="425.24997" target-width="424.97" target-x="306.85" target-y="405.79"></path><path d="M 740.49 423.84 L 743.51 408.71 C 744.26 404.96 740.95 401.64 737.20 402.39 C 708.55 408.18 607.25 427.31 519.34 427.31 C 431.41 427.31 328.18 408.18 298.97 402.39 C 295.18 401.64 291.86 405.05 292.70 408.82 L 295.49 421.35 C 295.94 423.37 297.46 424.93 299.49 425.35 C 318.40 429.27 416.73 448.56 519.34 448.56 C 621.53 448.56 717.35 431.55 736.38 427.97 C 738.49 427.57 740.07 425.94 740.49 423.84 Z" fill="#323136" fill-rule="nonzero" node-id="97" stroke="none" target-height="46.919983" target-width="452.40002" target-x="291.86" target-y="401.64"></path><path d="M 576.44 485.88 L 549.88 527.18 L 487.46 527.18 L 460.90 485.75 C 460.90 485.75 474.18 488.41 519.33 488.41 C 561.83 488.41 576.44 485.88 576.44 485.88 Z" fill="#323136" fill-rule="nonzero" node-id="99" stroke="none" target-height="41.429993" target-width="115.54001" target-x="460.9" target-y="485.75"></path><path d="M 338.70 527.12 L 360.18 527.12 L 678.49 527.12 L 699.97 527.12 C 702.90 527.12 705.28 529.50 705.28 532.43 L 705.28 566.73 C 705.28 569.66 702.90 572.04 699.97 572.04 L 678.49 572.04 L 360.18 572.04 L 338.70 572.04 C 335.77 572.04 333.39 569.66 333.39 566.73 L 333.39 532.43 C 333.39 529.50 335.77 527.12 338.70 527.12 Z" fill="#f14516" fill-rule="nonzero" node-id="101" stroke="none" target-height="44.919983" target-width="371.89" target-x="333.39" target-y="527.12"></path></g></svg>