<?xml version="1.0" standalone="no"?><!DOCTYPE svg PUBLIC "-//W3C//DTD SVG 1.1//EN" "http://www.w3.org/Graphics/SVG/1.1/DTD/svg11.dtd"><svg height="1024" node-id="1" sillyvg="true" template-height="1024" template-width="1024" version="1.1" viewBox="0 0 1024 1024" width="1024" xmlns="http://www.w3.org/2000/svg" xmlns:xlink="http://www.w3.org/1999/xlink"><defs node-id="17"><linearGradient gradientUnits="userSpaceOnUse" id="paint0_linear_604_1948" node-id="8" spreadMethod="pad" x1="125.49" x2="834.761" y1="31.6235" y2="1001.41"><stop offset="0" stop-color="#1f5dd4"></stop><stop offset="1" stop-color="#6176f6"></stop></linearGradient><linearGradient gradientUnits="userSpaceOnUse" id="paint1_linear_604_1948" node-id="11" spreadMethod="pad" x1="-142.514" x2="-142.514" y1="728.139" y2="1104.59"><stop offset="0" stop-color="#2e63dc"></stop><stop offset="1" stop-color="#431c71"></stop></linearGradient><clipPath id="clip0_604_1948" node-id="14"><path d="M 160.00 0.00 L 864.00 0.00 C 952.37 0.00 1024.00 71.63 1024.00 160.00 L 1024.00 864.00 C 1024.00 952.37 952.37 1024.00 864.00 1024.00 L 160.00 1024.00 C 71.63 1024.00 0.00 952.37 0.00 864.00 L 0.00 160.00 C -0.00 71.63 71.63 0.00 160.00 0.00 Z" fill="#000000" fill-rule="nonzero" node-id="32" stroke="none" target-height="1024" target-width="1024" target-x="0" target-y="0"></path></clipPath></defs><g clip-path="url(#clip0_604_1948)" id="sillyvg_g_0" node-id="36"><path d="M 160.00 0.00 L 864.00 0.00 C 952.37 0.00 1024.00 71.63 1024.00 160.00 L 1024.00 864.00 C 1024.00 952.37 952.37 1024.00 864.00 1024.00 L 160.00 1024.00 C 71.63 1024.00 0.00 952.37 0.00 864.00 L 0.00 160.00 C -0.00 71.63 71.63 0.00 160.00 0.00 Z" fill="url(#paint0_linear_604_1948)" fill-rule="nonzero" node-id="38" stroke="none" target-height="1024" target-width="1024" target-x="0" target-y="0"></path><path d="M 1094.00 628.32 C 1094.00 628.32 948.79 536.39 839.11 536.39 C 694.03 536.39 597.02 661.77 479.67 661.77 C 342.89 661.77 325.68 625.54 248.98 625.54 C 140.58 625.54 -2.50 693.47 -77.95 668.95 C -138.84 649.17 -212.14 609.20 -212.14 609.20 L -212.14 944.77 L 1094.00 964.94 L 1094.00 628.32 Z" fill="#5f83ed" fill-rule="evenodd" node-id="40" stroke="none" target-height="428.55" target-width="1306.14" target-x="-212.14" target-y="536.39"></path><path d="M -190.62 852.52 C -190.62 852.52 -184.00 641.40 -33.88 608.39 C 97.36 588.76 198.55 741.13 315.91 741.13 C 452.68 741.13 517.14 652.70 649.94 652.70 C 746.79 652.70 841.37 729.58 973.26 702.93 C 1266.22 643.74 1115.53 633.58 1115.53 633.58 L 1115.53 969.15 L -190.62 989.32 L -190.62 852.52 Z" fill="#5462dc" fill-rule="evenodd" node-id="42" stroke="none" target-height="400.56" target-width="1456.84" target-x="-190.62" target-y="588.76"></path><path d="M 0.00 828.99 C 0.00 828.99 63.01 744.30 112.47 735.78 C 161.92 727.25 189.29 809.81 189.29 809.81 C 189.29 809.81 212.44 806.19 225.02 809.81 C 237.60 813.42 247.55 828.99 247.55 828.99 C 247.55 828.99 263.57 779.25 330.08 779.25 C 396.59 779.25 430.38 846.45 430.38 846.45 C 430.38 846.45 452.52 828.99 475.58 828.99 C 498.63 828.99 524.73 846.45 524.73 846.45 C 524.73 846.45 541.02 779.25 609.74 779.25 C 678.45 779.25 707.76 836.28 707.76 836.28 C 707.76 836.28 735.53 818.76 762.51 818.76 C 789.49 818.76 821.68 836.28 821.68 836.28 C 821.68 836.28 830.71 780.95 870.90 748.33 C 911.09 715.72 998.58 735.78 998.58 735.78 L 1046.44 760.97 L 1046.44 1024.00 L 0.00 1024.00 L 0.00 828.99 Z" fill="url(#paint1_linear_604_1948)" fill-rule="evenodd" node-id="44" stroke="none" target-height="308.28003" target-width="1046.44" target-x="0" target-y="715.72"></path></g></svg>