<?xml version="1.0" standalone="no"?><!DOCTYPE svg PUBLIC "-//W3C//DTD SVG 1.1//EN" "http://www.w3.org/Graphics/SVG/1.1/DTD/svg11.dtd"><svg height="1024" node-id="1" sillyvg="true" template-height="1024" template-width="1024" version="1.1" viewBox="0 0 1024 1024" width="1024" xmlns="http://www.w3.org/2000/svg" xmlns:xlink="http://www.w3.org/1999/xlink"><defs node-id="32"><linearGradient gradientUnits="userSpaceOnUse" id="paint0_linear_604_1414" node-id="13" spreadMethod="pad" x1="0" x2="0" y1="0" y2="1024"><stop offset="0" stop-color="#9ebfff"></stop><stop offset="0.369792" stop-color="#a8d0ff"></stop><stop offset="1" stop-color="#b1e7ff"></stop></linearGradient><linearGradient gradientUnits="userSpaceOnUse" id="paint1_linear_604_1414" node-id="17" spreadMethod="pad" x1="512" x2="512" y1="123.498" y2="327.55"><stop offset="0" stop-color="#ffffff"></stop><stop offset="1" stop-color="#ffffff" stop-opacity="0.01"></stop></linearGradient><linearGradient gradientUnits="userSpaceOnUse" id="paint2_linear_604_1414" node-id="20" spreadMethod="pad" x1="1027.84" x2="1027.84" y1="581.38" y2="1024"><stop offset="0" stop-color="#8cc7fe"></stop><stop offset="1" stop-color="#a9d4ff"></stop></linearGradient><linearGradient gradientUnits="userSpaceOnUse" id="paint3_linear_604_1414" node-id="23" spreadMethod="pad" x1="-207.238" x2="-207.238" y1="738.842" y2="1279.64"><stop offset="0" stop-color="#8fc0fd"></stop><stop offset="1" stop-color="#91ddff"></stop></linearGradient><linearGradient gradientUnits="userSpaceOnUse" id="paint4_linear_604_1414" node-id="26" spreadMethod="pad" x1="751.97" x2="751.97" y1="319.608" y2="465.894"><stop offset="0" stop-color="#ffffff"></stop><stop offset="1" stop-color="#ffffff" stop-opacity="0.01"></stop></linearGradient><clipPath id="clip0_604_1414" node-id="29"><path d="M 160.00 0.00 L 864.00 0.00 C 952.37 0.00 1024.00 71.63 1024.00 160.00 L 1024.00 864.00 C 1024.00 952.37 952.37 1024.00 864.00 1024.00 L 160.00 1024.00 C 71.63 1024.00 0.00 952.37 0.00 864.00 L 0.00 160.00 C -0.00 71.63 71.63 0.00 160.00 0.00 Z" fill="#000000" fill-rule="nonzero" node-id="67" stroke="none" target-height="1024" target-width="1024" target-x="0" target-y="0"></path></clipPath></defs><g clip-path="url(#clip0_604_1414)" id="sillyvg_g_0" node-id="71"><path d="M 160.00 0.00 L 864.00 0.00 C 952.37 0.00 1024.00 71.63 1024.00 160.00 L 1024.00 864.00 C 1024.00 952.37 952.37 1024.00 864.00 1024.00 L 160.00 1024.00 C 71.63 1024.00 0.00 952.37 0.00 864.00 L 0.00 160.00 C -0.00 71.63 71.63 0.00 160.00 0.00 Z" fill="url(#paint0_linear_604_1414)" fill-rule="nonzero" node-id="73" stroke="none" target-height="1024" target-width="1024" target-x="0" target-y="0"></path><path d="M 312.84 327.55 L 440.69 327.55 C 480.07 327.55 512.00 295.45 512.00 255.86 C 512.00 216.26 480.07 184.16 440.69 184.16 C 428.80 184.16 417.59 187.09 407.74 192.25 C 394.02 152.24 356.23 123.50 311.77 123.50 C 255.72 123.50 210.29 169.18 210.29 225.52 C 210.29 226.68 210.31 227.83 210.34 228.97 C 193.98 237.81 182.86 255.18 182.86 275.16 C 182.86 304.09 206.19 327.55 234.97 327.55 L 311.77 327.55 C 311.93 327.55 312.84 327.55 312.84 327.55 L 311.77 327.55 L 312.84 327.55 Z" fill="url(#paint1_linear_604_1414)" fill-opacity="0.9" fill-rule="nonzero" group-id="1" node-id="77" stroke="none" target-height="204.04999" target-width="329.14" target-x="182.86" target-y="123.5"></path><path d="M 281.59 604.84 C 75.96 510.28 -141.09 796.87 -141.09 796.87 L 2.84 1024.00 L 1024.00 1024.00 L 1027.84 822.62 C 1027.84 822.62 989.79 817.12 974.90 813.25 C 749.48 754.76 489.95 700.66 281.59 604.84 Z" fill="url(#paint2_linear_604_1414)" fill-rule="evenodd" node-id="80" stroke="none" target-height="513.72" target-width="1168.9299" target-x="-141.09" target-y="510.28"></path><path d="M 751.49 738.94 C 1113.25 734.62 1230.75 925.49 1230.75 925.49 L 1230.75 1279.64 L -207.24 1279.64 L -200.44 942.57 C -200.44 942.57 139.63 972.73 255.85 942.57 C 481.27 884.08 592.36 740.84 751.49 738.94 Z" fill="url(#paint3_linear_604_1414)" fill-rule="evenodd" node-id="82" stroke="none" target-height="545.02" target-width="1437.99" target-x="-207.24" target-y="734.62"></path><path d="M 755.81 664.38 C 755.81 728.34 731.25 780.19 700.95 780.19 C 670.66 780.19 646.09 728.34 646.09 664.38 C 646.09 600.42 670.66 548.57 700.95 548.57 C 731.25 548.57 755.81 600.42 755.81 664.38 Z" fill="#7ab8fb" fill-opacity="0.9" fill-rule="nonzero" group-id="2" node-id="86" stroke="none" target-height="231.62" target-width="109.71997" target-x="646.09" target-y="548.57"></path><path d="M 700.95 738.84 L 700.95 841.42" fill="none" node-id="89" stroke="#406689" stroke-linecap="butt" stroke-width="1" target-height="102.579956" target-width="0" target-x="700.95" target-y="738.84"></path><path d="M 292.57 642.03 C 292.57 685.79 273.47 721.27 249.91 721.27 C 226.34 721.27 207.24 685.79 207.24 642.03 C 207.24 598.27 226.34 562.79 249.91 562.79 C 273.47 562.79 292.57 598.27 292.57 642.03 Z" fill="#8fb6ff" fill-opacity="0.9" fill-rule="nonzero" group-id="3" node-id="93" stroke="none" target-height="158.48004" target-width="85.33" target-x="207.24" target-y="562.79"></path><path d="M 249.91 689.89 L 249.91 761.70" fill="none" node-id="96" stroke="#80a1bd" stroke-linecap="butt" stroke-width="1" target-height="71.81" target-width="0" target-x="249.91" target-y="689.89"></path><path d="M 895.98 465.89 L 803.54 465.89 C 775.06 465.89 751.97 442.88 751.97 414.50 C 751.97 386.11 775.06 363.10 803.54 363.10 C 812.13 363.10 820.23 365.19 827.36 368.90 C 837.28 340.21 864.60 319.61 896.75 319.61 C 937.28 319.61 970.14 352.36 970.14 392.75 C 970.14 393.58 970.12 394.40 970.10 395.23 C 981.93 401.56 989.97 414.01 989.97 428.33 C 989.97 449.08 973.10 465.89 952.29 465.89 L 896.75 465.89 C 896.64 465.89 895.98 465.89 895.98 465.89 L 896.75 465.89 L 895.98 465.89 Z" fill="url(#paint4_linear_604_1414)" fill-opacity="0.9" fill-rule="nonzero" group-id="4" node-id="100" stroke="none" target-height="146.28003" target-width="238" target-x="751.97" target-y="319.61"></path></g></svg>