<?xml version="1.0" standalone="no"?><!DOCTYPE svg PUBLIC "-//W3C//DTD SVG 1.1//EN" "http://www.w3.org/Graphics/SVG/1.1/DTD/svg11.dtd"><svg height="1024" node-id="1" sillyvg="true" template-height="1024" template-width="1024" version="1.1" viewBox="0 0 1024 1024" width="1024" xmlns="http://www.w3.org/2000/svg" xmlns:xlink="http://www.w3.org/1999/xlink"><defs node-id="25"><linearGradient gradientUnits="userSpaceOnUse" id="paint0_linear_604_1953" node-id="19" spreadMethod="pad" x1="0" x2="1024" y1="1024" y2="1024"><stop offset="0" stop-color="#81b6f1"></stop><stop offset="1" stop-color="#9cc1ff"></stop></linearGradient><clipPath id="clip0_604_1953" node-id="22"><path d="M 160.00 0.00 L 864.00 0.00 C 952.37 0.00 1024.00 71.63 1024.00 160.00 L 1024.00 864.00 C 1024.00 952.37 952.37 1024.00 864.00 1024.00 L 160.00 1024.00 C 71.63 1024.00 0.00 952.37 0.00 864.00 L 0.00 160.00 C -0.00 71.63 71.63 0.00 160.00 0.00 Z" fill="#000000" fill-rule="nonzero" node-id="34" stroke="none" target-height="1024" target-width="1024" target-x="0" target-y="0"></path></clipPath></defs><g clip-path="url(#clip0_604_1953)" id="sillyvg_g_0" node-id="38"><path d="M 160.00 0.00 L 864.00 0.00 C 952.37 0.00 1024.00 71.63 1024.00 160.00 L 1024.00 864.00 C 1024.00 952.37 952.37 1024.00 864.00 1024.00 L 160.00 1024.00 C 71.63 1024.00 0.00 952.37 0.00 864.00 L 0.00 160.00 C -0.00 71.63 71.63 0.00 160.00 0.00 Z" fill="url(#paint0_linear_604_1953)" fill-rule="nonzero" node-id="40" stroke="none" target-height="1024" target-width="1024" target-x="0" target-y="0"></path><path d="M 560.76 585.14 L 694.86 585.14 L 694.86 633.90 L 560.76 633.90 Z" fill="#34516d" fill-rule="nonzero" node-id="42" stroke="none" target-height="48.76001" target-width="134.09998" target-x="560.76" target-y="585.14"></path><path d="M 719.24 591.24 C 719.24 551.43 693.80 517.56 658.29 505.01 C 648.75 501.64 638.50 499.81 627.81 499.81 C 577.32 499.81 536.38 540.74 536.38 591.24" fill="#d1e6ff" fill-rule="evenodd" node-id="44" stroke="none" target-height="91.42999" target-width="182.85999" target-x="536.38" target-y="499.81"></path><path d="M 719.24 591.24 C 719.24 540.74 678.30 499.81 627.81 499.81 L 627.81 591.24" fill="#bed4ee" fill-rule="evenodd" node-id="46" stroke="none" target-height="91.42999" target-width="91.42999" target-x="627.81" target-y="499.81"></path><path d="M 512.00 1275.81 L 750.86 1275.81 L 710.38 622.21 L 542.76 622.21 L 512.00 1275.81 Z" fill="#d1e6ff" fill-rule="evenodd" node-id="48" stroke="none" target-height="653.60004" target-width="238.85999" target-x="512" target-y="622.21"></path><path d="M 710.38 622.21 L 750.86 1275.81 L 694.86 1036.19 L 665.67 622.21 L 710.38 622.21 Z" fill="#bed4ee" fill-rule="nonzero" node-id="50" stroke="none" target-height="653.60004" target-width="85.19" target-x="665.67" target-y="622.21"></path><path d="M 437.72 659.50 C 427.30 601.99 445.27 545.08 482.35 504.00" fill="none" group-id="1" node-id="54" stroke="#ffffff" stroke-linecap="round" stroke-opacity="0.597935" stroke-width="1.88235" target-height="155.5" target-width="55.05002" target-x="427.3" target-y="504"></path><path d="M 795.89 571.39 C 778.45 515.61 736.12 473.54 684.22 454.35" fill="none" group-id="2" node-id="59" stroke="#ffffff" stroke-linecap="round" stroke-opacity="0.597935" stroke-width="1.88235" target-height="117.04001" target-width="111.670044" target-x="684.22" target-y="454.35"></path><path d="M 574.94 590.29 L 536.57 434.31 C 532.03 415.85 543.41 397.19 561.99 392.61 C 580.57 388.04 599.32 399.30 603.86 417.76 L 642.23 573.74" fill="#edf1f6" fill-rule="evenodd" node-id="62" stroke="none" target-height="202.24997" target-width="110.19995" target-x="532.03" target-y="388.04"></path><path d="M 603.86 417.76 C 599.32 399.30 580.57 388.04 561.99 392.61 L 609.52 585.14 L 642.23 573.74 L 603.86 417.76 Z" fill="#e3eaf1" fill-rule="nonzero" node-id="64" stroke="none" target-height="197.1" target-width="80.23999" target-x="561.99" target-y="388.04"></path><path d="M 610.12 683.23 L 493.34 794.67 C 479.51 807.85 457.59 807.44 444.37 793.74 L 444.37 793.74 C 431.14 780.04 431.63 758.24 445.45 745.05 L 562.23 633.62" fill="#f0f3f6" fill-rule="evenodd" node-id="66" stroke="none" target-height="174.22998" target-width="178.97998" target-x="431.14" target-y="633.62"></path><path d="M 445.45 745.05 C 431.63 758.24 431.14 780.04 444.37 793.74 L 591.24 658.28 L 562.23 633.62 L 445.45 745.05 Z" fill="#e3eaf1" fill-rule="nonzero" node-id="68" stroke="none" target-height="160.12" target-width="160.09998" target-x="431.14" target-y="633.62"></path><path d="M 654.18 672.39 L 809.33 716.94 C 827.69 722.20 846.92 711.67 852.27 693.40 L 852.27 693.40 C 857.64 675.12 847.09 656.04 828.73 650.77 L 673.58 606.23" fill="#f6faff" fill-rule="evenodd" node-id="70" stroke="none" target-height="115.97003" target-width="203.46002" target-x="654.18" target-y="606.23"></path><path d="M 809.33 716.94 L 654.18 672.39 L 664.66 642.97 L 852.27 693.40 C 846.92 711.67 827.69 722.20 809.33 716.94 Z" fill="#e3eaf1" fill-rule="nonzero" node-id="72" stroke="none" target-height="79.23004" target-width="198.09003" target-x="654.18" target-y="642.97"></path><path d="M 605.84 570.88 C 636.80 563.26 668.05 582.03 675.62 612.79 C 683.18 643.55 664.21 674.67 633.25 682.29 C 602.28 689.90 571.04 671.14 563.47 640.38 C 555.91 609.61 574.88 578.49 605.84 570.88 L 605.84 570.88 Z" fill="#4e75b2" fill-rule="evenodd" node-id="74" stroke="none" target-height="126.640015" target-width="127.27002" target-x="555.91" target-y="563.26"></path></g></svg>