<?xml version="1.0" standalone="no"?><!DOCTYPE svg PUBLIC "-//W3C//DTD SVG 1.1//EN" "http://www.w3.org/Graphics/SVG/1.1/DTD/svg11.dtd"><svg height="1024" node-id="1" sillyvg="true" template-height="1024" template-width="1024" version="1.1" viewBox="0 0 1024 1024" width="1024" xmlns="http://www.w3.org/2000/svg" xmlns:xlink="http://www.w3.org/1999/xlink"><defs node-id="56"><linearGradient gradientUnits="userSpaceOnUse" id="paint0_linear_604_2011" node-id="26" spreadMethod="pad" x1="1106.43" x2="1106.43" y1="1024" y2="-90.1912"><stop offset="0" stop-color="#6e7c84"></stop><stop offset="1" stop-color="#668ba7"></stop></linearGradient><linearGradient gradientUnits="userSpaceOnUse" id="paint1_linear_604_2011" node-id="29" spreadMethod="pad" x1="378.191" x2="528.065" y1="532.439" y2="748.206"><stop offset="0" stop-color="#5b8189"></stop><stop offset="1" stop-color="#a5babd"></stop></linearGradient><linearGradient gradientUnits="userSpaceOnUse" id="paint2_linear_604_2011" node-id="32" spreadMethod="pad" x1="560.017" x2="753.471" y1="703.169" y2="982.259"><stop offset="0" stop-color="#5b8189"></stop><stop offset="1" stop-color="#a5babd"></stop></linearGradient><linearGradient gradientUnits="userSpaceOnUse" id="paint3_linear_604_2011" node-id="35" spreadMethod="pad" x1="280.65" x2="435.266" y1="780.759" y2="1068.74"><stop offset="0" stop-color="#5b8189"></stop><stop offset="1" stop-color="#a5babd"></stop></linearGradient><linearGradient gradientUnits="userSpaceOnUse" id="paint4_linear_604_2011" node-id="38" spreadMethod="pad" x1="95.3792" x2="143.807" y1="696.81" y2="802.228"><stop offset="0" stop-color="#5b8189"></stop><stop offset="1" stop-color="#a5babd"></stop></linearGradient><linearGradient gradientUnits="userSpaceOnUse" id="paint5_linear_604_2011" node-id="41" spreadMethod="pad" x1="148.173" x2="171.635" y1="781.533" y2="827.243"><stop offset="0" stop-color="#5b8189"></stop><stop offset="1" stop-color="#a5babd"></stop></linearGradient><linearGradient gradientUnits="userSpaceOnUse" id="paint6_linear_604_2011" node-id="44" spreadMethod="pad" x1="323.494" x2="351.185" y1="620.791" y2="667.608"><stop offset="0" stop-color="#5b8189"></stop><stop offset="1" stop-color="#a5babd"></stop></linearGradient><linearGradient gradientUnits="userSpaceOnUse" id="paint7_linear_604_2011" node-id="47" spreadMethod="pad" x1="199.55" x2="232.879" y1="629.846" y2="691.068"><stop offset="0" stop-color="#5b8189"></stop><stop offset="1" stop-color="#a5babd"></stop></linearGradient><linearGradient gradientUnits="userSpaceOnUse" id="paint8_linear_604_2011" node-id="50" spreadMethod="pad" x1="264.632" x2="564.704" y1="-304.086" y2="241.005"><stop offset="0" stop-color="#ffffff"></stop><stop offset="1" stop-color="#ffffff" stop-opacity="0.01"></stop></linearGradient><clipPath id="clip0_604_2011" node-id="53"><path d="M 160.00 0.00 L 864.00 0.00 C 952.37 0.00 1024.00 71.63 1024.00 160.00 L 1024.00 864.00 C 1024.00 952.37 952.37 1024.00 864.00 1024.00 L 160.00 1024.00 C 71.63 1024.00 0.00 952.37 0.00 864.00 L 0.00 160.00 C -0.00 71.63 71.63 0.00 160.00 0.00 Z" fill="#000000" fill-rule="nonzero" node-id="113" stroke="none" target-height="1024" target-width="1024" target-x="0" target-y="0"></path></clipPath></defs><g clip-path="url(#clip0_604_2011)" id="sillyvg_g_0" node-id="117"><path d="M 160.00 0.00 L 864.00 0.00 C 952.37 0.00 1024.00 71.63 1024.00 160.00 L 1024.00 864.00 C 1024.00 952.37 952.37 1024.00 864.00 1024.00 L 160.00 1024.00 C 71.63 1024.00 0.00 952.37 0.00 864.00 L 0.00 160.00 C -0.00 71.63 71.63 0.00 160.00 0.00 Z" fill="url(#paint0_linear_604_2011)" fill-rule="nonzero" node-id="119" stroke="none" target-height="1024" target-width="1024" target-x="0" target-y="0"></path><path d="M 479.85 438.86 L 1230.75 852.35 L 1230.75 1206.49 L -207.24 1206.49 L -200.44 869.43 L 479.85 438.86 Z" fill="#374c70" fill-rule="evenodd" node-id="121" stroke="none" target-height="767.63" target-width="1437.99" target-x="-207.24" target-y="438.86"></path><path d="M 469.51 471.92 L 511.76 482.25 L 510.65 454.73 L 741.29 581.72 L 701.62 583.36 L 684.94 595.64 L 591.15 542.69 L 663.24 611.62 L 644.42 625.48 L 656.02 657.00 L 572.33 694.81 L 487.30 610.56 L 542.00 620.54 L 507.36 566.85 L 591.15 605.80 L 520.26 542.69 L 552.17 553.45 L 469.51 471.92 Z" fill="url(#paint1_linear_604_2011)" fill-rule="evenodd" node-id="123" stroke="none" target-height="240.07999" target-width="271.77997" target-x="469.51" target-y="454.73"></path><path d="M 750.66 610.12 L 778.91 602.79 L 1030.02 741.60 L 993.12 782.82 L 954.18 769.63 L 978.73 797.88 L 918.00 861.20 L 830.10 822.67 L 880.24 912.91 L 722.09 800.96 L 717.88 729.81 L 678.23 675.68 L 715.24 685.18 L 702.59 633.73 L 758.74 627.77 L 750.66 610.12 Z" fill="url(#paint2_linear_604_2011)" fill-rule="evenodd" node-id="125" stroke="none" target-height="310.12" target-width="351.79004" target-x="678.23" target-y="602.79"></path><path d="M 417.68 690.63 L 497.21 732.95 L 497.21 704.45 L 661.45 848.85 L 635.46 791.08 L 731.41 822.67 L 825.47 935.88 L 752.64 946.23 L 605.29 876.15 L 679.65 956.60 L 591.87 969.08 L 417.68 812.66 L 417.68 762.93 L 469.51 791.08 L 417.68 690.63 Z" fill="url(#paint3_linear_604_2011)" fill-rule="evenodd" node-id="127" stroke="none" target-height="278.45" target-width="407.78998" target-x="417.68" target-y="690.63"></path><path d="M 157.75 704.20 L 150.49 665.79 L 232.50 694.81 L 314.50 761.61 L 232.62 753.02 L 157.75 704.20 Z" fill="url(#paint4_linear_604_2011)" fill-rule="evenodd" node-id="129" stroke="none" target-height="95.82001" target-width="164.01" target-x="150.49" target-y="665.79"></path><path d="M 196.88 810.85 L 170.49 767.50 L 236.89 783.09 L 226.21 800.66 L 196.88 810.85 Z" fill="url(#paint5_linear_604_2011)" fill-rule="evenodd" node-id="131" stroke="none" target-height="43.349976" target-width="66.399994" target-x="170.49" target-y="767.5"></path><path d="M 367.73 652.87 L 344.68 605.44 L 407.74 625.11 L 367.73 625.11 L 367.73 652.87 Z" fill="url(#paint6_linear_604_2011)" fill-rule="evenodd" node-id="133" stroke="none" target-height="47.429993" target-width="63.059998" target-x="344.68" target-y="605.44"></path><path d="M 228.46 635.81 L 254.47 635.81 L 242.46 610.56 L 277.62 625.94 L 314.50 656.11 L 267.07 670.13 L 228.46 635.81 Z" fill="url(#paint7_linear_604_2011)" fill-rule="evenodd" node-id="135" stroke="none" target-height="59.570007" target-width="86.03999" target-x="228.46" target-y="610.56"></path><path d="M 258.85 261.19 C 257.43 259.76 257.43 257.44 258.85 256.01 C 260.28 254.59 262.60 254.59 264.02 256.01 L 289.88 281.87 C 291.31 283.30 291.31 285.62 289.88 287.05 C 288.46 288.47 286.14 288.47 284.71 287.05 L 258.85 261.19 Z M 388.15 390.49 C 386.73 389.06 386.73 386.74 388.15 385.31 C 389.58 383.88 391.90 383.88 393.32 385.31 L 419.19 411.17 C 420.61 412.60 420.61 414.92 419.19 416.34 C 417.76 417.77 415.44 417.77 414.01 416.34 L 388.15 390.49 Z M 646.75 643.91 C 645.32 645.34 645.32 647.65 646.75 649.08 L 672.61 674.94 C 674.04 676.37 676.36 676.37 677.78 674.94 C 679.21 673.51 679.21 671.20 677.78 669.77 L 651.92 643.91 C 650.50 642.48 648.18 642.48 646.75 643.91 Z M 776.05 778.38 C 774.62 776.96 774.62 774.64 776.05 773.21 C 777.48 771.78 779.79 771.78 781.22 773.21 L 807.08 799.07 C 808.51 800.50 808.51 802.82 807.08 804.24 C 805.65 805.67 803.34 805.67 801.91 804.24 L 776.05 778.38 Z M 905.35 902.51 C 903.92 903.94 903.92 906.25 905.35 907.68 L 931.21 933.54 C 932.64 934.97 934.96 934.97 936.38 933.54 C 937.81 932.11 937.81 929.80 936.38 928.37 L 910.52 902.51 C 909.10 901.08 906.78 901.08 905.35 902.51 Z" fill="#ffffff" fill-opacity="0.4" fill-rule="evenodd" group-id="1" node-id="139" stroke="none" target-height="680.38" target-width="680.38" target-x="257.43" target-y="254.59"></path><path d="M 280.63 2.59 C 279.21 1.16 279.21 -1.16 280.63 -2.59 C 282.06 -4.01 284.38 -4.01 285.81 -2.59 L 311.67 23.27 C 313.10 24.70 313.10 27.02 311.67 28.45 C 310.24 29.87 307.92 29.87 306.50 28.45 L 280.63 2.59 Z M 556.47 278.43 C 555.05 277.00 555.05 274.68 556.47 273.25 C 557.90 271.82 560.22 271.82 561.65 273.25 L 587.51 299.11 C 588.93 300.54 588.93 302.86 587.51 304.29 C 586.08 305.71 583.76 305.71 582.33 304.29 L 556.47 278.43 Z M 694.39 411.17 C 692.97 412.60 692.97 414.92 694.39 416.34 L 720.25 442.20 C 721.68 443.63 724.00 443.63 725.42 442.20 C 726.85 440.78 726.85 438.46 725.42 437.03 L 699.57 411.17 C 698.14 409.74 695.82 409.74 694.39 411.17 Z M 832.31 554.26 C 830.88 552.84 830.88 550.52 832.31 549.09 C 833.74 547.66 836.06 547.66 837.49 549.09 L 863.35 574.95 C 864.77 576.38 864.77 578.70 863.35 580.12 C 861.92 581.55 859.60 581.55 858.17 580.12 L 832.31 554.26 Z M 970.23 687.01 C 968.80 688.44 968.80 690.75 970.23 692.18 L 996.09 718.04 C 997.52 719.47 999.84 719.47 1001.26 718.04 C 1002.69 716.62 1002.69 714.30 1001.26 712.87 L 975.40 687.01 C 973.98 685.58 971.66 685.58 970.23 687.01 Z M 1108.15 830.10 C 1106.72 828.67 1106.72 826.36 1108.15 824.93 C 1109.58 823.50 1111.90 823.50 1113.32 824.93 L 1139.18 850.79 C 1140.61 852.22 1140.61 854.53 1139.18 855.96 C 1137.76 857.39 1135.44 857.39 1134.01 855.96 L 1108.15 830.10 Z M 1246.07 962.85 C 1244.64 964.28 1244.64 966.59 1246.07 968.02 L 1271.93 993.88 C 1273.36 995.31 1275.68 995.31 1277.10 993.88 C 1278.53 992.45 1278.53 990.14 1277.10 988.71 L 1251.24 962.85 C 1249.82 961.42 1247.50 961.42 1246.07 962.85 Z" fill="#ffffff" fill-opacity="0.4" fill-rule="evenodd" group-id="2" node-id="144" stroke="none" target-height="999.32" target-width="999.32007" target-x="279.21" target-y="-4.01"></path><path d="M 662.36 103.93 C 660.94 102.51 660.94 100.19 662.36 98.76 C 663.79 97.33 666.11 97.33 667.54 98.76 L 693.40 124.62 C 694.82 126.05 694.82 128.37 693.40 129.79 C 691.97 131.22 689.65 131.22 688.22 129.79 L 662.36 103.93 Z M 800.28 241.85 C 798.86 240.43 798.86 238.11 800.28 236.68 C 801.71 235.25 804.03 235.25 805.46 236.68 L 831.32 262.54 C 832.74 263.97 832.74 266.29 831.32 267.71 C 829.89 269.14 827.57 269.14 826.14 267.71 L 800.28 241.85 Z M 938.20 374.60 C 936.77 376.03 936.77 378.35 938.20 379.77 L 964.06 405.63 C 965.49 407.06 967.81 407.06 969.24 405.63 C 970.66 404.20 970.66 401.89 969.24 400.46 L 943.38 374.60 C 941.95 373.17 939.63 373.17 938.20 374.60 Z" fill="#ffffff" fill-opacity="0.4" fill-rule="evenodd" group-id="3" node-id="149" stroke="none" target-height="309.72998" target-width="309.71997" target-x="660.94" target-y="97.33"></path><path d="M 0.25 246.40 C -1.17 244.97 -1.17 242.65 0.25 241.22 C 1.68 239.79 4.00 239.79 5.43 241.22 L 31.29 267.08 C 32.71 268.51 32.71 270.83 31.29 272.25 C 29.86 273.68 27.54 273.68 26.11 272.25 L 0.25 246.40 Z M 138.17 384.31 C 136.75 382.89 136.75 380.57 138.17 379.14 C 139.60 377.71 141.92 377.71 143.35 379.14 L 169.21 405.00 C 170.63 406.43 170.63 408.75 169.21 410.18 C 167.78 411.60 165.46 411.60 164.03 410.18 L 138.17 384.31 Z M 276.09 517.06 C 274.67 518.49 274.67 520.81 276.09 522.23 L 301.95 548.09 C 303.38 549.52 305.70 549.52 307.12 548.09 C 308.55 546.67 308.55 544.35 307.12 542.92 L 281.26 517.06 C 279.84 515.63 277.52 515.63 276.09 517.06 Z M 414.01 660.15 C 412.58 658.73 412.58 656.41 414.01 654.98 C 415.44 653.55 417.76 653.55 419.19 654.98 L 445.04 680.84 C 446.47 682.27 446.47 684.59 445.04 686.01 C 443.62 687.44 441.30 687.44 439.87 686.01 L 414.01 660.15 Z M 551.93 792.90 C 550.50 794.33 550.50 796.64 551.93 798.07 L 577.79 823.93 C 579.22 825.36 581.54 825.36 582.96 823.93 C 584.39 822.50 584.39 820.19 582.96 818.76 L 557.10 792.90 C 555.68 791.47 553.36 791.47 551.93 792.90 Z M 827.77 1073.91 C 826.34 1072.48 826.34 1070.17 827.77 1068.74 C 829.20 1067.31 831.51 1067.31 832.94 1068.74 L 858.80 1094.60 C 860.23 1096.03 860.23 1098.34 858.80 1099.77 C 857.38 1101.20 855.06 1101.20 853.63 1099.77 L 827.77 1073.91 Z M 965.69 1206.66 C 964.26 1208.09 964.26 1210.40 965.69 1211.83 L 991.55 1237.69 C 992.98 1239.12 995.29 1239.12 996.72 1237.69 C 998.15 1236.26 998.15 1233.95 996.72 1232.52 L 970.86 1206.66 C 969.43 1205.23 967.12 1205.23 965.69 1206.66 Z" fill="#ffffff" fill-opacity="0.4" fill-rule="evenodd" group-id="4" node-id="154" stroke="none" target-height="999.33" target-width="999.32" target-x="-1.17" target-y="239.79"></path><path d="M 146.79 612.36 C 145.37 610.93 145.37 608.62 146.79 607.19 C 148.22 605.76 150.54 605.76 151.97 607.19 L 195.06 650.29 C 196.49 651.72 196.49 654.03 195.06 655.46 C 193.64 656.89 191.32 656.89 189.89 655.46 L 146.79 612.36 Z M 293.33 758.90 C 291.90 757.48 291.90 755.16 293.33 753.73 C 294.76 752.30 297.08 752.30 298.50 753.73 L 341.61 796.83 C 343.03 798.26 343.03 800.58 341.61 802.00 C 340.18 803.43 337.86 803.43 336.43 802.00 L 293.33 758.90 Z M 586.41 1046.81 C 584.98 1048.24 584.98 1050.55 586.41 1051.98 L 629.51 1095.08 C 630.94 1096.51 633.26 1096.51 634.68 1095.08 C 636.11 1093.65 636.11 1091.34 634.68 1089.91 L 591.58 1046.81 C 590.16 1045.38 587.84 1045.38 586.41 1046.81 Z M 732.95 1198.52 C 731.52 1197.09 731.52 1194.78 732.95 1193.35 C 734.38 1191.92 736.70 1191.92 738.12 1193.35 L 781.22 1236.45 C 782.65 1237.88 782.65 1240.19 781.22 1241.62 C 779.79 1243.05 777.48 1243.05 776.05 1241.62 L 732.95 1198.52 Z M 879.49 1339.89 C 878.06 1341.32 878.06 1343.63 879.49 1345.06 L 922.59 1388.16 C 924.02 1389.59 926.34 1389.59 927.76 1388.16 C 929.19 1386.73 929.19 1384.42 927.76 1382.99 L 884.66 1339.89 C 883.24 1338.46 880.92 1338.46 879.49 1339.89 Z" fill="#ffffff" fill-opacity="0.4" fill-rule="evenodd" group-id="5" node-id="159" stroke="none" target-height="783.82996" target-width="783.82" target-x="145.37" target-y="605.76"></path><path d="M 138.17 725.65 C 136.75 724.22 136.75 721.90 138.17 720.48 C 139.60 719.05 141.92 719.05 143.35 720.48 L 177.82 754.96 C 179.25 756.38 179.25 758.70 177.82 760.13 C 176.40 761.56 174.08 761.56 172.65 760.13 L 138.17 725.65 Z" fill="#ffffff" fill-opacity="0.4" fill-rule="nonzero" group-id="6" node-id="164" stroke="none" target-height="42.51001" target-width="42.5" target-x="136.75" target-y="719.05"></path><path d="M 487.87 9.60 C 486.44 11.03 486.44 13.35 487.87 14.78 L 556.83 83.74 C 558.26 85.16 560.58 85.16 562.00 83.74 C 563.43 82.31 563.43 79.99 562.00 78.56 L 493.05 9.60 C 491.62 8.18 489.30 8.18 487.87 9.60 Z M 772.33 355.02 C 770.90 356.44 770.90 358.76 772.33 360.19 L 841.29 429.15 C 842.72 430.58 845.04 430.58 846.46 429.15 C 847.89 427.72 847.89 425.40 846.46 423.98 L 777.50 355.02 C 776.08 353.59 773.76 353.59 772.33 355.02 Z" fill="#ffffff" fill-opacity="0.4" fill-rule="evenodd" group-id="7" node-id="169" stroke="none" target-height="422.4" target-width="361.45" target-x="486.44" target-y="8.18"></path><path d="M 749.18 124.62 C 747.75 126.05 747.75 128.37 749.18 129.79 L 757.80 138.41 C 759.22 139.84 761.54 139.84 762.97 138.41 C 764.40 136.99 764.40 134.67 762.97 133.24 L 754.35 124.62 C 752.92 123.19 750.61 123.19 749.18 124.62 Z M 912.96 288.40 C 911.53 289.83 911.53 292.14 912.96 293.57 L 921.58 302.19 C 923.00 303.62 925.32 303.62 926.75 302.19 C 928.18 300.76 928.18 298.45 926.75 297.02 L 918.13 288.40 C 916.70 286.97 914.38 286.97 912.96 288.40 Z" fill="#ffffff" fill-opacity="0.4" fill-rule="evenodd" group-id="8" node-id="174" stroke="none" target-height="180.43" target-width="180.43" target-x="747.75" target-y="123.19"></path><path d="M 415.85 271.90 C 414.42 270.47 414.42 268.15 415.85 266.72 C 417.28 265.30 419.59 265.30 421.02 266.72 L 507.22 352.92 C 508.65 354.35 508.65 356.67 507.22 358.10 C 505.79 359.52 503.48 359.52 502.05 358.10 L 415.85 271.90 Z M 98.59 493.86 C 97.17 492.43 97.17 490.12 98.59 488.69 C 100.02 487.26 102.34 487.26 103.77 488.69 L 189.97 574.89 C 191.40 576.32 191.40 578.63 189.97 580.06 C 188.54 581.49 186.22 581.49 184.79 580.06 L 98.59 493.86 Z M 856.95 707.82 C 855.52 709.25 855.52 711.57 856.95 712.99 L 943.15 799.19 C 944.58 800.62 946.89 800.62 948.32 799.19 C 949.75 797.76 949.75 795.45 948.32 794.02 L 862.12 707.82 C 860.69 706.39 858.38 706.39 856.95 707.82 Z" fill="#ffffff" fill-opacity="0.4" fill-rule="evenodd" group-id="9" node-id="179" stroke="none" target-height="535.32" target-width="852.58" target-x="97.17" target-y="265.3"></path><path d="M 328.76 269.38 L 447.13 269.38 C 483.60 269.38 513.17 239.66 513.17 202.99 C 513.17 166.33 483.60 136.61 447.13 136.61 C 436.13 136.61 425.75 139.32 416.63 144.10 C 403.92 107.05 368.94 80.44 327.77 80.44 C 275.87 80.44 233.80 122.73 233.80 174.91 C 233.80 175.98 233.82 177.04 233.85 178.10 C 218.71 186.28 208.41 202.37 208.41 220.87 C 208.41 247.66 230.01 269.38 256.66 269.38 L 327.77 269.38 C 327.92 269.38 328.76 269.38 328.76 269.38 L 327.77 269.38 L 328.76 269.38 Z" fill="url(#paint8_linear_604_2011)" fill-opacity="0.9" fill-rule="nonzero" group-id="10" node-id="184" stroke="none" target-height="188.94" target-width="304.75998" target-x="208.41" target-y="80.44"></path><path d="M 135.47 247.52 C 134.04 246.09 134.04 243.77 135.47 242.34 C 136.90 240.91 139.21 240.91 140.64 242.34 L 226.84 328.54 C 228.27 329.97 228.27 332.29 226.84 333.71 C 225.41 335.14 223.10 335.14 221.67 333.71 L 135.47 247.52 Z" fill="#ffffff" fill-opacity="0.6" fill-rule="nonzero" group-id="11" node-id="189" stroke="none" target-height="94.23001" target-width="94.23001" target-x="134.04" target-y="240.91"></path><path d="M 610.60 432.91 C 609.17 431.48 609.17 429.17 610.60 427.74 C 612.02 426.31 614.34 426.31 615.77 427.74 L 641.63 453.60 C 643.05 455.03 643.05 457.34 641.63 458.77 C 640.20 460.20 637.88 460.20 636.46 458.77 L 610.60 432.91 Z" fill="#ffffff" fill-opacity="0.120554" fill-rule="nonzero" group-id="12" node-id="194" stroke="none" target-height="33.890015" target-width="33.880005" target-x="609.17" target-y="426.31"></path><path d="M 535.92 135.96 C 534.49 134.53 534.49 132.22 535.92 130.79 C 537.35 129.36 539.66 129.36 541.09 130.79 L 566.95 156.65 C 568.38 158.08 568.38 160.40 566.95 161.82 C 565.52 163.25 563.21 163.25 561.78 161.82 L 535.92 135.96 Z" fill="#ffffff" fill-opacity="0.5" fill-rule="nonzero" group-id="13" node-id="199" stroke="none" target-height="33.89" target-width="33.890015" target-x="534.49" target-y="129.36"></path></g></svg>