<?xml version="1.0" standalone="no"?><!DOCTYPE svg PUBLIC "-//W3C//DTD SVG 1.1//EN" "http://www.w3.org/Graphics/SVG/1.1/DTD/svg11.dtd"><svg height="1024" node-id="1" sillyvg="true" template-height="1024" template-width="1024" version="1.1" viewBox="0 0 1024 1024" width="1024" xmlns="http://www.w3.org/2000/svg" xmlns:xlink="http://www.w3.org/1999/xlink"><defs node-id="32"><linearGradient gradientUnits="userSpaceOnUse" id="paint0_linear_604_1971" node-id="22" spreadMethod="pad" x1="1536" x2="512" y1="512" y2="-512"><stop offset="0" stop-color="#253363"></stop><stop offset="1" stop-color="#5a79e8"></stop></linearGradient><linearGradient gradientUnits="userSpaceOnUse" id="paint1_linear_604_1971" node-id="25" spreadMethod="pad" x1="-194.29" x2="217.618" y1="221.717" y2="914.574"><stop offset="0" stop-color="#4c63b2"></stop><stop offset="0.721854" stop-color="#ffffff" stop-opacity="0.707796"></stop><stop offset="1" stop-color="#ffffff" stop-opacity="0.0971919"></stop></linearGradient><clipPath id="clip0_604_1971" node-id="29"><path d="M 160.00 0.00 L 864.00 0.00 C 952.37 0.00 1024.00 71.63 1024.00 160.00 L 1024.00 864.00 C 1024.00 952.37 952.37 1024.00 864.00 1024.00 L 160.00 1024.00 C 71.63 1024.00 0.00 952.37 0.00 864.00 L 0.00 160.00 C -0.00 71.63 71.63 0.00 160.00 0.00 Z" fill="#000000" fill-rule="nonzero" node-id="49" stroke="none" target-height="1024" target-width="1024" target-x="0" target-y="0"></path></clipPath></defs><g clip-path="url(#clip0_604_1971)" id="sillyvg_g_0" node-id="53"><path d="M 160.00 0.00 L 864.00 0.00 C 952.37 0.00 1024.00 71.63 1024.00 160.00 L 1024.00 864.00 C 1024.00 952.37 952.37 1024.00 864.00 1024.00 L 160.00 1024.00 C 71.63 1024.00 0.00 952.37 0.00 864.00 L 0.00 160.00 C -0.00 71.63 71.63 0.00 160.00 0.00 Z" fill="url(#paint0_linear_604_1971)" fill-rule="nonzero" node-id="55" stroke="none" target-height="1024" target-width="1024" target-x="0" target-y="0"></path><path d="M 796.69 875.26 L 695.67 875.26 L 695.67 768.23 L 641.62 768.23 L 641.62 678.32 L 626.69 678.32 L 626.69 530.65 C 626.69 527.08 623.80 524.19 620.24 524.19 L 620.24 524.19 C 616.67 524.19 613.78 527.08 613.78 530.65 L 613.78 678.32 L 598.78 678.32 L 598.78 768.23 L 544.73 768.23 L 544.73 875.26 L 444.47 875.26 L 444.47 1156.41 L 423.63 1156.41 L 816.76 1156.41 L 796.69 1156.41 L 796.69 875.26 Z" fill="#111125" fill-rule="evenodd" node-id="57" stroke="none" target-height="632.22003" target-width="393.13" target-x="423.63" target-y="524.19"></path><path d="M 499.81 998.25 L 524.19 998.25 L 524.19 914.29 L 499.81 914.29 L 499.81 998.25 Z" fill="#ad9657" fill-rule="evenodd" node-id="59" stroke="none" target-height="83.96002" target-width="24.380005" target-x="499.81" target-y="914.29"></path><path d="M 609.52 998.25 L 633.90 998.25 L 633.90 914.29 L 609.52 914.29 L 609.52 998.25 Z" fill="#ad9657" fill-rule="evenodd" node-id="61" stroke="none" target-height="83.96002" target-width="24.380005" target-x="609.52" target-y="914.29"></path><path d="M 719.24 998.25 L 743.62 998.25 L 743.62 914.29 L 719.24 914.29 L 719.24 998.25 Z" fill="#ad9657" fill-rule="evenodd" node-id="63" stroke="none" target-height="83.96002" target-width="24.380005" target-x="719.24" target-y="914.29"></path><path d="M 210.91 235.29 C 209.48 236.72 209.48 239.03 210.91 240.46 L 236.77 266.32 C 238.20 267.75 240.51 267.75 241.94 266.32 C 243.37 264.89 243.37 262.58 241.94 261.15 L 216.08 235.29 C 214.65 233.86 212.34 233.86 210.91 235.29 Z M 562.24 562.24 C 560.81 563.66 560.81 565.98 562.24 567.41 L 588.10 593.27 C 589.52 594.70 591.84 594.70 593.27 593.27 C 594.70 591.84 594.70 589.52 593.27 588.10 L 567.41 562.24 C 565.98 560.81 563.66 560.81 562.24 562.24 Z" fill="#ffffff" fill-opacity="0.4" fill-rule="evenodd" group-id="1" node-id="67" stroke="none" target-height="360.84003" target-width="385.22003" target-x="209.48" target-y="233.86"></path><path d="M 471.96 191.58 C 470.53 193.00 470.53 195.32 471.96 196.75 L 497.82 222.61 C 499.25 224.04 501.56 224.04 502.99 222.61 C 504.42 221.18 504.42 218.87 502.99 217.44 L 477.13 191.58 C 475.70 190.15 473.39 190.15 471.96 191.58 Z M 609.88 329.50 C 608.45 330.92 608.45 333.24 609.88 334.67 L 635.74 360.53 C 637.16 361.96 639.48 361.96 640.91 360.53 C 642.34 359.10 642.34 356.78 640.91 355.36 L 615.05 329.50 C 613.62 328.07 611.30 328.07 609.88 329.50 Z M 650.27 521.35 C 648.85 519.92 648.85 517.61 650.27 516.18 C 651.70 514.75 654.02 514.75 655.45 516.18 L 681.30 542.04 C 682.73 543.47 682.73 545.78 681.30 547.21 C 679.88 548.64 677.56 548.64 676.13 547.21 L 650.27 521.35 Z M 885.72 605.34 C 884.29 606.76 884.29 609.08 885.72 610.51 L 911.58 636.37 C 913.00 637.79 915.32 637.79 916.75 636.37 C 918.18 634.94 918.18 632.62 916.75 631.20 L 890.89 605.34 C 889.46 603.91 887.14 603.91 885.72 605.34 Z" fill="#ffffff" fill-opacity="0.4" fill-rule="evenodd" group-id="2" node-id="72" stroke="none" target-height="447.63998" target-width="447.65" target-x="470.53" target-y="190.15"></path><path d="M 577.85 22.26 C 576.42 20.83 576.42 18.51 577.85 17.09 C 579.28 15.66 581.59 15.66 583.02 17.09 L 608.88 42.95 C 610.31 44.37 610.31 46.69 608.88 48.12 C 607.45 49.55 605.14 49.55 603.71 48.12 L 577.85 22.26 Z M 715.77 160.18 C 714.34 158.75 714.34 156.43 715.77 155.00 C 717.20 153.58 719.51 153.58 720.94 155.00 L 746.80 180.87 C 748.23 182.29 748.23 184.61 746.80 186.04 C 745.37 187.47 743.05 187.47 741.63 186.04 L 715.77 160.18 Z M 853.69 292.93 C 852.26 294.35 852.26 296.67 853.69 298.10 L 879.55 323.96 C 880.98 325.38 883.29 325.38 884.72 323.96 C 886.15 322.53 886.15 320.21 884.72 318.79 L 858.86 292.93 C 857.43 291.50 855.12 291.50 853.69 292.93 Z" fill="#ffffff" fill-opacity="0.4" fill-rule="evenodd" group-id="3" node-id="77" stroke="none" target-height="309.72" target-width="309.73004" target-x="576.42" target-y="15.66"></path><path d="M 191.58 440.56 C 190.15 439.13 190.15 436.81 191.58 435.39 C 193.00 433.96 195.32 433.96 196.75 435.39 L 222.61 461.25 C 224.04 462.67 224.04 464.99 222.61 466.42 C 221.18 467.85 218.87 467.85 217.44 466.42 L 191.58 440.56 Z M 427.02 578.48 C 425.59 577.05 425.59 574.73 427.02 573.31 C 428.45 571.88 430.76 571.88 432.19 573.31 L 458.05 599.17 C 459.48 600.59 459.48 602.91 458.05 604.34 C 456.62 605.77 454.31 605.77 452.88 604.34 L 427.02 578.48 Z M 467.42 711.23 C 465.99 712.65 465.99 714.97 467.42 716.40 L 493.28 742.26 C 494.70 743.68 497.02 743.68 498.45 742.26 C 499.88 740.83 499.88 738.51 498.45 737.09 L 472.59 711.23 C 471.16 709.80 468.84 709.80 467.42 711.23 Z" fill="#ffffff" fill-opacity="0.4" fill-rule="evenodd" group-id="4" node-id="82" stroke="none" target-height="309.72" target-width="309.73" target-x="190.15" target-y="433.96"></path><path d="M 62.28 525.51 C 60.85 526.94 60.85 529.26 62.28 530.69 L 105.38 573.79 C 106.81 575.22 109.12 575.22 110.55 573.79 C 111.98 572.36 111.98 570.04 110.55 568.62 L 67.45 525.51 C 66.02 524.09 63.71 524.09 62.28 525.51 Z M 269.77 623.29 C 268.34 624.72 268.34 627.04 269.77 628.47 L 312.87 671.57 C 314.30 672.99 316.61 672.99 318.04 671.57 C 319.47 670.14 319.47 667.82 318.04 666.39 L 274.94 623.29 C 273.51 621.87 271.20 621.87 269.77 623.29 Z" fill="#ffffff" fill-opacity="0.4" fill-rule="evenodd" group-id="5" node-id="87" stroke="none" target-height="148.89996" target-width="258.62" target-x="60.85" target-y="524.09"></path><path d="M 53.66 643.97 C 52.23 642.54 52.23 640.23 53.66 638.80 C 55.09 637.37 57.40 637.37 58.83 638.80 L 93.31 673.28 C 94.74 674.71 94.74 677.02 93.31 678.45 C 91.88 679.88 89.57 679.88 88.14 678.45 L 53.66 643.97 Z" fill="#ffffff" fill-opacity="0.4" fill-rule="nonzero" group-id="6" node-id="92" stroke="none" target-height="42.51001" target-width="42.51" target-x="52.23" target-y="637.37"></path><path d="M 664.66 42.95 C 663.23 44.37 663.23 46.69 664.66 48.12 L 673.28 56.74 C 674.71 58.17 677.02 58.17 678.45 56.74 C 679.88 55.31 679.88 52.99 678.45 51.57 L 669.83 42.95 C 668.40 41.52 666.09 41.52 664.66 42.95 Z M 828.44 206.72 C 827.01 208.15 827.01 210.47 828.44 211.90 L 837.06 220.52 C 838.49 221.94 840.80 221.94 842.23 220.52 C 843.66 219.09 843.66 216.77 842.23 215.34 L 833.61 206.72 C 832.18 205.30 829.87 205.30 828.44 206.72 Z" fill="#ffffff" fill-opacity="0.4" fill-rule="evenodd" group-id="7" node-id="97" stroke="none" target-height="180.42" target-width="180.43" target-x="663.23" target-y="41.52"></path><path d="M 331.33 117.08 C 329.91 115.65 329.91 113.33 331.33 111.91 C 332.76 110.48 335.08 110.48 336.51 111.91 L 422.71 198.10 C 424.13 199.53 424.13 201.85 422.71 203.28 C 421.28 204.71 418.96 204.71 417.53 203.28 L 331.33 117.08 Z M 14.08 412.19 C 12.65 410.76 12.65 408.44 14.08 407.01 C 15.51 405.59 17.82 405.59 19.25 407.01 L 105.45 493.21 C 106.88 494.64 106.88 496.96 105.45 498.38 C 104.02 499.81 101.71 499.81 100.28 498.38 L 14.08 412.19 Z M 772.43 626.15 C 771.00 627.57 771.00 629.89 772.43 631.32 L 836.17 693.43 C 837.60 694.86 839.92 694.86 841.35 693.43 C 842.77 692.00 842.77 689.69 841.35 688.26 L 777.60 626.15 C 776.17 624.72 773.86 624.72 772.43 626.15 Z" fill="#ffffff" fill-opacity="0.4" fill-rule="evenodd" group-id="8" node-id="102" stroke="none" target-height="584.38" target-width="830.12" target-x="12.65" target-y="110.48"></path><path d="M 50.95 165.84 C 49.52 164.41 49.52 162.10 50.95 160.67 C 52.38 159.24 54.70 159.24 56.13 160.67 L 142.32 246.87 C 143.75 248.29 143.75 250.61 142.32 252.04 C 140.90 253.47 138.58 253.47 137.15 252.04 L 50.95 165.84 Z" fill="#ffffff" fill-opacity="0.6" fill-rule="nonzero" group-id="9" node-id="107" stroke="none" target-height="94.229996" target-width="94.229996" target-x="49.52" target-y="159.24"></path><path d="M 526.08 351.23 C 524.65 349.81 524.65 347.49 526.08 346.06 C 527.51 344.63 529.82 344.63 531.25 346.06 L 557.11 371.92 C 558.54 373.35 558.54 375.67 557.11 377.09 C 555.68 378.52 553.37 378.52 551.94 377.09 L 526.08 351.23 Z" fill="#ffffff" fill-opacity="0.120554" fill-rule="nonzero" group-id="10" node-id="112" stroke="none" target-height="33.889984" target-width="33.889954" target-x="524.65" target-y="344.63"></path><path d="M 451.40 54.29 C 449.97 52.86 449.97 50.54 451.40 49.12 C 452.83 47.69 455.14 47.69 456.57 49.12 L 482.43 74.98 C 483.86 76.40 483.86 78.72 482.43 80.15 C 481.00 81.58 478.69 81.58 477.26 80.15 L 451.40 54.29 Z" fill="#ffffff" fill-opacity="0.5" fill-rule="nonzero" group-id="11" node-id="117" stroke="none" target-height="33.890003" target-width="33.889984" target-x="449.97" target-y="47.69"></path><path d="M 687.82 278.51 C 686.39 277.08 686.39 274.77 687.82 273.34 C 689.24 271.91 691.56 271.91 692.99 273.34 L 761.95 342.30 C 763.38 343.73 763.38 346.04 761.95 347.47 C 760.52 348.90 758.20 348.90 756.78 347.47 L 687.82 278.51 Z" fill="#ffffff" fill-opacity="0.5" fill-rule="nonzero" group-id="12" node-id="122" stroke="none" target-height="76.98999" target-width="76.98999" target-x="686.39" target-y="271.91"></path><path d="M 401.87 313.67 C 416.75 346.29 427.93 367.01 435.63 376.14 C 443.83 385.84 456.93 386.55 474.24 379.08 C 478.48 393.27 480.09 403.94 479.15 410.91 C 478.05 419.16 475.94 430.08 472.82 443.67 L 471.54 449.24 L 477.19 448.54 C 487.25 447.29 492.91 448.81 494.83 452.31 C 497.27 456.76 498.58 470.02 498.37 491.25 L 498.32 496.16 L 503.12 495.21 C 518.00 492.27 529.23 487.93 536.81 482.05 C 541.62 478.32 546.14 473.50 550.37 467.59 C 551.60 478.66 554.51 487.35 559.20 493.68 C 566.00 502.86 574.74 505.77 584.42 501.82 L 586.68 500.89 L 586.89 498.45 C 587.70 488.67 589.80 483.51 592.15 482.63 C 594.70 481.67 595.69 480.04 597.15 476.34 C 597.38 475.75 597.38 475.75 597.60 475.18 C 598.30 473.42 598.77 472.56 599.08 472.30 C 599.02 472.35 599.04 472.39 599.95 472.92 C 599.70 472.78 600.15 473.47 600.86 474.56 C 601.21 475.09 601.61 475.71 602.03 476.38 C 603.81 479.22 606.27 483.39 609.41 488.86 L 610.60 490.93 L 612.98 490.87 C 625.82 490.49 635.95 487.61 643.28 482.08 C 650.47 476.67 657.60 466.71 664.87 452.17 C 667.71 446.60 670.21 443.41 671.84 442.68 C 673.93 441.75 675.04 442.79 677.51 448.26 C 677.63 448.54 678.46 450.40 678.70 450.94 C 680.80 455.54 682.33 457.75 685.41 458.65 C 692.96 460.85 702.67 459.79 714.61 455.64 C 718.11 468.25 721.73 476.80 725.67 481.47 C 730.33 486.99 737.76 490.05 747.78 490.85 L 749.27 490.69 L 769.17 484.54 C 768.58 491.27 768.85 498.21 769.97 505.35 L 770.28 507.36 L 772.09 508.29 C 776.53 510.56 777.58 513.79 776.93 520.71 C 776.86 521.51 776.78 522.23 776.62 523.59 C 775.44 533.68 775.84 537.72 780.83 541.48 C 788.14 546.99 797.99 546.99 809.97 541.97 L 810.93 541.39 C 818.01 535.66 822.88 533.56 824.92 534.33 C 827.11 535.14 829.99 540.31 832.59 549.81 L 834.29 556.02 L 839.08 551.74 C 846.62 544.99 853.17 546.37 860.87 556.96 C 870.23 569.84 886.67 583.25 910.21 597.33 C 910.21 597.33 875.92 564.10 867.30 552.25 C 858.47 540.10 848.46 536.53 838.60 542.22 C 835.70 533.66 832.25 528.53 827.70 526.83 C 822.20 524.78 815.30 527.68 806.39 534.80 C 797.03 538.62 790.22 538.56 785.61 535.08 C 783.91 533.81 783.70 531.62 784.53 524.53 C 784.70 523.10 784.78 522.34 784.86 521.45 C 785.70 512.44 784.03 506.33 777.56 502.22 C 776.50 494.34 776.59 486.80 777.83 479.56 L 778.92 473.15 L 747.67 482.82 C 739.99 482.09 734.75 479.86 731.75 476.30 C 728.38 472.30 724.76 463.24 721.18 449.38 L 720.06 445.02 L 715.89 446.65 C 703.50 451.48 694.04 452.83 687.63 450.97 C 687.67 450.98 687.59 450.84 687.43 450.54 C 687.14 450.04 686.61 449.08 685.94 447.61 C 685.80 447.30 685.41 446.42 685.11 445.75 C 684.95 445.38 684.81 445.08 684.76 444.97 C 680.68 435.89 676.39 431.91 668.61 435.37 C 664.83 437.06 661.39 441.44 657.76 448.56 C 650.99 462.12 644.51 471.16 638.50 475.69 C 633.05 479.79 625.27 482.19 615.10 482.77 C 608.67 471.58 605.80 467.11 604.00 466.04 C 600.40 463.90 596.92 463.82 594.15 466.02 C 592.37 467.44 591.42 469.15 590.20 472.23 C 590.08 472.54 590.02 472.70 589.96 472.85 L 589.74 473.40 C 589.63 473.67 589.53 473.92 589.45 474.13 C 589.10 474.96 588.96 475.29 589.36 475.14 C 583.58 477.31 580.47 484.08 579.21 495.14 C 574.05 496.45 569.73 494.50 565.59 488.90 C 560.42 481.93 557.70 470.56 557.65 454.80 L 557.61 439.40 L 550.19 452.87 C 544.59 463.04 538.49 470.65 531.94 475.72 C 526.26 480.13 517.72 483.69 506.35 486.34 C 506.34 466.54 504.93 454.13 501.81 448.45 C 498.50 442.42 491.68 439.81 481.78 440.15 C 484.30 428.77 486.06 419.38 487.05 411.98 C 488.27 402.87 486.05 389.73 480.49 372.33 L 479.44 369.05 C 479.25 368.47 478.60 368.19 478.05 368.45 L 474.96 369.96 C 458.44 378.01 447.65 378.01 441.71 370.97 C 434.69 362.66 423.86 342.61 409.46 311.09 C 408.75 274.26 406.25 254.79 400.65 249.76 C 396.42 245.96 389.50 241.94 379.81 237.61 C 383.55 221.21 384.17 209.12 381.35 201.16 C 380.48 198.34 379.21 196.00 377.53 194.13 C 372.29 188.31 363.21 184.60 350.91 182.17 C 346.12 181.22 341.12 180.52 335.39 179.91 C 334.73 179.84 333.23 179.69 331.57 179.53 C 328.85 179.26 325.67 178.95 324.90 178.85 C 324.56 178.81 324.27 178.77 324.05 178.73 C 312.82 176.78 305.19 176.23 287.16 175.53 C 272.83 174.97 267.42 174.24 264.61 172.22 C 261.92 170.28 260.49 168.58 260.17 166.23 C 260.10 163.62 261.20 160.21 263.31 155.02 C 265.97 148.47 266.97 145.17 267.01 140.95 C 267.03 139.95 266.96 138.97 266.82 138.00 C 266.69 136.80 266.45 135.63 266.08 134.47 C 261.51 120.22 255.74 119.92 256.80 129.48 C 256.98 131.64 257.54 134.35 258.56 137.55 C 258.74 138.12 258.87 138.71 258.95 139.31 C 258.97 139.60 258.98 139.90 258.97 140.21 C 258.94 143.04 258.14 145.68 255.87 151.25 C 253.16 157.91 251.72 162.90 252.08 167.07 C 252.22 171.95 254.63 175.71 260.03 179.61 C 264.75 183.02 270.52 183.80 286.98 184.44 C 304.70 185.13 312.11 185.67 322.90 187.55 C 323.25 187.61 323.64 187.67 324.09 187.73 C 324.99 187.85 328.49 188.19 331.30 188.47 C 332.86 188.62 334.21 188.75 334.79 188.81 C 340.32 189.40 345.10 190.08 349.64 190.98 C 360.40 193.12 368.16 196.29 371.94 200.51 C 375.97 205.00 370.91 236.25 370.05 241.40 L 369.88 242.04 L 369.93 242.06 C 369.93 242.10 369.92 242.12 369.92 242.12 C 373.16 255.36 374.26 263.47 371.85 266.35 C 372.19 265.95 371.53 265.85 369.55 265.55 C 369.05 265.47 368.46 265.38 367.78 265.27 C 363.10 264.50 360.07 264.32 356.63 264.95 C 356.58 264.96 356.55 264.97 356.52 264.97 C 356.50 264.98 356.47 264.98 356.42 264.99 C 352.65 265.72 347.99 268.78 341.94 274.17 L 340.98 275.03 L 340.69 276.29 C 338.42 286.25 338.42 292.91 341.43 296.81 C 343.59 299.61 347.39 302.42 352.90 305.41 C 350.72 325.65 350.83 340.63 353.31 350.50 C 355.84 360.62 361.77 369.12 370.96 375.93 C 371.07 382.91 370.30 387.32 369.08 388.83 C 367.17 391.20 363.33 394.75 357.64 399.35 L 356.07 400.63 L 356.16 402.66 C 356.77 417.34 361.71 425.87 371.35 426.33 C 371.65 427.28 371.88 428.84 372.17 431.75 C 373.31 443.54 373.96 447.67 376.59 455.00 C 378.24 459.61 383.88 463.65 393.66 468.01 C 409.13 473.41 410.23 478.12 398.82 487.08 C 392.10 492.35 391.64 497.97 393.64 512.82 C 394.10 516.17 394.30 517.95 394.45 519.92 C 394.59 521.79 394.63 523.47 394.56 525.03 C 394.37 529.21 393.24 548.57 393.24 548.57 C 394.95 543.26 396.21 539.47 397.17 536.59 C 399.33 530.09 399.94 528.26 400.65 524.19 C 400.97 522.38 400.70 519.47 400.39 516.09 C 399.69 508.51 398.78 498.59 403.72 493.43 C 419.86 476.57 417.46 467.79 396.57 460.52 C 389.05 457.15 384.74 454.07 384.09 452.27 C 381.77 445.78 381.19 442.08 380.11 430.96 C 379.21 421.69 377.99 418.30 372.18 418.30 C 367.70 418.30 364.95 414.21 364.24 404.32 C 369.48 400.00 373.13 396.56 375.28 393.90 C 378.22 390.25 379.25 383.65 378.89 373.66 L 378.82 371.63 L 377.15 370.49 C 368.55 364.56 363.24 357.28 361.04 348.53 C 358.75 339.38 358.75 324.34 361.14 303.58 L 361.46 300.79 L 358.97 299.53 C 353.08 296.53 349.29 293.89 347.73 291.87 C 346.77 290.63 346.72 286.31 348.20 279.35 C 352.74 275.40 356.12 273.25 357.93 272.89 C 357.96 272.89 357.98 272.88 357.99 272.88 C 358.01 272.88 358.03 272.87 358.06 272.87 C 360.37 272.44 362.66 272.58 366.51 273.21 C 374.19 274.47 375.47 274.50 377.95 271.54 C 381.91 266.81 382.50 258.60 380.22 246.60 C 387.28 249.95 392.33 253.01 395.34 255.71 C 398.38 258.45 400.89 278.23 401.51 312.07 L 401.87 313.67 Z" fill="url(#paint1_linear_604_1971)" fill-rule="evenodd" node-id="125" stroke="none" target-height="477.41003" target-width="658.49" target-x="251.72" target-y="119.92"></path></g></svg>