<?xml version="1.0" standalone="no"?><!DOCTYPE svg PUBLIC "-//W3C//DTD SVG 1.1//EN" "http://www.w3.org/Graphics/SVG/1.1/DTD/svg11.dtd"><svg height="1024" node-id="1" sillyvg="true" template-height="1024" template-width="1024" version="1.1" viewBox="0 0 1024 1024" width="1024" xmlns="http://www.w3.org/2000/svg" xmlns:xlink="http://www.w3.org/1999/xlink"><defs node-id="63"><linearGradient gradientUnits="userSpaceOnUse" id="paint0_linear_604_2752" node-id="54" spreadMethod="pad" x1="209.82" x2="662.588" y1="0.00000276389" y2="613.396"><stop offset="0" stop-color="#4460df"></stop><stop offset="1" stop-color="#4c73c4"></stop></linearGradient><linearGradient gradientUnits="userSpaceOnUse" id="paint1_linear_604_2752" node-id="57" spreadMethod="pad" x1="-229.222" x2="548.578" y1="462.056" y2="1412.9"><stop offset="0" stop-color="#445fe2"></stop><stop offset="1" stop-color="#5385ac"></stop></linearGradient><clipPath id="clip0_604_2752" node-id="60"><path d="M 160.00 0.00 L 864.00 0.00 C 952.37 0.00 1024.00 71.63 1024.00 160.00 L 1024.00 864.00 C 1024.00 952.37 952.37 1024.00 864.00 1024.00 L 160.00 1024.00 C 71.63 1024.00 0.00 952.37 0.00 864.00 L 0.00 160.00 C -0.00 71.63 71.63 0.00 160.00 0.00 Z" fill="#000000" fill-rule="nonzero" node-id="78" stroke="none" target-height="1024" target-width="1024" target-x="0" target-y="0"></path></clipPath></defs><g clip-path="url(#clip0_604_2752)" id="sillyvg_g_0" node-id="82"><path d="M 160.00 0.00 L 864.00 0.00 C 952.37 0.00 1024.00 71.63 1024.00 160.00 L 1024.00 864.00 C 1024.00 952.37 952.37 1024.00 864.00 1024.00 L 160.00 1024.00 C 71.63 1024.00 0.00 952.37 0.00 864.00 L 0.00 160.00 C -0.00 71.63 71.63 0.00 160.00 0.00 Z" fill="url(#paint0_linear_604_2752)" fill-rule="nonzero" node-id="84" stroke="none" target-height="1024" target-width="1024" target-x="0" target-y="0"></path><path d="M 1024.00 512.00 C 1024.00 647.79 970.06 778.02 874.04 874.04 C 778.02 970.06 647.79 1024.00 512.00 1024.00 C 376.21 1024.00 245.98 970.06 149.96 874.04 C 53.94 778.02 0.00 647.79 0.00 512.00 C 0.00 376.21 53.94 245.98 149.96 149.96 C 245.98 53.94 376.21 0.00 512.00 0.00 C 647.79 -0.00 778.02 53.94 874.04 149.96 C 970.06 245.98 1024.00 376.21 1024.00 512.00 Z" fill="url(#paint1_linear_604_2752)" fill-rule="nonzero" node-id="86" stroke="none" target-height="1024" target-width="1024" target-x="0" target-y="0"></path><path d="M 269.73 290.98 L 376.67 290.98 C 409.61 290.98 436.31 264.13 436.31 231.01 C 436.31 197.90 409.61 171.05 376.67 171.05 C 366.73 171.05 357.35 173.50 349.11 177.82 C 337.63 144.35 306.03 120.31 268.84 120.31 C 221.97 120.31 183.96 158.52 183.96 205.65 C 183.96 206.61 183.98 207.57 184.01 208.53 C 170.32 215.92 161.02 230.45 161.02 247.16 C 161.02 271.36 180.54 290.98 204.61 290.98 L 268.84 290.98 C 268.98 290.98 269.73 290.98 269.73 290.98 L 268.84 290.98 L 269.73 290.98 Z" fill="#e9e9f1" fill-opacity="0.9" fill-rule="evenodd" group-id="1" node-id="90" stroke="none" target-height="170.67001" target-width="275.28998" target-x="161.02" target-y="120.31"></path><path d="M 517.51 1004.91 C 517.51 1055.97 476.09 1097.35 425.00 1097.35 C 373.90 1097.35 332.48 1055.97 332.48 1004.91 C 332.48 953.86 373.90 912.48 425.00 912.48 C 476.09 912.48 517.51 953.86 517.51 1004.91" fill="#9ad190" fill-rule="evenodd" node-id="93" stroke="none" target-height="184.87" target-width="185.03" target-x="332.48" target-y="912.48"></path><path d="M 517.51 1004.91 C 517.51 1055.97 476.09 1097.35 425.00 1097.35 C 373.90 1097.35 332.48 1055.97 332.48 1004.91 C 332.48 953.86 373.90 912.48 425.00 912.48 C 476.09 912.48 517.51 953.86 517.51 1004.91" fill="#8dbba5" fill-rule="evenodd" node-id="95" stroke="none" target-height="184.87" target-width="185.03" target-x="332.48" target-y="912.48"></path><path d="M 571.93 899.79 C 571.93 950.85 530.51 992.23 479.42 992.23 C 428.32 992.23 386.90 950.85 386.90 899.79 C 386.90 848.74 428.32 807.36 479.42 807.36 C 530.51 807.36 571.93 848.74 571.93 899.79" fill="#9ad190" fill-rule="evenodd" node-id="97" stroke="none" target-height="184.87" target-width="185.03" target-x="386.9" target-y="807.36"></path><path d="M 571.93 899.79 C 571.93 950.85 530.51 992.23 479.42 992.23 C 428.32 992.23 386.90 950.85 386.90 899.79 C 386.90 848.74 428.32 807.36 479.42 807.36 C 530.51 807.36 571.93 848.74 571.93 899.79" fill="#8dbba5" fill-rule="evenodd" node-id="99" stroke="none" target-height="184.87" target-width="185.03" target-x="386.9" target-y="807.36"></path><path d="M 764.22 1184.12 L 1335.65 1184.12 L 1335.65 601.54 L 764.22 601.54 L 764.22 1184.12 Z" fill="#d4a3c6" fill-rule="evenodd" node-id="101" stroke="none" target-height="582.58" target-width="571.43005" target-x="764.22" target-y="601.54"></path><path d="M 1259.92 466.60 L 586.45 466.60 L 586.45 670.06 L 1386.45 670.06 L 1259.92 466.60" fill="#98567d" fill-rule="evenodd" node-id="103" stroke="none" target-height="203.45999" target-width="799.99994" target-x="586.45" target-y="466.6"></path><path d="M 769.44 1186.16 L 399.37 1186.16 L 399.37 603.58 L 588.03 470.23 L 769.44 603.58 L 769.44 1186.16" fill="#dcafd2" fill-rule="evenodd" node-id="105" stroke="none" target-height="715.93005" target-width="370.07" target-x="399.37" target-y="470.23"></path><path d="M 372.80 664.25 L 352.48 638.71 L 588.68 451.05 L 805.46 629.84 L 784.67 655.00 L 588.30 493.04 L 372.80 664.25" fill="#76486d" fill-rule="evenodd" node-id="107" stroke="none" target-height="213.20001" target-width="452.98" target-x="352.48" target-y="451.05"></path><path d="M 1319.64 964.36 L 797.04 964.36 C 792.65 964.36 790.07 959.45 792.56 955.84 L 862.96 853.88 C 863.97 852.42 865.64 851.53 867.43 851.53 L 1257.74 851.53 C 1259.64 851.53 1261.41 852.52 1262.39 854.15 L 1324.29 956.10 C 1326.49 959.73 1323.88 964.36 1319.64 964.36" fill="#98567d" fill-rule="evenodd" node-id="109" stroke="none" target-height="112.829956" target-width="536.42" target-x="790.07" target-y="851.53"></path><path d="M 464.00 1187.07 L 706.18 1187.07 L 706.18 950.54 L 464.00 950.54 L 464.00 1187.07 Z" fill="#8c736a" fill-rule="evenodd" node-id="111" stroke="none" target-height="236.52997" target-width="242.18" target-x="464" target-y="950.54"></path><path d="M 714.34 1187.07 L 698.01 1187.07 L 698.01 958.70 L 472.16 958.70 L 472.16 1187.07 L 455.84 1187.07 L 455.84 950.54 C 455.84 946.04 459.49 942.38 464.00 942.38 L 706.18 942.38 C 710.68 942.38 714.34 946.04 714.34 950.54 L 714.34 1187.07" fill="#dddefe" fill-rule="evenodd" node-id="113" stroke="none" target-height="244.68994" target-width="258.50003" target-x="455.84" target-y="942.38"></path><path d="M 868.30 818.23 L 952.96 818.23 L 952.96 716.07 L 868.30 716.07 L 868.30 818.23 Z" fill="#8da6dc" fill-rule="evenodd" node-id="115" stroke="none" target-height="102.15997" target-width="84.660034" target-x="868.3" target-y="716.07"></path><path d="M 876.47 810.07 L 944.79 810.07 L 944.79 724.23 L 876.47 724.23 L 876.47 810.07 Z M 952.96 826.39 L 868.30 826.39 C 863.80 826.39 860.14 822.73 860.14 818.23 L 860.14 716.08 C 860.14 711.57 863.80 707.92 868.30 707.92 L 952.96 707.92 C 957.47 707.92 961.12 711.57 961.12 716.08 L 961.12 818.23 C 961.12 822.73 957.47 826.39 952.96 826.39 L 952.96 826.39 Z" fill="#dddefe" fill-rule="evenodd" node-id="117" stroke="none" target-height="118.47003" target-width="100.97998" target-x="860.14" target-y="707.92"></path><path d="M 863.54 1187.98 L 954.70 1187.98 L 954.70 998.57 L 863.54 998.57 L 863.54 1187.98 Z" fill="#9e764f" fill-rule="evenodd" node-id="119" stroke="none" target-height="189.40997" target-width="91.160034" target-x="863.54" target-y="998.57"></path><path d="M 962.86 1187.98 L 946.54 1187.98 L 946.54 1006.73 L 871.71 1006.73 L 871.71 1187.98 L 855.38 1187.98 L 855.38 998.58 C 855.38 994.07 859.04 990.42 863.54 990.42 L 954.70 990.42 C 959.21 990.42 962.86 994.07 962.86 998.58 L 962.86 1187.98" fill="#fcfcfc" fill-rule="evenodd" node-id="121" stroke="none" target-height="197.56" target-width="107.47998" target-x="855.38" target-y="990.42"></path><path d="M 654.27 699.39 C 652.14 660.39 619.90 629.39 580.33 629.39 C 540.75 629.39 508.52 660.39 506.38 699.39 L 506.18 699.39 L 506.18 835.90 L 654.48 835.90 L 654.48 699.39 L 654.27 699.39" fill="#8da6dc" fill-rule="evenodd" node-id="123" stroke="none" target-height="206.51001" target-width="148.29999" target-x="506.18" target-y="629.39"></path><path d="M 514.34 827.75 L 646.31 827.75 L 646.31 701.19 L 646.12 699.84 C 644.21 664.91 615.31 637.54 580.33 637.54 C 545.34 637.54 516.45 664.91 514.53 699.84 L 514.34 701.23 L 514.34 827.75 Z M 654.48 844.06 L 506.18 844.06 C 501.67 844.06 498.01 840.40 498.01 835.90 L 498.01 699.39 C 498.01 698.58 498.13 697.78 498.36 697.04 C 501.67 654.38 537.31 621.23 580.33 621.23 C 623.34 621.23 658.98 654.38 662.29 697.04 C 662.51 697.78 662.64 698.58 662.64 699.39 L 662.64 835.90 C 662.64 840.40 658.98 844.06 654.48 844.06 L 654.48 844.06 Z" fill="#dddefe" fill-rule="evenodd" node-id="125" stroke="none" target-height="222.83002" target-width="164.63" target-x="498.01" target-y="621.23"></path><path d="M 572.16 832.73 L 588.49 832.73 L 588.49 628.83 L 572.16 628.83 L 572.16 832.73 Z" fill="#dddefe" fill-rule="evenodd" node-id="127" stroke="none" target-height="203.89996" target-width="16.330017" target-x="572.16" target-y="628.83"></path><path d="M 507.54 708.57 L 653.57 708.57 L 653.57 692.26 L 507.54 692.26 L 507.54 708.57 Z" fill="#dddefe" fill-rule="evenodd" node-id="129" stroke="none" target-height="16.309998" target-width="146.03" target-x="507.54" target-y="692.26"></path><path d="M 880.33 1100.07 L 937.92 1100.07 L 937.92 1021.23 L 880.33 1021.23 L 880.33 1100.07 Z" fill="#9cc1dc" fill-rule="evenodd" node-id="131" stroke="none" target-height="78.839966" target-width="57.589966" target-x="880.33" target-y="1021.23"></path><path d="M 483.05 1186.62 L 500.58 1186.62 L 500.58 958.72 L 483.05 958.72 L 483.05 1186.62 Z" fill="#b99068" fill-rule="evenodd" node-id="133" stroke="none" target-height="227.90002" target-width="17.529999" target-x="483.05" target-y="958.72"></path><path d="M 483.05 1186.62 L 500.58 1186.62 L 500.58 958.72 L 483.05 958.72 L 483.05 1186.62 Z" fill="#a78885" fill-rule="evenodd" node-id="135" stroke="none" target-height="227.90002" target-width="17.529999" target-x="483.05" target-y="958.72"></path><path d="M 514.22 1186.62 L 531.74 1186.62 L 531.74 958.72 L 514.22 958.72 L 514.22 1186.62 Z" fill="#b99068" fill-rule="evenodd" node-id="137" stroke="none" target-height="227.90002" target-width="17.52002" target-x="514.22" target-y="958.72"></path><path d="M 514.22 1186.62 L 531.74 1186.62 L 531.74 958.72 L 514.22 958.72 L 514.22 1186.62 Z" fill="#a78885" fill-rule="evenodd" node-id="139" stroke="none" target-height="227.90002" target-width="17.52002" target-x="514.22" target-y="958.72"></path><path d="M 545.38 1186.62 L 562.91 1186.62 L 562.91 958.72 L 545.38 958.72 L 545.38 1186.62 Z" fill="#b99068" fill-rule="evenodd" node-id="141" stroke="none" target-height="227.90002" target-width="17.529968" target-x="545.38" target-y="958.72"></path><path d="M 545.38 1186.62 L 562.91 1186.62 L 562.91 958.72 L 545.38 958.72 L 545.38 1186.62 Z" fill="#a78885" fill-rule="evenodd" node-id="143" stroke="none" target-height="227.90002" target-width="17.529968" target-x="545.38" target-y="958.72"></path><path d="M 576.55 1186.62 L 594.08 1186.62 L 594.08 958.72 L 576.55 958.72 L 576.55 1186.62 Z" fill="#b99068" fill-rule="evenodd" node-id="145" stroke="none" target-height="227.90002" target-width="17.53003" target-x="576.55" target-y="958.72"></path><path d="M 576.55 1186.62 L 594.08 1186.62 L 594.08 958.72 L 576.55 958.72 L 576.55 1186.62 Z" fill="#a78885" fill-rule="evenodd" node-id="147" stroke="none" target-height="227.90002" target-width="17.53003" target-x="576.55" target-y="958.72"></path><path d="M 607.71 1186.62 L 625.25 1186.62 L 625.25 958.72 L 607.71 958.72 L 607.71 1186.62 Z" fill="#b99068" fill-rule="evenodd" node-id="149" stroke="none" target-height="227.90002" target-width="17.539978" target-x="607.71" target-y="958.72"></path><path d="M 607.71 1186.62 L 625.25 1186.62 L 625.25 958.72 L 607.71 958.72 L 607.71 1186.62 Z" fill="#a78885" fill-rule="evenodd" node-id="151" stroke="none" target-height="227.90002" target-width="17.539978" target-x="607.71" target-y="958.72"></path><path d="M 638.88 1186.62 L 656.42 1186.62 L 656.42 958.72 L 638.88 958.72 L 638.88 1186.62 Z" fill="#b99068" fill-rule="evenodd" node-id="153" stroke="none" target-height="227.90002" target-width="17.539978" target-x="638.88" target-y="958.72"></path><path d="M 638.88 1186.62 L 656.42 1186.62 L 656.42 958.72 L 638.88 958.72 L 638.88 1186.62 Z" fill="#a78885" fill-rule="evenodd" node-id="155" stroke="none" target-height="227.90002" target-width="17.539978" target-x="638.88" target-y="958.72"></path><path d="M 670.05 1186.62 L 687.59 1186.62 L 687.59 958.72 L 670.05 958.72 L 670.05 1186.62 Z" fill="#b99068" fill-rule="evenodd" node-id="157" stroke="none" target-height="227.90002" target-width="17.54004" target-x="670.05" target-y="958.72"></path><path d="M 670.05 1186.62 L 687.59 1186.62 L 687.59 958.72 L 670.05 958.72 L 670.05 1186.62 Z" fill="#a78885" fill-rule="evenodd" node-id="159" stroke="none" target-height="227.90002" target-width="17.54004" target-x="670.05" target-y="958.72"></path><path d="M 794.19 979.77 L 1322.58 979.77 L 1322.58 963.45 L 794.19 963.45 L 794.19 979.77 Z" fill="#32424f" fill-rule="evenodd" node-id="161" stroke="none" target-height="16.320007" target-width="528.38995" target-x="794.19" target-y="963.45"></path><path d="M 769.44 685.24 L 1386.32 685.24 L 1386.32 668.93 L 769.44 668.93 L 769.44 685.24 Z" fill="#6c3d62" fill-rule="evenodd" node-id="163" stroke="none" target-height="16.309998" target-width="616.87994" target-x="769.44" target-y="668.93"></path><path d="M 868.99 764.31 L 953.80 764.31 L 953.80 747.99 L 868.99 747.99 L 868.99 764.31 Z" fill="#dddefe" fill-rule="evenodd" node-id="165" stroke="none" target-height="16.320007" target-width="84.81" target-x="868.99" target-y="747.99"></path><path d="M 1264.90 945.10 L 956.52 945.10 C 952.01 945.10 948.35 941.45 948.35 936.95 C 948.35 932.44 952.01 928.79 956.52 928.79 L 1264.90 928.79 C 1269.42 928.79 1273.07 932.44 1273.07 936.95 C 1273.07 941.45 1269.42 945.10 1264.90 945.10" fill="#32424f" fill-rule="evenodd" node-id="167" stroke="none" target-height="16.309998" target-width="324.71997" target-x="948.35" target-y="928.79"></path><path d="M 1096.20 912.48 L 857.65 912.48 C 853.14 912.48 849.49 908.82 849.49 904.32 C 849.49 899.82 853.14 896.16 857.65 896.16 L 1096.20 896.16 C 1100.71 896.16 1104.36 899.82 1104.36 904.32 C 1104.36 908.82 1100.71 912.48 1096.20 912.48" fill="#32424f" fill-rule="evenodd" node-id="169" stroke="none" target-height="16.320007" target-width="254.87" target-x="849.49" target-y="896.16"></path><path d="M 1136.11 881.67 L 942.91 881.67 C 938.40 881.67 934.75 878.01 934.75 873.51 C 934.75 869.01 938.40 865.36 942.91 865.36 L 1136.11 865.36 C 1140.61 865.36 1144.27 869.01 1144.27 873.51 C 1144.27 878.01 1140.61 881.67 1136.11 881.67" fill="#32424f" fill-rule="evenodd" node-id="171" stroke="none" target-height="16.309998" target-width="209.52002" target-x="934.75" target-y="865.36"></path><path d="M 918.42 943.29 L 837.69 943.29 C 833.19 943.29 829.53 939.64 829.53 935.14 C 829.53 930.63 833.19 926.98 837.69 926.98 L 918.42 926.98 C 922.93 926.98 926.59 930.63 926.59 935.14 C 926.59 939.64 922.93 943.29 918.42 943.29" fill="#32424f" fill-rule="evenodd" node-id="173" stroke="none" target-height="16.309998" target-width="97.06" target-x="829.53" target-y="926.98"></path><path d="M 1127.04 642.42 L 852.21 642.42 C 847.70 642.42 844.04 638.77 844.04 634.26 C 844.04 629.76 847.70 626.11 852.21 626.11 L 1127.04 626.11 C 1131.55 626.11 1135.20 629.76 1135.20 634.26 C 1135.20 638.77 1131.55 642.42 1127.04 642.42" fill="#6c3d62" fill-rule="evenodd" node-id="175" stroke="none" target-height="16.309998" target-width="291.15997" target-x="844.04" target-y="626.11"></path><path d="M 1175.11 603.45 L 816.83 603.45 C 812.33 603.45 808.67 599.80 808.67 595.29 C 808.67 590.79 812.33 587.14 816.83 587.14 L 1175.11 587.14 C 1179.62 587.14 1183.27 590.79 1183.27 595.29 C 1183.27 599.80 1179.62 603.45 1175.11 603.45" fill="#6c3d62" fill-rule="evenodd" node-id="177" stroke="none" target-height="16.309998" target-width="374.60004" target-x="808.67" target-y="587.14"></path><path d="M 1291.21 562.67 L 828.63 562.67 C 824.11 562.67 820.46 559.01 820.46 554.51 C 820.46 550.01 824.11 546.36 828.63 546.36 L 1291.21 546.36 C 1295.72 546.36 1299.37 550.01 1299.37 554.51 C 1299.37 559.01 1295.72 562.67 1291.21 562.67" fill="#6c3d62" fill-rule="evenodd" node-id="179" stroke="none" target-height="16.309998" target-width="478.90997" target-x="820.46" target-y="546.36"></path><path d="M 1000.05 528.23 L 712.52 528.23 C 708.02 528.23 704.36 524.58 704.36 520.08 C 704.36 515.57 708.02 511.92 712.52 511.92 L 1000.05 511.92 C 1004.56 511.92 1008.22 515.57 1008.22 520.08 C 1008.22 524.58 1004.56 528.23 1000.05 528.23" fill="#6c3d62" fill-rule="evenodd" node-id="181" stroke="none" target-height="16.309967" target-width="303.86" target-x="704.36" target-y="511.92"></path><path d="M 1235.88 496.51 L 678.97 496.51 C 674.45 496.51 670.80 492.86 670.80 488.35 C 670.80 483.85 674.45 480.20 678.97 480.20 L 1235.88 480.20 C 1240.39 480.20 1244.04 483.85 1244.04 488.35 C 1244.04 492.86 1240.39 496.51 1235.88 496.51" fill="#6c3d62" fill-rule="evenodd" node-id="183" stroke="none" target-height="16.309998" target-width="573.24005" target-x="670.8" target-y="480.2"></path><path d="M 805.09 400.69 L 690.52 400.69 C 655.23 400.69 626.62 371.93 626.62 336.44 C 626.62 300.96 655.23 272.20 690.52 272.20 C 701.18 272.20 711.22 274.82 720.05 279.45 C 732.35 243.59 766.21 217.84 806.05 217.84 C 856.28 217.84 896.99 258.77 896.99 309.26 C 896.99 310.30 896.98 311.33 896.94 312.36 C 911.60 320.27 921.57 335.84 921.57 353.74 C 921.57 379.67 900.66 400.69 874.87 400.69 L 806.05 400.69 C 805.90 400.69 805.09 400.69 805.09 400.69 L 806.05 400.69 L 805.09 400.69 Z" fill="#e9e9f1" fill-opacity="0.9" fill-rule="evenodd" group-id="2" node-id="187" stroke="none" target-height="182.85" target-width="294.95" target-x="626.62" target-y="217.84"></path></g></svg>