<?xml version="1.0" standalone="no"?><!DOCTYPE svg PUBLIC "-//W3C//DTD SVG 1.1//EN" "http://www.w3.org/Graphics/SVG/1.1/DTD/svg11.dtd"><svg height="1024" node-id="1" sillyvg="true" template-height="1024" template-width="1024" version="1.1" viewBox="0 0 1024 1024" width="1024" xmlns="http://www.w3.org/2000/svg" xmlns:xlink="http://www.w3.org/1999/xlink"><defs node-id="28"><linearGradient gradientUnits="userSpaceOnUse" id="paint0_linear_604_2731" node-id="19" spreadMethod="pad" x1="512" x2="512" y1="0" y2="1024"><stop offset="0" stop-color="#6fa8de"></stop><stop offset="1" stop-color="#8dd7fb"></stop></linearGradient><linearGradient gradientUnits="userSpaceOnUse" id="paint1_linear_604_2731" node-id="22" spreadMethod="pad" x1="2.84009" x2="2.84009" y1="0" y2="1024"><stop offset="0" stop-color="#6fa7de"></stop><stop offset="1" stop-color="#91ddff"></stop></linearGradient><clipPath id="clip0_604_2731" node-id="25"><path d="M 160.00 0.00 L 864.00 0.00 C 952.37 0.00 1024.00 71.63 1024.00 160.00 L 1024.00 864.00 C 1024.00 952.37 952.37 1024.00 864.00 1024.00 L 160.00 1024.00 C 71.63 1024.00 0.00 952.37 0.00 864.00 L 0.00 160.00 C -0.00 71.63 71.63 0.00 160.00 0.00 Z" fill="#000000" fill-rule="nonzero" node-id="43" stroke="none" target-height="1024" target-width="1024" target-x="0" target-y="0"></path></clipPath></defs><g clip-path="url(#clip0_604_2731)" id="sillyvg_g_0" node-id="47"><path d="M 160.00 0.00 L 864.00 0.00 C 952.37 0.00 1024.00 71.63 1024.00 160.00 L 1024.00 864.00 C 1024.00 952.37 952.37 1024.00 864.00 1024.00 L 160.00 1024.00 C 71.63 1024.00 0.00 952.37 0.00 864.00 L 0.00 160.00 C -0.00 71.63 71.63 0.00 160.00 0.00 Z" fill="url(#paint0_linear_604_2731)" fill-rule="nonzero" node-id="49" stroke="none" target-height="1024" target-width="1024" target-x="0" target-y="0"></path><path d="M 1026.84 512.00 C 1026.84 647.79 972.90 778.02 876.88 874.04 C 780.86 970.06 650.63 1024.00 514.84 1024.00 C 379.05 1024.00 248.82 970.06 152.80 874.04 C 56.78 778.02 2.84 647.79 2.84 512.00 C 2.84 376.21 56.78 245.98 152.80 149.96 C 248.82 53.94 379.05 0.00 514.84 0.00 C 650.63 -0.00 780.86 53.94 876.88 149.96 C 972.90 245.98 1026.84 376.21 1026.84 512.00 Z" fill="url(#paint1_linear_604_2731)" fill-rule="nonzero" node-id="51" stroke="none" target-height="1024" target-width="1023.99994" target-x="2.84" target-y="0"></path><path d="M 719.24 243.81 C 719.24 290.94 681.03 329.14 633.90 329.14 C 586.78 329.14 548.57 290.94 548.57 243.81 C 548.57 196.68 586.78 158.48 633.90 158.48 C 681.03 158.48 719.24 196.68 719.24 243.81 Z" fill="#f0ffa8" fill-opacity="0.21386" fill-rule="nonzero" node-id="53" stroke="none" target-height="170.66002" target-width="170.66998" target-x="548.57" target-y="158.48"></path><path d="M -230.41 592.65 C -436.04 498.09 -653.09 784.68 -653.09 784.68 L -509.16 1011.81 L 512.00 1011.81 L 515.85 810.43 C 515.85 810.43 477.80 804.93 462.90 801.07 C 237.48 742.57 -22.05 688.47 -230.41 592.65 Z" fill="#249189" fill-rule="evenodd" node-id="55" stroke="none" target-height="513.72" target-width="1168.94" target-x="-653.09" target-y="498.09"></path><path d="M 432.85 242.20 C 217.69 231.84 -120.85 -54.32 175.46 27.07 C 628.99 151.64 1265.27 -154.11 1448.59 -20.81 C 1631.91 112.49 1413.45 68.21 1398.56 72.07 C 1326.23 90.84 1257.47 141.68 1173.87 128.54 C 947.18 92.92 916.08 265.45 432.85 242.20 Z" fill="#ffffff" fill-opacity="0.137416" fill-rule="evenodd" group-id="1" node-id="59" stroke="none" target-height="419.56" target-width="1752.76" target-x="-120.85" target-y="-154.11"></path><path d="M 751.49 714.56 C 1171.77 755.65 1230.75 901.11 1230.75 901.11 L 1230.75 1255.26 L -207.24 1255.26 L -200.44 918.19 C -200.44 918.19 -180.02 843.65 -41.20 834.83 C 228.85 817.67 597.40 699.49 751.49 714.56 Z" fill="#235359" fill-rule="evenodd" node-id="62" stroke="none" target-height="555.77" target-width="1437.99" target-x="-207.24" target-y="699.49"></path><path d="M 643.00 775.62 C 643.00 780.16 639.32 783.85 634.78 783.85 L 634.78 783.85 C 630.24 783.85 626.55 780.16 626.55 775.62 L 626.55 750.75 C 626.55 746.21 630.24 742.53 634.78 742.53 L 634.78 742.53 C 639.32 742.53 643.00 746.21 643.00 750.75 L 643.00 775.62 Z" fill="#5c1d1d" fill-rule="nonzero" node-id="64" stroke="none" target-height="41.319946" target-width="16.450012" target-x="626.55" target-y="742.53"></path><path d="M 592.71 593.53 L 579.33 586.09 L 631.08 390.10 L 696.04 580.37 L 677.21 586.09 L 730.24 753.94 L 539.32 762.92 L 592.71 593.53 Z" fill="#328282" fill-rule="evenodd" node-id="66" stroke="none" target-height="372.81998" target-width="190.91998" target-x="539.32" target-y="390.1"></path><path d="M 802.22 728.88 C 802.22 732.25 799.49 734.98 796.13 734.98 L 796.13 734.98 C 792.76 734.98 790.03 732.25 790.03 728.88 L 790.03 708.27 C 790.03 704.90 792.76 702.17 796.13 702.17 L 796.13 702.17 C 799.49 702.17 802.22 704.90 802.22 708.27 L 802.22 728.88 Z" fill="#5c1d1d" fill-rule="nonzero" node-id="68" stroke="none" target-height="32.809998" target-width="12.189941" target-x="790.03" target-y="702.17"></path><path d="M 763.34 587.41 L 753.54 582.02 L 791.43 439.74 L 839.01 577.86 L 825.22 582.02 L 864.05 703.86 L 724.23 710.37 L 763.34 587.41 Z" fill="#328282" fill-rule="evenodd" node-id="70" stroke="none" target-height="270.63" target-width="139.82" target-x="724.23" target-y="439.74"></path><path d="M 950.27 745.28 C 950.27 748.65 947.54 751.38 944.17 751.38 L 944.17 751.38 C 940.81 751.38 938.08 748.65 938.08 745.28 L 938.08 732.87 C 938.08 729.50 940.81 726.77 944.17 726.77 L 944.17 726.77 C 947.54 726.77 950.27 729.50 950.27 732.87 L 950.27 745.28 Z" fill="#5c1d1d" fill-rule="nonzero" node-id="72" stroke="none" target-height="24.609985" target-width="12.190002" target-x="938.08" target-y="726.77"></path><path d="M 922.26 653.00 L 915.92 649.40 L 940.44 554.56 L 971.22 646.64 L 962.30 649.40 L 987.43 730.63 L 896.96 734.98 L 922.26 653.00 Z" fill="#328282" fill-rule="evenodd" node-id="74" stroke="none" target-height="180.41998" target-width="90.46997" target-x="896.96" target-y="554.56"></path><path d="M 366.30 779.58 C 366.30 782.94 363.57 785.67 360.21 785.67 L 360.21 785.67 C 356.84 785.67 354.11 782.94 354.11 779.58 L 354.11 758.96 C 354.11 755.60 356.84 752.87 360.21 752.87 L 360.21 752.87 C 363.57 752.87 366.30 755.60 366.30 758.96 L 366.30 779.58 Z" fill="#5c1d1d" fill-rule="nonzero" node-id="76" stroke="none" target-height="32.799988" target-width="12.190002" target-x="354.11" target-y="752.87"></path><path d="M 334.67 672.39 L 327.17 668.14 L 356.15 556.05 L 392.53 664.87 L 381.99 668.14 L 411.69 764.14 L 304.76 769.27 L 334.67 672.39 Z" fill="#328282" fill-rule="evenodd" node-id="78" stroke="none" target-height="213.22003" target-width="106.92999" target-x="304.76" target-y="556.05"></path><path d="M -311.76 680.38 C -539.40 669.42 -897.57 366.67 -584.08 452.77 C -104.25 584.56 568.93 261.09 762.88 402.12 C 956.83 543.15 732.94 502.60 709.95 500.38 C -65.90 425.42 199.49 704.98 -311.76 680.38 Z" fill="#ffffff" fill-opacity="0.137416" fill-rule="evenodd" group-id="2" node-id="82" stroke="none" target-height="443.88998" target-width="1854.4" target-x="-897.57" target-y="261.09"></path></g></svg>