<?xml version="1.0" standalone="no"?><!DOCTYPE svg PUBLIC "-//W3C//DTD SVG 1.1//EN" "http://www.w3.org/Graphics/SVG/1.1/DTD/svg11.dtd"><svg height="250" node-id="1" sillyvg="true" template-height="250" template-width="250" version="1.1" viewBox="0 0 250 250" width="250" xmlns="http://www.w3.org/2000/svg" xmlns:xlink="http://www.w3.org/1999/xlink"><defs node-id="49"></defs><path d="M 225.60 126.00 C 225.60 181.23 180.83 226.00 125.60 226.00 C 70.37 226.00 25.60 181.23 25.60 126.00 C 25.60 70.77 70.37 26.00 125.60 26.00 C 180.83 26.00 225.60 70.77 225.60 126.00 Z" fill="#ffffff" fill-rule="nonzero" node-id="53" stroke="#000000" stroke-linecap="round" stroke-width="3" target-height="200" target-width="200" target-x="25.6" target-y="26"></path><g node-id="167"><g node-id="168"><g node-id="173"><g node-id="182"><g node-id="191"><path d="M 181.30 126.60 C 181.30 157.36 156.36 182.30 125.60 182.30 C 94.84 182.30 69.90 157.36 69.90 126.60 C 69.90 95.84 94.84 70.90 125.60 70.90 C 156.36 70.90 181.30 95.84 181.30 126.60 Z" fill="#b3a2ea" fill-rule="nonzero" group-id="1,2,7,16,25" node-id="65" stroke="none" target-height="111.4" target-width="111.4" target-x="69.9" target-y="70.9"></path></g></g></g></g><g node-id="169"><g node-id="174"><g node-id="183"><g node-id="192"><path d="M 189.40 126.50 C 186.80 124.10 184.00 121.80 180.90 119.50 C 181.00 120.50 181.10 121.50 181.20 122.60 C 183.60 124.40 185.80 126.30 187.90 128.20 C 199.80 139.00 205.00 149.40 202.10 156.70 C 199.20 164.00 188.40 168.10 172.30 167.90 C 155.60 167.70 135.10 163.10 114.50 155.00 C 93.90 146.90 75.70 136.30 63.40 125.00 C 51.50 114.20 46.30 103.80 49.20 96.50 C 52.00 89.40 62.50 85.30 78.00 85.30 C 78.40 85.30 78.70 85.30 79.10 85.30 C 81.90 85.30 84.80 85.50 87.80 85.80 C 88.60 85.10 89.30 84.40 90.10 83.80 C 86.30 83.40 82.60 83.20 79.10 83.10 C 61.80 82.90 50.40 87.40 47.10 95.70 C 43.80 104.00 49.10 115.00 61.90 126.70 C 74.50 138.10 92.90 148.90 113.70 157.10 C 134.50 165.30 155.40 169.90 172.30 170.10 C 172.70 170.10 173.10 170.10 173.40 170.10 C 190.10 170.10 201.00 165.60 204.20 157.50 C 207.50 149.10 202.20 138.10 189.40 126.50 Z" fill="#ffffff" fill-rule="nonzero" group-id="1,3,8,17,26" node-id="79" stroke="none" target-height="87.200005" target-width="163.7" target-x="43.8" target-y="82.9"></path></g></g></g><path d="M 173.40 170.20 C 173.00 170.20 172.60 170.20 172.30 170.20 C 155.30 170.00 134.50 165.40 113.60 157.20 C 92.70 149.00 74.30 138.20 61.80 126.80 C 48.80 115.10 43.60 104.00 46.90 95.60 C 50.20 87.20 61.60 82.70 79.00 82.90 C 82.50 82.90 86.20 83.20 90.00 83.60 L 90.30 83.60 L 90.00 83.80 C 89.20 84.40 88.50 85.10 87.70 85.80 L 87.70 85.80 L 87.60 85.80 C 84.60 85.50 81.70 85.40 78.90 85.30 C 62.90 85.10 52.00 89.20 49.20 96.40 C 46.40 103.60 51.50 114.00 63.40 124.80 C 75.80 136.00 93.90 146.70 114.50 154.70 C 135.10 162.80 155.60 167.40 172.30 167.60 C 188.30 167.80 199.20 163.70 202.00 156.50 C 204.80 149.30 199.70 138.90 187.80 128.10 C 185.80 126.30 183.50 124.40 181.10 122.50 L 181.10 122.50 L 181.10 122.40 C 181.00 121.40 180.90 120.30 180.80 119.30 L 180.80 119.00 L 181.00 119.20 C 184.10 121.50 187.00 123.90 189.50 126.20 C 202.40 137.90 207.70 149.00 204.40 157.30 C 201.10 165.70 190.10 170.20 173.40 170.20 Z M 77.80 83.20 C 61.10 83.20 50.20 87.60 47.10 95.70 C 43.80 104.00 49.10 114.90 61.90 126.60 C 74.50 138.00 92.80 148.80 113.70 157.00 C 134.50 165.20 155.30 169.80 172.30 170.00 C 189.60 170.20 200.90 165.70 204.10 157.50 C 207.40 149.20 202.10 138.30 189.30 126.60 C 186.80 124.30 184.00 122.10 181.00 119.80 C 181.10 120.70 181.20 121.60 181.30 122.50 C 183.70 124.30 185.90 126.20 187.90 128.10 C 199.90 139.00 205.10 149.40 202.20 156.70 C 199.40 163.90 188.90 168.00 173.30 168.00 C 172.90 168.00 172.60 168.00 172.20 168.00 C 155.50 167.80 134.90 163.20 114.30 155.10 C 93.70 147.00 75.50 136.30 63.10 125.10 C 51.10 114.20 45.90 103.80 48.80 96.50 C 51.60 89.30 62.10 85.20 77.70 85.20 C 78.10 85.20 78.40 85.20 78.80 85.20 C 81.50 85.20 84.40 85.40 87.50 85.70 C 88.20 85.10 88.90 84.50 89.50 83.90 C 85.80 83.50 82.20 83.30 78.80 83.20 C 78.60 83.20 78.20 83.20 77.80 83.20 Z" fill="#000000" fill-rule="nonzero" group-id="1,3,9,18,27" node-id="90" stroke="none" target-height="87.5" target-width="164.1" target-x="43.6" target-y="82.7"></path></g><g node-id="170"><g node-id="176"><g node-id="185"><g node-id="194"><path d="M 175.30 119.80 C 175.30 126.59 169.79 132.10 163.00 132.10 C 156.21 132.10 150.70 126.59 150.70 119.80 C 150.70 113.01 156.21 107.50 163.00 107.50 C 169.79 107.50 175.30 113.01 175.30 119.80 Z" fill="#ffffff" fill-rule="nonzero" group-id="1,4,10,19,28" node-id="104" stroke="none" target-height="24.600006" target-width="24.600006" target-x="150.7" target-y="107.5"></path></g></g></g><path d="M 163.00 132.20 C 156.10 132.20 150.60 126.60 150.60 119.80 C 150.60 113.00 156.20 107.40 163.00 107.40 C 169.90 107.40 175.40 113.00 175.40 119.80 C 175.40 126.60 169.90 132.20 163.00 132.20 Z M 163.00 107.60 C 156.30 107.60 150.80 113.10 150.80 119.80 C 150.80 126.50 156.30 132.00 163.00 132.00 C 169.70 132.00 175.20 126.50 175.20 119.80 C 175.20 113.10 169.70 107.60 163.00 107.60 Z" fill="#000000" fill-rule="nonzero" group-id="1,4,11,20,29" node-id="115" stroke="none" target-height="24.799995" target-width="24.799988" target-x="150.6" target-y="107.4"></path></g><g node-id="171"><g node-id="178"><g node-id="187"><g node-id="196"><path d="M 103.50 76.60 C 103.50 80.36 100.46 83.40 96.70 83.40 C 92.94 83.40 89.90 80.36 89.90 76.60 C 89.90 72.84 92.94 69.80 96.70 69.80 C 100.46 69.80 103.50 72.84 103.50 76.60 Z" fill="#ffffff" fill-rule="nonzero" group-id="1,5,12,21,30" node-id="129" stroke="none" target-height="13.599998" target-width="13.599998" target-x="89.9" target-y="69.8"></path></g></g></g><path d="M 96.70 83.50 C 92.90 83.50 89.80 80.40 89.80 76.60 C 89.80 72.80 92.90 69.70 96.70 69.70 C 100.50 69.70 103.60 72.80 103.60 76.60 C 103.60 80.40 100.50 83.50 96.70 83.50 Z M 96.70 70.00 C 93.00 70.00 90.00 73.00 90.00 76.70 C 90.00 80.40 93.00 83.40 96.70 83.40 C 100.40 83.40 103.40 80.40 103.40 76.70 C 103.40 73.00 100.40 70.00 96.70 70.00 Z" fill="#000000" fill-rule="nonzero" group-id="1,5,13,22,31" node-id="140" stroke="none" target-height="13.800003" target-width="13.799995" target-x="89.8" target-y="69.7"></path></g><g node-id="172"><g node-id="180"><g node-id="189"><g node-id="198"><path d="M 129.10 156.40 C 129.10 161.81 124.71 166.20 119.30 166.20 C 113.89 166.20 109.50 161.81 109.50 156.40 C 109.50 150.99 113.89 146.60 119.30 146.60 C 124.71 146.60 129.10 150.99 129.10 156.40 Z" fill="#ffffff" fill-rule="nonzero" group-id="1,6,14,23,32" node-id="154" stroke="none" target-height="19.59999" target-width="19.600006" target-x="109.5" target-y="146.6"></path></g></g></g><path d="M 119.30 166.40 C 113.80 166.40 109.40 162.00 109.40 156.50 C 109.40 151.00 113.80 146.60 119.30 146.60 C 124.80 146.60 129.20 151.00 129.20 156.50 C 129.20 161.90 124.80 166.40 119.30 166.40 Z M 119.30 146.80 C 114.00 146.80 109.60 151.10 109.60 156.50 C 109.60 161.80 113.90 166.20 119.30 166.20 C 124.60 166.20 129.00 161.90 129.00 156.50 C 129.00 151.10 124.70 146.80 119.30 146.80 Z" fill="#000000" fill-rule="nonzero" group-id="1,6,15,24,33" node-id="165" stroke="none" target-height="19.799988" target-width="19.799995" target-x="109.4" target-y="146.6"></path></g></g></svg>