<?xml version="1.0" standalone="no"?><!DOCTYPE svg PUBLIC "-//W3C//DTD SVG 1.1//EN" "http://www.w3.org/Graphics/SVG/1.1/DTD/svg11.dtd"><svg height="1024" node-id="1" sillyvg="true" template-height="1024" template-width="1024" version="1.1" viewBox="0 0 1024 1024" width="1024" xmlns="http://www.w3.org/2000/svg" xmlns:xlink="http://www.w3.org/1999/xlink"><defs node-id="66"><radialGradient cx="0" cy="0" fx="0" fy="0" gradientTransform="matrix(0 1865.14 -2945.06 0 512 -444.952)" gradientUnits="userSpaceOnUse" id="paint0_radial_610_4544" node-id="29" r="1" spreadMethod="pad"><stop offset="0.172168" stop-color="#061175"></stop><stop offset="0.443787" stop-color="#0856d8"></stop></radialGradient><linearGradient gradientUnits="userSpaceOnUse" id="paint1_linear_610_4544" node-id="32" spreadMethod="pad" x1="808.828" x2="818.789" y1="325.391" y2="598.985"><stop offset="0.495209" stop-color="#0001a8"></stop><stop offset="1" stop-color="#0001b1"></stop></linearGradient><linearGradient gradientUnits="userSpaceOnUse" id="paint2_linear_610_4544" node-id="35" spreadMethod="pad" x1="386.105" x2="1077.3" y1="425" y2="1217.23"><stop offset="0.0684094" stop-color="#0304da"></stop><stop offset="0.626732" stop-color="#0a07a0"></stop></linearGradient><linearGradient gradientUnits="userSpaceOnUse" id="paint3_linear_610_4544" node-id="38" spreadMethod="pad" x1="-78.9287" x2="376.428" y1="619.285" y2="485.714"><stop offset="0.349214" stop-color="#223372"></stop><stop offset="1" stop-color="#133dd5"></stop></linearGradient><linearGradient gradientUnits="userSpaceOnUse" id="paint4_linear_610_4544" node-id="41" spreadMethod="pad" x1="236.786" x2="-12.1421" y1="491.785" y2="655.714"><stop offset="0" stop-color="#030e4a"></stop><stop offset="1" stop-color="#142156"></stop></linearGradient><linearGradient gradientUnits="userSpaceOnUse" id="paint5_linear_610_4544" node-id="44" spreadMethod="pad" x1="-54.6432" x2="248.928" y1="455.357" y2="570.714"><stop offset="0.180304" stop-color="#0809a9"></stop><stop offset="0.942043" stop-color="#222372"></stop></linearGradient><linearGradient gradientUnits="userSpaceOnUse" id="paint6_linear_610_4544" node-id="47" spreadMethod="pad" x1="179.961" x2="695.344" y1="504.688" y2="902.272"><stop offset="0.109556" stop-color="#d9002b"></stop><stop offset="0.385289" stop-color="#ec1246"></stop><stop offset="0.846431" stop-color="#9d0c40"></stop></linearGradient><linearGradient gradientUnits="userSpaceOnUse" id="paint7_linear_610_4544" node-id="51" spreadMethod="pad" x1="566.022" x2="582.197" y1="698.316" y2="985.752"><stop offset="0.202321" stop-color="#e1002e"></stop><stop offset="0.764988" stop-color="#eb008d"></stop></linearGradient><linearGradient gradientUnits="userSpaceOnUse" id="paint8_linear_610_4544" node-id="54" spreadMethod="pad" x1="850" x2="382.5" y1="734.641" y2="1232.5"><stop offset="0" stop-color="#000000"></stop><stop offset="1" stop-color="#000000" stop-opacity="0"></stop></linearGradient><linearGradient gradientUnits="userSpaceOnUse" id="paint9_linear_610_4544" node-id="57" spreadMethod="pad" x1="346.641" x2="374.531" y1="660.079" y2="982.149"><stop offset="0.202321" stop-color="#e80047"></stop><stop offset="0.764988" stop-color="#e20088"></stop></linearGradient><linearGradient gradientUnits="userSpaceOnUse" id="paint10_linear_610_4544" node-id="60" spreadMethod="pad" x1="338.671" x2="735.564" y1="654.101" y2="740.543"><stop offset="0.0721018" stop-color="#0d153f" stop-opacity="0.4"></stop><stop offset="0.739719" stop-color="#080e30"></stop></linearGradient><clipPath id="clip0_610_4544" node-id="63"><path d="M 160.00 0.00 L 864.00 0.00 C 952.37 0.00 1024.00 71.63 1024.00 160.00 L 1024.00 864.00 C 1024.00 952.37 952.37 1024.00 864.00 1024.00 L 160.00 1024.00 C 71.63 1024.00 0.00 952.37 0.00 864.00 L 0.00 160.00 C -0.00 71.63 71.63 0.00 160.00 0.00 Z" fill="#000000" fill-rule="nonzero" node-id="137" stroke="none" target-height="1024" target-width="1024" target-x="0" target-y="0"></path></clipPath></defs><g clip-path="url(#clip0_610_4544)" id="sillyvg_g_0" node-id="141"><path d="M 160.00 0.00 L 864.00 0.00 C 952.37 0.00 1024.00 71.63 1024.00 160.00 L 1024.00 864.00 C 1024.00 952.37 952.37 1024.00 864.00 1024.00 L 160.00 1024.00 C 71.63 1024.00 0.00 952.37 0.00 864.00 L 0.00 160.00 C -0.00 71.63 71.63 0.00 160.00 0.00 Z" fill="url(#paint0_radial_610_4544)" fill-rule="nonzero" node-id="143" stroke="none" target-height="1024" target-width="1024" target-x="0" target-y="0"></path><path d="M 883.31 335.25 C 938.50 373.98 953.90 366.74 975.40 359.12 C 1022.08 342.58 1057.56 328.83 1098.36 345.35 L 1098.36 544.53 L 545.34 527.05 C 480.96 524.71 554.16 492.97 570.71 487.96 C 587.25 482.94 601.60 478.36 613.13 472.30 C 626.83 465.10 637.07 452.90 649.05 443.39 C 660.04 434.65 670.48 431.07 683.69 427.06 C 707.89 419.70 741.81 416.38 758.72 396.00 C 796.21 350.84 839.77 304.70 883.31 335.25 Z" fill="url(#paint1_linear_610_4544)" fill-rule="nonzero" node-id="145" stroke="none" target-height="239.83002" target-width="617.4" target-x="480.96" target-y="304.7"></path><path d="M -72.86 510.00 L 1095.89 510.00 L 1095.89 555.16 C 1095.89 877.90 834.26 1139.53 511.52 1139.53 L 511.52 1139.53 C 188.78 1139.53 -72.86 877.90 -72.86 555.16 L -72.86 510.00 Z" fill="url(#paint2_linear_610_4544)" fill-rule="nonzero" node-id="147" stroke="none" target-height="629.53" target-width="1168.75" target-x="-72.86" target-y="510"></path><path d="M 1272.00 696.30 C 1262.12 696.30 803.48 589.22 790.85 584.29 C 734.02 562.14 957.77 534.21 916.23 522.75 C 876.08 511.67 674.67 523.92 674.67 523.92 C 774.11 525.57 867.09 521.51 869.56 526.61 C 872.03 531.72 638.83 550.25 680.90 593.94 C 754.40 670.25 944.58 748.00 944.58 748.00 L 1272.00 748.00 L 1272.00 696.30 Z" fill="#002cd2" fill-rule="nonzero" node-id="149" stroke="none" target-height="236.32999" target-width="633.17" target-x="638.83" target-y="511.67"></path><path d="M 1106.33 741.10 C 1106.33 1221.50 202.50 1103.00 69.00 1005.50 C -64.50 908.00 14.90 772.77 -14.00 703.00 C -62.30 586.39 -1.87 510.00 -1.87 510.00 L 401.09 510.00 C 401.09 510.00 547.04 503.11 487.42 536.56 C 395.12 588.36 1106.33 741.10 1106.33 741.10 Z" fill="#0b09b8" fill-rule="nonzero" node-id="151" stroke="none" target-height="718.39" target-width="1170.83" target-x="-64.5" target-y="503.11"></path><path d="M 775.24 905.90 C 587.24 947.24 111.24 735.24 360.57 692.57 C 609.90 649.90 963.24 864.57 775.24 905.90 Z" fill="#000000" fill-opacity="0.3" fill-rule="nonzero" node-id="153" stroke="none" target-height="297.33997" target-width="852" target-x="111.24" target-y="649.9"></path><path d="M 71.05 642.81 C 47.70 659.96 19.26 690.62 19.26 690.62 C 19.26 690.62 -10.58 620.25 -17.93 572.42 C -25.30 524.49 -17.93 449.57 -17.93 449.57 C -17.93 449.57 9.24 465.30 27.89 472.81 C 46.54 480.33 89.66 476.69 134.14 484.10 C 191.64 493.68 260.14 523.84 279.53 532.74 C 282.96 534.31 285.49 537.30 286.54 540.93 L 295.51 571.76 C 295.51 571.76 268.73 579.76 258.32 583.71 C 186.60 610.94 108.91 615.02 71.05 642.81 Z" fill="url(#paint3_linear_610_4544)" fill-rule="nonzero" node-id="155" stroke="none" target-height="241.04999" target-width="320.81" target-x="-25.3" target-y="449.57"></path><path d="M 71.06 642.81 C 47.70 659.96 19.26 690.62 19.26 690.62 C 19.26 690.62 -10.57 620.25 -17.93 572.42 C -19.67 561.09 -20.59 548.24 -20.98 535.23 L 37.19 564.45 L 201.88 588.36 L 268.28 560.47 L 284.88 535.23 L 295.51 571.76 C 295.51 571.76 268.73 579.76 258.32 583.71 C 186.60 610.94 108.91 615.02 71.06 642.81 Z" fill="url(#paint4_linear_610_4544)" fill-rule="nonzero" node-id="157" stroke="none" target-height="155.39001" target-width="316.49002" target-x="-20.98" target-y="535.23"></path><path d="M 27.89 472.81 C 46.54 480.33 89.66 476.69 134.14 484.10 C 165.56 489.34 200.26 500.71 228.44 511.41 L 144.76 491.41 L 105.59 494.73 L 164.69 530.59 L 17.27 489.41 L -16.60 470.16 L -17.93 449.57 C -17.93 449.57 9.24 465.30 27.89 472.81 Z" fill="url(#paint5_linear_610_4544)" fill-rule="nonzero" node-id="159" stroke="none" target-height="81.02002" target-width="246.37" target-x="-17.93" target-y="449.57"></path><path d="M 462.72 776.67 C 470.35 784.79 475.18 795.17 478.56 805.79 C 483.58 821.61 485.61 838.37 484.51 854.93 C 483.73 866.65 481.33 878.42 475.99 888.88 C 471.70 897.25 464.07 905.38 454.68 904.86 C 449.23 904.56 444.36 901.35 440.42 897.58 C 430.65 888.23 425.14 875.25 421.65 862.19 C 415.64 839.64 415.01 815.37 422.00 793.11 C 424.02 786.66 426.76 780.26 431.42 775.38 C 436.08 770.50 442.98 767.34 449.62 768.55 C 454.76 769.49 459.14 772.86 462.72 776.67 Z" fill="#322f74" fill-rule="nonzero" node-id="161" stroke="none" target-height="138.03998" target-width="70.599976" target-x="415.01" target-y="767.34"></path><path d="M 470.40 828.94 C 472.81 844.08 472.78 860.17 466.25 874.04 C 464.35 878.06 461.50 882.17 457.17 883.17 C 451.41 884.51 446.01 879.77 442.82 874.79 C 437.79 866.94 435.35 857.70 433.89 848.49 C 431.70 834.62 431.63 820.14 436.21 806.87 C 437.38 803.48 438.90 800.12 441.39 797.55 C 443.88 794.98 447.51 793.29 451.05 793.87 C 454.65 794.46 457.51 797.20 459.71 800.11 C 465.96 808.37 468.78 818.71 470.40 828.94 Z" fill="#0e0355" fill-rule="nonzero" node-id="163" stroke="none" target-height="91.22003" target-width="41.179993" target-x="431.63" target-y="793.29"></path><path d="M 252.03 711.52 C 253.00 730.70 249.41 759.03 238.67 758.84 C 229.46 758.68 220.32 730.35 218.97 710.94 C 217.64 691.85 220.95 662.99 231.69 663.18 C 242.43 663.37 251.00 691.07 252.03 711.52 Z" fill="#312e70" fill-rule="nonzero" node-id="165" stroke="none" target-height="96.04004" target-width="35.36" target-x="217.64" target-y="662.99"></path><path d="M 219.30 676.63 C 219.99 673.10 220.88 669.49 223.00 666.58 C 228.24 659.41 238.59 658.97 247.46 659.22 C 250.12 659.29 252.90 659.40 255.23 660.67 C 256.93 661.60 258.25 663.07 259.46 664.57 C 270.73 678.51 275.24 696.73 277.11 714.55 C 278.44 727.22 277.99 740.47 272.29 751.86 C 271.38 753.68 270.27 755.50 268.54 756.58 C 267.00 757.55 265.12 757.83 263.31 758.08 C 257.80 758.86 252.29 759.63 246.78 760.40 C 243.78 760.82 241.18 761.36 238.25 760.61 C 231.79 758.95 228.07 752.27 225.62 746.06 C 216.99 724.15 214.76 699.75 219.30 676.63 Z M 219.32 706.64 C 220.23 722.68 222.83 739.19 231.48 752.73 C 233.29 755.55 235.72 758.44 239.06 758.78 C 242.06 759.09 244.46 756.99 246.07 754.44 C 247.68 751.88 248.28 748.83 248.79 745.85 C 253.34 719.17 253.38 690.00 238.34 667.50 C 237.28 665.91 236.06 664.29 234.30 663.54 C 231.91 662.52 229.02 663.40 227.08 665.13 C 225.13 666.86 223.96 669.28 223.04 671.72 C 218.83 682.74 218.65 694.87 219.32 706.64 Z" fill="#0a023d" fill-rule="nonzero" node-id="167" stroke="none" target-height="102.390015" target-width="63.680008" target-x="214.76" target-y="658.97"></path><path d="M 510.74 805.20 C 516.99 818.53 521.62 832.72 523.15 847.35 C 524.67 861.98 522.99 877.10 517.08 890.57 C 515.09 895.13 512.53 899.59 508.68 902.72 C 506.13 904.79 503.12 906.20 500.08 907.44 C 483.93 914.04 464.76 916.08 449.44 907.71 C 435.64 900.16 427.19 885.46 422.08 870.57 C 415.72 852.01 413.48 832.04 415.59 812.53 C 416.89 800.45 419.95 788.30 426.68 778.19 C 428.98 774.72 431.77 771.48 435.33 769.31 C 439.71 766.65 444.94 765.83 450.02 765.13 C 454.74 764.49 459.50 763.92 464.24 764.26 C 475.06 765.05 485.13 770.64 492.85 778.25 C 500.57 785.86 506.15 795.39 510.74 805.20 Z M 478.56 805.79 C 475.18 795.17 470.35 784.80 462.72 776.67 C 459.14 772.86 454.76 769.49 449.62 768.55 C 442.98 767.34 436.08 770.50 431.42 775.38 C 426.76 780.27 424.02 786.67 422.00 793.11 C 415.01 815.37 415.64 839.64 421.65 862.19 C 425.14 875.26 430.65 888.23 440.42 897.58 C 444.36 901.35 449.23 904.56 454.68 904.87 C 464.06 905.38 471.70 897.26 475.98 888.88 C 481.33 878.42 483.73 866.66 484.51 854.93 C 485.61 838.37 483.58 821.61 478.56 805.79 Z" fill="#0a023d" fill-rule="nonzero" node-id="169" stroke="none" target-height="152.16003" target-width="111.18997" target-x="413.48" target-y="763.92"></path><path d="M 217.95 667.65 C 218.25 667.41 221.77 669.01 221.59 670.08 C 221.65 675.55 221.59 681.02 221.64 686.49 C 221.66 688.73 220.01 689.76 218.44 690.09 C 216.22 690.55 213.67 690.73 211.90 688.72 C 210.33 686.95 209.23 684.92 210.14 682.37 C 210.31 681.87 210.17 681.25 210.17 680.68 C 210.17 672.90 210.20 665.12 210.15 657.34 C 210.12 654.33 210.52 651.11 209.60 648.36 C 207.97 643.52 208.32 639.00 209.71 634.29 C 210.64 631.15 212.78 628.99 215.11 627.02 C 219.41 623.38 224.70 621.77 230.07 620.68 C 234.37 619.81 238.78 619.49 243.15 618.92 C 248.44 618.22 253.74 617.48 259.04 616.81 C 262.81 616.33 266.60 615.83 270.39 615.59 C 271.75 615.51 272.23 614.84 272.54 613.88 C 276.10 603.05 279.68 592.22 283.15 581.35 C 284.82 576.09 286.17 570.73 287.87 565.48 C 289.11 561.65 291.93 559.57 295.98 559.06 C 300.93 558.43 305.85 557.60 310.81 556.98 C 313.93 556.58 317.08 556.45 320.21 556.09 C 324.51 555.59 328.80 554.95 333.09 554.42 C 334.86 554.20 336.66 554.18 338.43 553.97 C 343.08 553.44 347.72 552.82 352.37 552.30 C 355.43 551.95 358.50 551.73 361.57 551.43 C 367.28 550.88 372.99 550.30 378.69 549.74 C 378.90 549.72 379.12 549.74 379.33 549.74 C 385.28 549.60 391.24 549.47 397.19 549.31 C 401.59 549.19 405.99 549.02 410.38 548.89 C 415.77 548.74 421.17 548.43 426.55 548.54 C 432.26 549.07 466.06 552.99 471.76 553.56 C 475.90 553.98 480.04 554.42 484.18 554.83 C 489.96 555.40 495.74 555.95 501.51 556.53 C 505.58 556.94 509.65 557.40 513.72 557.80 C 519.71 558.38 525.70 558.92 531.69 559.50 C 535.76 559.90 539.83 560.31 543.90 560.78 C 548.41 561.31 552.90 561.96 557.41 562.45 C 559.89 562.72 562.39 562.71 564.88 562.90 C 572.37 563.49 578.60 566.75 582.96 572.77 C 585.26 575.93 586.08 579.97 586.67 583.94 C 587.38 588.77 588.37 593.57 589.17 598.39 C 589.80 602.17 590.26 605.99 590.89 609.77 C 591.68 614.46 592.62 619.11 593.40 623.79 C 594.04 627.58 594.67 631.37 595.09 635.18 L 595.11 635.34 C 595.57 639.47 595.59 639.66 599.81 640.55 C 607.50 642.16 615.22 643.64 622.91 645.25 C 629.28 646.58 635.61 648.08 641.98 649.41 C 647.13 650.50 652.32 651.41 657.49 652.46 C 662.44 653.46 667.37 654.55 672.32 655.58 C 677.53 656.67 682.74 657.74 687.96 658.82 C 692.91 659.84 697.86 660.85 702.81 661.89 C 707.30 662.83 711.78 663.81 716.27 664.76 C 721.28 665.81 726.30 666.83 731.31 667.89 C 736.31 668.95 741.31 670.05 746.31 671.12 C 751.38 672.21 756.45 673.28 761.53 674.34 C 766.68 675.40 771.84 676.43 776.99 677.50 C 782.00 678.53 787.01 679.60 792.03 680.64 C 796.52 681.58 801.02 682.50 805.51 683.43 C 810.66 684.50 815.80 685.56 820.95 686.64 C 827.26 687.97 869.99 701.49 876.30 702.78 L 887.24 816.96 C 883.56 819.28 879.04 824.99 874.70 825.72 C 868.43 826.76 862.20 827.96 855.94 829.08 C 851.13 829.95 846.31 830.75 841.51 831.64 C 836.39 832.59 831.30 833.67 826.18 834.59 C 820.31 835.64 814.40 836.51 808.53 837.60 C 802.97 838.63 797.45 839.90 791.89 840.95 C 786.96 841.89 781.98 842.61 777.04 843.53 C 770.55 844.74 764.08 846.08 757.59 847.28 C 752.58 848.21 747.54 848.98 742.54 849.90 C 738.35 850.67 734.18 851.62 729.99 852.38 C 724.98 853.30 719.95 854.07 714.94 854.99 C 709.37 856.02 703.82 857.19 698.25 858.24 C 693.97 859.04 689.67 859.73 685.39 860.50 C 680.52 861.38 675.67 862.30 670.81 863.20 C 666.47 864.00 662.13 864.80 657.79 865.59 C 654.56 866.17 651.32 866.68 648.10 867.29 C 643.84 868.11 639.60 868.98 635.35 869.83 C 630.39 870.82 625.43 871.86 620.45 872.79 C 616.23 873.57 611.98 874.17 607.76 874.94 C 603.50 875.72 599.29 877.03 595.00 877.34 C 590.59 877.67 587.27 880.85 582.86 880.36 C 580.64 880.11 578.82 881.37 576.79 880.36 C 565.61 876.60 543.70 872.34 532.56 868.47 C 525.70 866.09 518.89 863.57 512.03 861.17 C 508.94 860.09 507.03 856.02 504.05 854.70 C 499.80 852.83 498.99 850.14 496.63 845.93 C 492.61 838.73 492.56 834.26 490.49 826.36 C 488.24 817.78 490.90 808.09 486.32 800.36 C 482.50 793.92 474.73 790.34 469.60 784.94 C 464.77 779.84 466.34 770.71 460.18 767.48 C 453.72 764.10 443.82 758.69 436.58 757.34 C 433.60 756.79 417.32 756.41 416.01 759.14 C 413.84 763.68 409.22 769.15 409.27 774.16 C 409.30 778.38 406.50 779.61 406.94 783.84 C 407.82 792.35 409.94 798.38 411.94 806.62 C 412.30 808.11 421.22 821.64 419.10 821.76 C 418.12 821.81 417.00 821.69 416.15 821.24 C 407.80 816.81 399.50 812.26 391.16 807.80 C 383.05 803.46 374.91 799.19 366.81 794.87 C 357.94 790.13 349.10 785.36 340.23 780.63 C 332.12 776.31 323.99 772.03 315.88 767.71 C 307.53 763.26 299.21 758.77 290.86 754.32 C 284.37 750.86 277.86 747.45 271.37 744.00 C 266.50 741.41 261.78 738.47 256.73 736.31 C 253.35 734.87 251.41 732.75 250.49 729.40 C 250.12 728.06 249.78 726.72 249.37 725.40 C 246.92 717.65 244.63 709.84 241.95 702.16 C 239.04 693.83 235.99 685.53 232.58 677.40 C 230.62 672.71 226.62 669.69 221.90 667.87 C 220.75 667.43 218.29 667.07 217.95 667.65 Z" fill="url(#paint6_linear_610_4544)" fill-rule="nonzero" node-id="171" stroke="none" target-height="332.94" target-width="679.27" target-x="207.97" target-y="548.43"></path><path d="M 874.70 828.73 C 879.04 828.00 883.21 826.71 886.89 824.38 L 886.50 718.99 C 886.46 709.43 878.08 702.06 868.59 703.24 L 584.64 729.94 L 582.03 884.01 C 586.31 883.69 603.50 879.56 607.76 878.78 C 611.98 878.01 616.23 876.58 620.45 875.80 C 625.43 874.88 630.39 873.84 635.35 872.85 C 639.60 872.00 643.84 871.12 648.09 870.31 C 651.32 869.69 654.56 869.18 657.79 868.60 C 662.13 867.82 666.47 867.01 670.80 866.21 C 675.67 865.32 680.52 864.39 685.39 863.51 C 689.67 862.74 693.97 862.06 698.25 861.25 C 703.82 860.21 709.36 859.03 714.94 858.00 C 719.94 857.08 724.98 856.32 729.99 855.40 C 734.18 854.63 738.34 853.68 742.54 852.91 C 747.54 851.99 752.58 851.23 757.59 850.30 C 764.08 849.09 770.54 847.75 777.04 846.54 C 781.98 845.63 786.95 844.90 791.89 843.97 C 797.45 842.91 802.97 841.64 808.53 840.61 C 814.40 839.52 820.31 838.66 826.18 837.60 C 831.30 836.68 836.39 835.61 841.51 834.65 C 846.31 833.76 851.13 832.96 855.94 832.10 C 862.19 830.98 868.43 829.77 874.70 828.73 Z" fill="url(#paint7_linear_610_4544)" fill-rule="nonzero" node-id="173" stroke="none" target-height="181.95001" target-width="304.86" target-x="582.03" target-y="702.06"></path><path d="M 874.70 828.73 C 879.04 828.00 883.21 826.71 886.89 824.38 L 886.50 718.99 C 886.46 709.43 878.08 702.06 868.59 703.24 L 584.64 729.94 L 582.03 884.01 C 586.31 883.69 603.50 879.56 607.76 878.78 C 611.98 878.01 616.23 876.58 620.45 875.80 C 625.43 874.88 630.39 873.84 635.35 872.85 C 639.60 872.00 643.84 871.12 648.09 870.31 C 651.32 869.69 654.56 869.18 657.79 868.60 C 662.13 867.82 666.47 867.01 670.80 866.21 C 675.67 865.32 680.52 864.39 685.39 863.51 C 689.67 862.74 693.97 862.06 698.25 861.25 C 703.82 860.21 709.36 859.03 714.94 858.00 C 719.94 857.08 724.98 856.32 729.99 855.40 C 734.18 854.63 738.34 853.68 742.54 852.91 C 747.54 851.99 752.58 851.23 757.59 850.30 C 764.08 849.09 770.54 847.75 777.04 846.54 C 781.98 845.63 786.95 844.90 791.89 843.97 C 797.45 842.91 802.97 841.64 808.53 840.61 C 814.40 839.52 820.31 838.66 826.18 837.60 C 831.30 836.68 836.39 835.61 841.51 834.65 C 846.31 833.76 851.13 832.96 855.94 832.10 C 862.19 830.98 868.43 829.77 874.70 828.73 Z" fill="url(#paint8_linear_610_4544)" fill-opacity="0.31" fill-rule="nonzero" node-id="175" stroke="none" target-height="181.95001" target-width="304.86" target-x="582.03" target-y="702.06"></path><path d="M 217.84 667.19 C 218.15 666.96 221.66 668.56 221.49 669.62 C 221.54 675.09 221.49 680.57 221.54 686.04 C 221.56 688.28 219.91 689.31 218.34 689.64 C 216.12 690.10 213.56 690.27 211.79 688.27 C 210.23 686.49 209.13 684.47 210.03 681.91 C 210.21 681.41 210.06 680.79 210.06 680.23 C 210.06 672.45 210.10 664.66 210.04 656.88 C 210.02 653.88 210.42 650.65 209.50 647.91 C 207.87 643.07 208.21 638.55 209.60 633.84 C 210.53 630.70 212.68 628.53 215.00 626.57 C 219.30 622.93 224.59 621.32 229.97 620.23 C 234.27 619.35 238.68 619.04 243.04 618.47 C 248.34 617.77 253.68 617.58 258.98 616.91 L 371.87 659.41 L 584.37 729.80 L 578.40 882.54 C 578.27 881.03 571.27 881.24 569.90 880.78 C 558.73 877.03 543.59 871.88 532.46 868.02 C 525.60 865.64 518.78 863.12 511.93 860.72 C 508.83 859.64 506.92 855.57 503.94 854.25 C 499.70 852.37 498.89 849.69 496.53 845.48 C 492.50 838.28 492.46 833.81 490.39 825.91 C 488.14 817.33 490.80 807.63 486.21 799.90 C 482.39 793.47 474.62 789.89 469.50 784.48 C 464.67 779.39 466.23 770.25 460.07 767.03 C 453.62 763.64 443.72 758.24 436.47 756.89 C 433.50 756.33 417.22 755.96 415.91 758.69 C 413.74 763.23 409.12 768.70 409.16 773.70 C 409.20 777.93 406.39 779.15 406.83 783.39 C 407.71 791.90 409.84 797.93 411.84 806.17 C 412.20 807.65 421.11 821.19 418.99 821.31 C 418.02 821.36 416.89 821.24 416.05 820.79 C 407.69 816.35 399.39 811.81 391.05 807.35 C 382.95 803.01 374.81 798.74 366.70 794.41 C 357.83 789.68 348.99 784.91 340.13 780.18 C 332.02 775.85 323.88 771.58 315.77 767.25 C 307.43 762.80 299.10 758.31 290.76 753.86 C 284.27 750.41 277.76 746.99 271.27 743.54 C 266.39 740.96 261.68 738.02 256.62 735.86 C 253.24 734.41 251.30 732.30 250.38 728.94 C 250.02 727.61 249.68 726.27 249.26 724.95 C 246.82 717.19 244.53 709.38 241.85 701.71 C 238.94 693.37 235.88 685.08 232.47 676.94 C 230.51 672.26 226.51 669.24 221.79 667.42 C 220.65 666.98 218.19 666.62 217.84 667.19 Z" fill="#e80047" fill-rule="nonzero" node-id="177" stroke="none" target-height="265.63" target-width="376.5" target-x="207.87" target-y="616.91"></path><path d="M 354.80 681.08 C 353.99 683.76 353.84 686.65 353.49 689.45 L 346.64 784.21 L 416.53 821.36 C 416.53 821.36 419.38 823.13 420.56 821.36 C 423.96 816.27 415.25 799.95 415.25 781.49 C 415.25 771.71 420.35 763.02 420.35 763.02 C 441.10 759.04 473.83 784.88 493.99 850.46 C 496.98 860.19 582.48 884.04 582.48 884.04 L 584.60 729.92 L 375.57 661.06 C 373.25 660.39 370.62 659.80 368.32 660.22 C 363.88 661.04 361.46 664.90 359.53 668.43 C 357.39 672.34 356.09 676.77 354.80 681.08 Z" fill="url(#paint9_linear_610_4544)" fill-rule="nonzero" node-id="179" stroke="none" target-height="224.23999" target-width="237.95996" target-x="346.64" target-y="659.8"></path><path d="M 301.38 567.43 C 296.05 566.27 292.98 567.87 291.50 573.48 L 278.59 622.73 C 278.47 623.21 278.60 624.02 278.93 624.28 C 279.85 625.00 280.88 625.66 281.98 626.10 C 286.53 627.90 291.15 629.54 295.69 631.39 C 305.13 635.23 314.51 639.22 323.96 643.06 C 333.10 646.77 342.28 650.39 351.46 654.00 C 352.06 654.23 354.49 655.00 356.79 655.71 C 359.14 656.44 361.54 654.79 361.71 652.34 L 365.71 595.23 C 365.93 592.13 365.30 589.02 363.88 586.25 C 361.69 581.94 357.77 578.78 353.01 577.91 C 350.19 577.39 347.34 576.90 345.17 576.46 C 340.68 575.53 336.20 574.54 331.72 573.59 L 331.11 573.47 C 325.72 572.33 320.32 571.20 314.92 570.10 C 310.41 569.19 305.88 568.40 301.38 567.43 Z" fill="#019af5" fill-rule="nonzero" node-id="181" stroke="none" target-height="90.16998" target-width="87.45999" target-x="278.47" target-y="566.27"></path><path d="M 596.58 800.97 C 589.51 792.73 591.57 781.42 599.10 775.68 C 606.46 770.06 616.23 773.36 619.44 782.57 C 622.78 792.18 617.03 802.01 609.66 804.32 C 604.68 805.89 600.43 804.60 596.58 800.97 Z" fill="#e3ffd8" fill-rule="nonzero" node-id="183" stroke="none" target-height="35.830017" target-width="33.27002" target-x="589.51" target-y="770.06"></path><path d="M 857.11 755.53 C 857.59 759.04 859.55 761.68 862.16 763.82 C 865.13 766.24 870.91 765.55 873.10 762.53 C 877.55 756.39 878.36 749.90 874.61 743.07 C 872.44 739.12 868.25 737.31 864.38 738.46 C 858.24 740.27 855.40 749.81 857.11 755.53 Z" fill="#e3ffd8" fill-rule="nonzero" node-id="185" stroke="none" target-height="28.929993" target-width="22.95996" target-x="855.4" target-y="737.31"></path><path d="M 374.48 654.85 C 374.40 655.43 378.50 661.72 383.81 660.66 L 589.44 644.11 L 588.73 640.63 C 588.01 636.84 587.24 633.05 586.46 629.27 C 585.40 624.13 584.31 618.99 583.24 613.84 C 582.26 609.15 581.24 604.48 580.33 599.77 C 579.67 596.35 579.15 592.90 578.57 589.47 C 578.00 586.02 577.93 582.40 576.75 579.18 C 575.17 574.82 573.10 571.85 567.42 572.34 C 562.88 572.73 558.33 572.94 553.77 573.20 C 548.66 573.50 543.54 573.77 538.43 574.06 C 533.59 574.33 528.76 574.62 523.92 574.90 C 519.02 575.19 514.12 575.47 509.21 575.75 L 507.64 575.85 C 503.33 576.10 499.02 576.35 494.71 576.60 C 490.09 576.88 485.47 577.17 480.85 577.45 C 475.94 577.74 471.04 578.01 466.13 578.30 C 461.58 578.57 457.03 578.88 452.48 579.15 C 447.44 579.44 442.39 579.71 437.35 580.00 C 432.58 580.27 427.82 580.57 423.06 580.85 C 418.22 581.13 413.39 581.45 408.56 581.68 C 404.30 581.88 400.04 581.93 395.79 582.13 C 391.29 582.35 385.90 585.48 385.86 590.84 C 385.85 591.91 385.65 592.99 385.45 594.04 L 385.45 594.06 C 384.33 599.96 383.18 605.85 382.06 611.75 C 381.34 615.56 380.61 619.36 379.95 623.18 C 379.33 626.76 378.86 630.36 378.23 633.93 C 377.58 637.54 376.79 641.12 376.13 644.73 C 375.51 648.09 374.93 651.46 374.48 654.85 Z" fill="#0876b8" fill-rule="nonzero" node-id="187" stroke="none" target-height="89.869995" target-width="215.04001" target-x="374.4" target-y="571.85"></path><path d="M 418.37 670.24 C 413.88 668.78 414.64 662.20 419.35 661.82 L 598.26 647.30 C 598.67 647.27 599.09 647.29 599.50 647.38 L 824.60 693.49 C 829.41 694.50 829.08 701.47 824.19 702.02 L 589.08 724.07 C 588.47 724.14 587.86 724.08 587.27 723.89 L 418.37 670.24 Z" fill="url(#paint10_linear_610_4544)" fill-opacity="0.16" fill-rule="nonzero" node-id="189" stroke="none" target-height="76.869995" target-width="415.52997" target-x="413.88" target-y="647.27"></path><path d="M 242.72 712.44 C 242.47 726.92 240.09 739.41 235.78 738.26 C 232.66 737.42 226.51 724.92 226.77 710.00 C 227.03 695.08 230.34 678.72 234.59 683.12 C 236.69 686.40 242.98 697.52 242.72 712.44 Z" fill="#0e0355" fill-rule="nonzero" node-id="191" stroke="none" target-height="60.690002" target-width="16.470001" target-x="226.51" target-y="678.72"></path></g></svg>