<?xml version="1.0" standalone="no"?><!DOCTYPE svg PUBLIC "-//W3C//DTD SVG 1.1//EN" "http://www.w3.org/Graphics/SVG/1.1/DTD/svg11.dtd"><svg height="1026" node-id="1" sillyvg="true" template-height="1026" template-width="1024" version="1.1" viewBox="0 0 1024 1026" width="1024" xmlns="http://www.w3.org/2000/svg" xmlns:xlink="http://www.w3.org/1999/xlink"><defs node-id="45"><linearGradient gradientUnits="userSpaceOnUse" id="paint0_linear_610_4727" node-id="15" spreadMethod="pad" x1="512" x2="737.38" y1="-0.00000671686" y2="1024"><stop offset="0" stop-color="#a6f1ff"></stop><stop offset="1" stop-color="#96f3ff"></stop></linearGradient><linearGradient gradientUnits="userSpaceOnUse" id="paint1_linear_610_4727" node-id="18" spreadMethod="pad" x1="-496.601" x2="-496.601" y1="2" y2="2019.2"><stop offset="0" stop-color="#a5f1ff"></stop><stop offset="1" stop-color="#d0fff9"></stop></linearGradient><linearGradient gradientUnits="userSpaceOnUse" id="paint2_linear_610_4727" node-id="21" spreadMethod="pad" x1="378.191" x2="530.497" y1="479.168" y2="695.825"><stop offset="0" stop-color="#aff3e9"></stop><stop offset="1" stop-color="#fff9ed"></stop></linearGradient><linearGradient gradientUnits="userSpaceOnUse" id="paint3_linear_610_4727" node-id="24" spreadMethod="pad" x1="525.609" x2="775.129" y1="691.134" y2="1046.82"><stop offset="0" stop-color="#aff3e9"></stop><stop offset="1" stop-color="#fff9ed"></stop></linearGradient><linearGradient gradientUnits="userSpaceOnUse" id="paint4_linear_610_4727" node-id="27" spreadMethod="pad" x1="213.127" x2="388.194" y1="802.121" y2="1124.31"><stop offset="0" stop-color="#aff3e9"></stop><stop offset="1" stop-color="#fff9ed"></stop></linearGradient><linearGradient gradientUnits="userSpaceOnUse" id="paint5_linear_610_4727" node-id="30" spreadMethod="pad" x1="95.3791" x2="144.772" y1="645.519" y2="751.758"><stop offset="0" stop-color="#aff3e9"></stop><stop offset="1" stop-color="#fff9ed"></stop></linearGradient><linearGradient gradientUnits="userSpaceOnUse" id="paint6_linear_610_4727" node-id="33" spreadMethod="pad" x1="148.173" x2="172.083" y1="731.262" y2="777.29"><stop offset="0" stop-color="#aff3e9"></stop><stop offset="1" stop-color="#fff9ed"></stop></linearGradient><linearGradient gradientUnits="userSpaceOnUse" id="paint7_linear_610_4727" node-id="36" spreadMethod="pad" x1="323.495" x2="351.68" y1="568.584" y2="615.669"><stop offset="0" stop-color="#aff3e9"></stop><stop offset="1" stop-color="#fff9ed"></stop></linearGradient><linearGradient gradientUnits="userSpaceOnUse" id="paint8_linear_610_4727" node-id="39" spreadMethod="pad" x1="199.55" x2="233.499" y1="577.748" y2="639.366"><stop offset="0" stop-color="#aff3e9"></stop><stop offset="1" stop-color="#fff9ed"></stop></linearGradient><clipPath id="clip0_610_4727" node-id="42"><path d="M 160.63 2.00 L 863.37 2.00 C 952.08 2.00 1024.00 73.92 1024.00 162.63 L 1024.00 865.37 C 1024.00 954.08 952.08 1026.00 863.37 1026.00 L 160.63 1026.00 C 71.92 1026.00 0.00 954.08 0.00 865.37 L 0.00 162.63 C -0.00 73.92 71.92 2.00 160.63 2.00 Z" fill="#000000" fill-rule="nonzero" node-id="102" stroke="none" target-height="1024" target-width="1024" target-x="0" target-y="2"></path></clipPath></defs><path d="M 160.00 0.00 L 864.00 0.00 C 952.37 0.00 1024.00 71.63 1024.00 160.00 L 1024.00 864.00 C 1024.00 952.37 952.37 1024.00 864.00 1024.00 L 160.00 1024.00 C 71.63 1024.00 0.00 952.37 0.00 864.00 L 0.00 160.00 C -0.00 71.63 71.63 0.00 160.00 0.00 Z" fill="url(#paint0_linear_610_4727)" fill-rule="nonzero" node-id="106" stroke="none" target-height="1024" target-width="1024" target-x="0" target-y="0"></path><g node-id="130"><g clip-path="url(#clip0_610_4727)" group-id="1" id="sillyvg_g_0" node-id="108"><path d="M 160.63 2.00 L 863.37 2.00 C 952.08 2.00 1024.00 73.92 1024.00 162.63 L 1024.00 865.37 C 1024.00 954.08 952.08 1026.00 863.37 1026.00 L 160.63 1026.00 C 71.92 1026.00 0.00 954.08 0.00 865.37 L 0.00 162.63 C -0.00 73.92 71.92 2.00 160.63 2.00 Z" fill="url(#paint1_linear_610_4727)" fill-rule="nonzero" group-id="1" node-id="110" stroke="none" target-height="1024" target-width="1024" target-x="0" target-y="2"></path><path d="M 633.90 359.78 C 633.90 434.73 573.87 495.49 499.81 495.49 C 425.75 495.49 365.71 434.73 365.71 359.78 C 365.71 284.83 425.75 224.07 499.81 224.07 C 573.87 224.07 633.90 284.83 633.90 359.78 Z" fill="#ffd96c" fill-rule="nonzero" group-id="1" node-id="112" stroke="none" target-height="271.41998" target-width="268.19003" target-x="365.71" target-y="224.07"></path><path d="M 479.85 384.46 L 1230.75 802.93 L 1230.75 1161.34 L -207.24 1161.34 L -200.44 820.22 L 479.85 384.46 Z" fill="#6eb8ae" fill-rule="evenodd" group-id="1" node-id="114" stroke="none" target-height="776.88" target-width="1437.99" target-x="-207.24" target-y="384.46"></path><path d="M 469.51 417.92 L 511.76 428.38 L 510.65 400.52 L 741.29 529.04 L 701.62 530.71 L 684.94 543.13 L 591.15 489.54 L 663.24 559.31 L 644.42 573.33 L 656.02 605.23 L 572.33 643.49 L 487.30 558.23 L 542.00 568.33 L 507.36 513.99 L 591.15 553.42 L 520.26 489.54 L 552.17 500.43 L 469.51 417.92 Z" fill="url(#paint2_linear_610_4727)" fill-rule="evenodd" group-id="1" node-id="116" stroke="none" target-height="242.97" target-width="271.77997" target-x="469.51" target-y="400.52"></path><path d="M 767.57 571.61 L 803.43 562.20 L 1122.13 740.50 L 1075.31 793.44 L 1025.87 776.50 L 1057.04 812.78 L 979.96 894.13 L 868.40 844.64 L 932.03 960.54 L 731.31 816.74 L 725.97 725.35 L 675.64 655.83 L 722.62 668.03 L 706.56 601.95 L 777.83 594.29 L 767.57 571.61 Z" fill="url(#paint3_linear_610_4727)" fill-rule="evenodd" group-id="1" node-id="118" stroke="none" target-height="398.33997" target-width="446.49" target-x="675.64" target-y="562.2"></path><path d="M 365.43 700.74 L 453.83 748.35 L 453.83 716.28 L 636.38 878.72 L 607.49 813.73 L 714.13 849.27 L 886.42 1031.46 L 805.48 1043.10 L 573.95 909.42 L 765.00 1095.91 L 659.96 1116.87 L 365.43 838.00 L 365.43 782.07 L 423.04 813.73 L 365.43 700.74 Z" fill="url(#paint4_linear_610_4727)" fill-rule="evenodd" group-id="1" node-id="120" stroke="none" target-height="416.13" target-width="520.99" target-x="365.43" target-y="700.74"></path><path d="M 157.75 653.00 L 150.49 614.13 L 232.50 643.49 L 314.50 711.10 L 232.62 702.41 L 157.75 653.00 Z" fill="url(#paint5_linear_610_4727)" fill-rule="evenodd" group-id="1" node-id="122" stroke="none" target-height="96.96997" target-width="164.01" target-x="150.49" target-y="614.13"></path><path d="M 196.88 760.93 L 170.49 717.06 L 236.89 732.83 L 226.21 750.62 L 196.88 760.93 Z" fill="url(#paint6_linear_610_4727)" fill-rule="evenodd" group-id="1" node-id="124" stroke="none" target-height="43.869995" target-width="66.399994" target-x="170.49" target-y="717.06"></path><path d="M 367.73 601.05 L 344.68 553.05 L 407.74 572.95 L 367.73 572.95 L 367.73 601.05 Z" fill="url(#paint7_linear_610_4727)" fill-rule="evenodd" group-id="1" node-id="126" stroke="none" target-height="48" target-width="63.059998" target-x="344.68" target-y="553.05"></path><path d="M 228.46 583.78 L 254.47 583.78 L 242.46 558.23 L 277.62 573.80 L 314.50 604.33 L 267.07 618.52 L 228.46 583.78 Z" fill="url(#paint8_linear_610_4727)" fill-rule="evenodd" group-id="1" node-id="128" stroke="none" target-height="60.29004" target-width="86.03999" target-x="228.46" target-y="558.23"></path></g></g></svg>