<?xml version="1.0" standalone="no"?><!DOCTYPE svg PUBLIC "-//W3C//DTD SVG 1.1//EN" "http://www.w3.org/Graphics/SVG/1.1/DTD/svg11.dtd"><svg height="250" node-id="1" sillyvg="true" template-height="250" template-width="250" version="1.1" viewBox="0 0 250 250" width="250" xmlns="http://www.w3.org/2000/svg" xmlns:xlink="http://www.w3.org/1999/xlink"><defs node-id="81"><clipPath id="SVGID_2_" node-id="8"><path d="M 225.60 126.00 C 225.60 181.23 180.83 226.00 125.60 226.00 C 70.37 226.00 25.60 181.23 25.60 126.00 C 25.60 70.77 70.37 26.00 125.60 26.00 C 180.83 26.00 225.60 70.77 225.60 126.00 Z" fill="#000000" fill-rule="nonzero" node-id="84" stroke="none" target-height="200" target-width="200" target-x="25.6" target-y="26"></path></clipPath></defs><g node-id="281"><path d="M 225.60 126.00 C 225.60 181.23 180.83 226.00 125.60 226.00 C 70.37 226.00 25.60 181.23 25.60 126.00 C 25.60 70.77 70.37 26.00 125.60 26.00 C 180.83 26.00 225.60 70.77 225.60 126.00 Z" fill="#ffffff" fill-rule="nonzero" group-id="1" node-id="92" stroke="none" target-height="200" target-width="200" target-x="25.6" target-y="26"></path></g><g node-id="282"><g clip-path="url(#SVGID_2_)" group-id="2" id="sillyvg_g_1" node-id="95"><path d="M 146.70 189.80 C 146.20 189.10 145.60 188.50 144.90 188.20 C 143.80 187.60 143.00 186.40 142.90 185.10 C 142.80 183.40 143.60 181.70 144.70 180.50 C 148.60 176.00 155.30 175.40 161.20 175.50 C 167.10 175.70 173.50 176.20 178.60 173.30 C 181.70 171.50 184.00 168.70 186.10 165.80 C 188.20 162.90 190.30 160.00 193.20 157.90 C 196.10 155.80 199.90 154.60 203.20 155.80 C 206.50 157.00 208.90 161.10 207.30 164.30 C 206.60 165.80 205.20 166.80 203.90 167.80 C 198.70 171.50 192.40 175.10 191.40 181.40 C 191.00 184.10 191.60 187.00 190.20 189.40 C 188.50 192.30 184.60 192.80 181.20 192.90 C 179.20 193.00 177.00 193.00 175.10 192.20 C 172.80 191.30 171.10 189.40 169.20 187.80 C 167.30 186.20 164.80 184.90 162.50 185.60 C 160.80 186.10 159.60 187.50 158.20 188.60 C 156.10 190.30 153.40 191.50 150.60 191.30 C 148.60 191.10 147.60 191.10 146.70 189.80 Z" fill="#ffffff" fill-rule="nonzero" group-id="2,4,11" node-id="101" stroke="none" target-height="38.399994" target-width="66.09999" target-x="142.8" target-y="154.6"></path><path d="M 179.60 193.10 C 178.00 193.10 176.50 193.00 175.10 192.40 C 173.40 191.70 172.00 190.40 170.60 189.20 C 170.10 188.80 169.70 188.40 169.20 188.00 C 167.60 186.60 165.10 185.10 162.70 185.80 C 161.40 186.20 160.40 187.10 159.40 187.90 C 159.10 188.20 158.80 188.40 158.50 188.70 C 156.10 190.60 153.40 191.60 150.80 191.50 C 148.60 191.40 147.50 191.30 146.70 190.00 L 146.70 190.00 C 146.30 189.40 145.70 188.80 144.90 188.40 C 143.70 187.80 142.90 186.50 142.80 185.10 C 142.70 183.50 143.40 181.80 144.70 180.30 C 148.90 175.50 156.20 175.10 161.30 175.30 C 161.90 175.30 162.50 175.30 163.10 175.40 C 168.50 175.60 174.00 175.80 178.60 173.10 C 181.70 171.30 184.00 168.50 186.10 165.70 C 186.30 165.50 186.40 165.20 186.60 165.00 C 188.50 162.40 190.60 159.70 193.20 157.70 C 196.50 155.20 200.30 154.40 203.40 155.60 C 205.30 156.30 206.90 157.80 207.70 159.80 C 208.40 161.40 208.40 163.10 207.70 164.50 C 206.90 166.00 205.50 167.10 204.20 168.10 C 203.60 168.50 203.00 168.90 202.50 169.30 C 197.70 172.60 192.70 176.10 191.80 181.60 C 191.70 182.50 191.60 183.50 191.60 184.40 C 191.50 186.20 191.50 188.10 190.50 189.70 C 188.70 192.70 184.70 193.20 181.30 193.30 C 180.70 193.00 180.20 193.10 179.60 193.10 Z M 163.90 185.20 C 166.00 185.20 168.00 186.50 169.40 187.60 C 169.90 188.00 170.40 188.40 170.80 188.90 C 172.10 190.10 173.50 191.40 175.20 192.00 C 177.00 192.70 179.10 192.70 181.20 192.60 C 184.40 192.50 188.30 192.00 190.00 189.20 C 190.90 187.70 190.90 186.00 191.00 184.20 C 191.00 183.30 191.10 182.30 191.20 181.40 C 192.10 175.70 197.20 172.20 202.10 168.80 C 202.70 168.40 203.30 168.00 203.80 167.60 C 205.00 166.70 206.40 165.70 207.10 164.20 C 207.70 162.90 207.70 161.40 207.10 159.90 C 206.40 158.10 204.80 156.60 203.10 156.00 C 200.10 154.90 196.40 155.70 193.30 158.10 C 190.70 160.00 188.70 162.70 186.80 165.30 C 186.60 165.50 186.50 165.80 186.30 166.00 C 184.20 168.80 181.90 171.70 178.70 173.50 C 174.00 176.20 168.40 176.00 163.00 175.80 C 162.40 175.80 161.80 175.80 161.20 175.70 C 156.10 175.60 149.00 175.90 144.90 180.60 C 143.60 182.00 143.00 183.60 143.10 185.10 C 143.20 186.30 144.00 187.50 145.00 188.00 C 145.80 188.40 146.50 189.00 146.90 189.70 L 146.90 189.70 C 147.70 190.90 148.60 190.90 150.70 191.00 C 153.20 191.10 155.80 190.20 158.10 188.30 C 158.40 188.10 158.70 187.80 159.00 187.50 C 160.00 186.60 161.10 185.70 162.50 185.30 C 163.00 185.20 163.40 185.20 163.90 185.20 Z" fill="#000000" fill-rule="nonzero" group-id="2,4,12" node-id="106" stroke="none" target-height="38.90001" target-width="65.7" target-x="142.7" target-y="154.4"></path><path d="M 40.70 107.30 C 40.20 106.60 39.60 106.00 38.90 105.70 C 37.80 105.10 37.00 103.90 36.90 102.60 C 36.80 100.90 37.60 99.20 38.70 98.00 C 42.60 93.50 49.30 92.90 55.20 93.00 C 61.10 93.10 67.50 93.70 72.60 90.80 C 75.70 89.00 78.00 86.20 80.10 83.30 C 82.20 80.40 84.30 77.50 87.20 75.40 C 90.10 73.30 93.90 72.10 97.20 73.30 C 100.50 74.50 102.90 78.60 101.30 81.80 C 100.60 83.30 99.20 84.30 97.90 85.30 C 92.70 89.00 86.40 92.60 85.40 98.90 C 85.00 101.60 85.60 104.50 84.20 106.90 C 82.50 109.80 78.60 110.30 75.20 110.40 C 73.20 110.50 71.00 110.50 69.10 109.70 C 66.80 108.80 65.10 106.90 63.20 105.30 C 61.30 103.70 58.80 102.40 56.50 103.10 C 54.80 103.60 53.60 105.00 52.20 106.10 C 50.10 107.80 47.40 109.00 44.60 108.80 C 42.60 108.60 41.60 108.60 40.70 107.30 Z" fill="#ffffff" fill-rule="nonzero" group-id="2,5,13" node-id="114" stroke="none" target-height="38.4" target-width="66.100006" target-x="36.8" target-y="72.1"></path><path d="M 73.60 110.50 C 72.00 110.50 70.50 110.40 69.10 109.80 C 67.40 109.10 66.00 107.80 64.60 106.60 C 64.10 106.20 63.70 105.80 63.20 105.40 C 61.60 104.00 59.10 102.50 56.70 103.20 C 55.40 103.60 54.40 104.50 53.40 105.30 C 53.10 105.60 52.80 105.80 52.50 106.10 C 50.10 108.00 47.40 109.00 44.80 108.90 C 42.60 108.80 41.50 108.70 40.70 107.40 L 40.70 107.40 C 40.30 106.80 39.70 106.20 38.90 105.80 C 37.70 105.20 36.90 103.90 36.80 102.50 C 36.70 100.90 37.40 99.20 38.70 97.70 C 42.90 92.90 50.20 92.50 55.30 92.70 C 55.90 92.70 56.50 92.70 57.10 92.80 C 62.50 93.00 68.00 93.20 72.60 90.50 C 75.70 88.70 78.00 85.90 80.10 83.10 C 80.30 82.90 80.40 82.60 80.60 82.40 C 82.50 79.80 84.60 77.10 87.20 75.10 C 90.50 72.60 94.30 71.80 97.40 73.00 C 99.30 73.70 100.90 75.20 101.70 77.20 C 102.40 78.80 102.40 80.50 101.70 81.90 C 100.90 83.40 99.50 84.50 98.20 85.50 C 97.60 85.90 97.00 86.30 96.50 86.70 C 91.70 90.00 86.70 93.50 85.80 99.00 C 85.70 99.90 85.60 100.90 85.60 101.80 C 85.50 103.60 85.50 105.50 84.50 107.10 C 82.70 110.10 78.70 110.60 75.30 110.70 C 74.70 110.50 74.20 110.50 73.60 110.50 Z M 57.90 102.70 C 60.00 102.70 62.00 104.00 63.40 105.10 C 63.90 105.50 64.40 105.90 64.80 106.40 C 66.10 107.60 67.50 108.90 69.20 109.50 C 71.00 110.20 73.10 110.20 75.20 110.10 C 78.40 110.00 82.30 109.50 84.00 106.70 C 84.90 105.20 84.90 103.50 85.00 101.70 C 85.00 100.80 85.10 99.80 85.20 98.90 C 86.10 93.20 91.20 89.70 96.10 86.30 C 96.70 85.90 97.30 85.50 97.80 85.10 C 99.00 84.20 100.40 83.20 101.10 81.70 C 101.70 80.40 101.70 78.90 101.10 77.40 C 100.40 75.60 98.80 74.10 97.10 73.50 C 94.10 72.40 90.40 73.20 87.30 75.60 C 84.70 77.50 82.70 80.20 80.80 82.80 C 80.60 83.00 80.50 83.30 80.30 83.50 C 78.20 86.30 75.90 89.20 72.70 91.00 C 68.00 93.70 62.40 93.50 57.00 93.30 C 56.40 93.30 55.80 93.30 55.20 93.20 C 50.20 93.00 43.00 93.40 38.90 98.10 C 37.60 99.50 37.00 101.10 37.10 102.60 C 37.20 103.80 38.00 105.00 39.00 105.50 C 39.80 105.90 40.50 106.50 40.90 107.20 L 40.90 107.20 C 41.70 108.40 42.60 108.40 44.70 108.50 C 47.20 108.60 49.80 107.70 52.10 105.80 C 52.40 105.60 52.70 105.30 53.00 105.00 C 54.00 104.10 55.10 103.20 56.50 102.80 C 57.00 102.70 57.40 102.70 57.90 102.70 Z" fill="#000000" fill-rule="nonzero" group-id="2,5,14" node-id="119" stroke="none" target-height="38.899994" target-width="65.7" target-x="36.7" target-y="71.8"></path><path d="M 144.40 153.70 C 145.00 154.60 146.20 155.00 147.20 154.60 C 148.70 154.10 150.50 154.60 151.90 155.70 C 153.70 157.00 154.60 159.20 154.90 161.40 C 155.00 162.70 154.90 164.00 155.40 165.20 C 156.60 168.50 161.90 169.10 163.80 166.10 C 164.40 165.20 164.60 164.00 164.70 162.90 C 165.40 156.60 162.30 150.10 157.00 146.70 C 154.90 145.30 152.30 144.40 149.80 144.60 C 147.20 144.80 144.70 146.30 143.80 148.70 C 143.10 150.30 143.40 152.30 144.40 153.70 Z" fill="#ffffff" fill-rule="nonzero" group-id="2,6,15" node-id="127" stroke="none" target-height="24.700012" target-width="22.299988" target-x="143.1" target-y="144.4"></path><path d="M 160.00 168.20 C 159.80 168.20 159.60 168.20 159.30 168.20 C 157.30 168.00 155.80 166.80 155.20 165.20 C 154.90 164.30 154.80 163.40 154.80 162.50 C 154.80 162.10 154.80 161.70 154.70 161.40 C 154.50 159.10 153.40 157.00 151.80 155.90 C 150.30 154.80 148.60 154.40 147.30 154.80 C 146.20 155.20 144.90 154.80 144.20 153.80 L 144.20 153.80 C 143.10 152.30 142.90 150.20 143.50 148.60 C 144.40 146.30 146.90 144.60 149.70 144.30 C 152.70 144.00 155.40 145.30 157.10 146.50 C 162.40 150.00 165.60 156.60 164.90 162.90 C 164.80 163.80 164.60 165.10 163.90 166.20 C 163.20 167.40 161.70 168.20 160.00 168.20 Z M 148.50 154.20 C 149.70 154.20 150.90 154.70 152.10 155.50 C 153.80 156.70 154.90 158.90 155.10 161.30 C 155.10 161.70 155.20 162.10 155.20 162.50 C 155.20 163.40 155.30 164.30 155.60 165.10 C 156.10 166.60 157.50 167.60 159.40 167.80 C 161.20 168.00 162.80 167.30 163.70 166.00 C 164.30 165.00 164.50 163.70 164.60 162.90 C 165.20 156.70 162.20 150.30 157.00 146.90 C 155.30 145.80 152.80 144.60 149.90 144.80 C 147.30 145.00 144.90 146.60 144.10 148.80 C 143.50 150.40 143.70 152.30 144.70 153.60 L 144.70 153.60 C 145.30 154.40 146.30 154.70 147.30 154.40 C 147.60 154.20 148.00 154.20 148.50 154.20 Z" fill="#000000" fill-rule="nonzero" group-id="2,6,16" node-id="132" stroke="none" target-height="24.199997" target-width="22.700012" target-x="142.9" target-y="144"></path><path d="M 183.70 108.80 C 183.70 117.90 181.30 126.40 177.10 133.70 L 176.80 133.60 C 167.00 137.80 147.40 140.90 121.80 124.90 C 98.60 110.50 106.30 76.00 109.50 65.00 L 109.40 64.90 C 116.60 60.90 124.80 58.70 133.60 58.70 C 161.20 58.70 183.70 81.10 183.70 108.80 Z" fill="#ffff00" fill-rule="nonzero" group-id="2,7,17,25,36" node-id="143" stroke="none" target-height="82.2" target-width="85.1" target-x="98.6" target-y="58.7"></path><path d="M 176.70 133.60 L 177.00 133.70 C 168.40 148.70 152.10 158.90 133.50 158.90 C 105.80 158.90 83.40 136.50 83.40 108.80 C 83.40 89.90 93.90 73.40 109.30 64.90 L 109.40 65.00 C 106.20 76.00 98.50 110.50 121.60 124.90 C 147.30 140.90 166.90 137.80 176.70 133.60 Z" fill="#f7e93c" fill-rule="nonzero" group-id="2,7,17,25,37" node-id="148" stroke="none" target-height="93.99999" target-width="93.6" target-x="83.4" target-y="64.9"></path><path d="M 133.60 159.10 C 126.80 159.10 120.20 157.80 114.00 155.10 C 108.00 152.60 102.60 148.90 98.00 144.30 C 93.40 139.70 89.80 134.30 87.20 128.30 C 84.60 122.10 83.20 115.50 83.20 108.70 C 83.20 90.40 93.20 73.50 109.20 64.60 L 109.20 64.60 C 116.60 60.50 125.00 58.40 133.50 58.40 C 140.30 58.40 146.90 59.70 153.10 62.40 C 159.10 64.90 164.50 68.60 169.10 73.20 C 173.70 77.80 177.30 83.20 179.90 89.20 C 182.50 95.40 183.90 102.00 183.90 108.80 C 183.90 117.60 181.60 126.30 177.20 133.80 C 172.90 141.30 166.60 147.70 159.10 152.10 C 151.40 156.70 142.60 159.10 133.60 159.10 Z M 133.60 58.90 C 125.20 58.90 116.90 61.00 109.50 65.10 L 109.50 65.10 C 93.60 73.90 83.70 90.60 83.70 108.80 C 83.70 136.30 106.10 158.70 133.60 158.70 C 151.40 158.70 168.00 149.10 176.90 133.60 C 181.20 126.10 183.50 117.50 183.50 108.80 C 183.50 81.30 161.10 58.90 133.60 58.90 Z M 109.40 64.90 L 109.40 64.90 L 109.40 64.90 Z" fill="#000000" fill-rule="nonzero" group-id="2,7,17,26,38" node-id="156" stroke="none" target-height="100.700005" target-width="100.7" target-x="83.2" target-y="58.4"></path><path d="M 138.70 108.40 C 138.70 113.04 134.94 116.80 130.30 116.80 C 125.66 116.80 121.90 113.04 121.90 108.40 C 121.90 103.76 125.66 100.00 130.30 100.00 C 134.94 100.00 138.70 103.76 138.70 108.40 Z" fill="#ffc801" fill-rule="nonzero" group-id="2,7,18,27,39" node-id="167" stroke="none" target-height="16.800003" target-width="16.799995" target-x="121.9" target-y="100"></path><path d="M 112.00 99.20 C 112.00 103.67 108.37 107.30 103.90 107.30 C 99.43 107.30 95.80 103.67 95.80 99.20 C 95.80 94.73 99.43 91.10 103.90 91.10 C 108.37 91.10 112.00 94.73 112.00 99.20 Z" fill="#ffc801" fill-rule="nonzero" group-id="2,7,18,28,40" node-id="175" stroke="none" target-height="16.200005" target-width="16.199997" target-x="95.8" target-y="91.1"></path><path d="M 105.40 128.70 C 105.40 131.68 102.98 134.10 100.00 134.10 C 97.02 134.10 94.60 131.68 94.60 128.70 C 94.60 125.72 97.02 123.30 100.00 123.30 C 102.98 123.30 105.40 125.72 105.40 128.70 Z" fill="#ffc801" fill-rule="nonzero" group-id="2,7,18,29,41" node-id="183" stroke="none" target-height="10.800003" target-width="10.800003" target-x="94.6" target-y="123.3"></path><path d="M 128.40 141.40 C 128.40 144.77 125.67 147.50 122.30 147.50 C 118.93 147.50 116.20 144.77 116.20 141.40 C 116.20 138.03 118.93 135.30 122.30 135.30 C 125.67 135.30 128.40 138.03 128.40 141.40 Z" fill="#ffc801" fill-rule="nonzero" group-id="2,7,18,30,42" node-id="191" stroke="none" target-height="12.199997" target-width="12.199997" target-x="116.2" target-y="135.3"></path><path d="M 166.40 128.00 C 166.40 130.98 163.98 133.40 161.00 133.40 C 158.02 133.40 155.60 130.98 155.60 128.00 C 155.60 125.02 158.02 122.60 161.00 122.60 C 163.98 122.60 166.40 125.02 166.40 128.00 Z" fill="#ffc801" fill-rule="nonzero" group-id="2,7,18,31,43" node-id="199" stroke="none" target-height="10.799995" target-width="10.799988" target-x="155.6" target-y="122.6"></path><path d="M 149.90 94.20 C 149.90 95.69 148.69 96.90 147.20 96.90 C 145.71 96.90 144.50 95.69 144.50 94.20 C 144.50 92.71 145.71 91.50 147.20 91.50 C 148.69 91.50 149.90 92.71 149.90 94.20 Z" fill="#ffc801" fill-rule="nonzero" group-id="2,7,18,32,44" node-id="207" stroke="none" target-height="5.4000015" target-width="5.399994" target-x="144.5" target-y="91.5"></path><path d="M 150.70 116.30 C 150.70 118.12 149.22 119.60 147.40 119.60 C 145.58 119.60 144.10 118.12 144.10 116.30 C 144.10 114.48 145.58 113.00 147.40 113.00 C 149.22 113.00 150.70 114.48 150.70 116.30 Z" fill="#ffc801" fill-rule="nonzero" group-id="2,7,18,33,45" node-id="215" stroke="none" target-height="6.5999985" target-width="6.599991" target-x="144.1" target-y="113"></path><path d="M 143.60 150.10 C 143.60 151.54 142.44 152.70 141.00 152.70 C 139.56 152.70 138.40 151.54 138.40 150.10 C 138.40 148.66 139.56 147.50 141.00 147.50 C 142.44 147.50 143.60 148.66 143.60 150.10 Z" fill="#ffc801" fill-rule="nonzero" group-id="2,7,18,34,46" node-id="223" stroke="none" target-height="5.199997" target-width="5.200012" target-x="138.4" target-y="147.5"></path><path d="M 150.30 74.60 C 150.30 79.90 146.00 84.20 140.70 84.20 C 135.40 84.20 131.10 79.90 131.10 74.60 C 131.10 69.30 135.40 65.00 140.70 65.00 C 146.00 65.00 150.30 69.30 150.30 74.60 Z" fill="#ffc801" fill-rule="nonzero" group-id="2,7,18,35,47" node-id="231" stroke="none" target-height="19.199997" target-width="19.199997" target-x="131.1" target-y="65"></path><path d="M 79.00 152.70 C 78.20 151.60 76.80 151.10 75.50 151.40 C 70.60 152.50 65.50 153.30 60.60 152.20 C 54.90 150.90 49.60 146.40 49.40 140.60 C 49.20 134.40 56.10 129.00 62.10 130.80 C 67.20 132.30 70.50 137.70 75.60 139.20 C 81.70 141.00 87.70 136.90 93.40 134.20 C 98.50 131.90 104.10 130.60 109.70 130.50 C 111.50 130.50 113.50 130.70 114.80 131.90 C 116.40 133.40 116.40 135.80 116.50 138.00 C 116.60 142.50 117.50 147.50 121.10 150.20 C 124.80 153.00 129.90 152.40 134.20 153.80 C 140.80 155.90 145.40 163.00 144.60 169.80 C 144.50 170.60 144.30 171.50 143.80 172.20 C 143.20 173.00 142.20 173.30 141.30 173.60 C 133.10 176.00 123.50 172.20 119.10 164.80 C 117.60 162.30 116.60 159.20 114.20 157.50 C 112.70 156.40 110.80 156.00 108.90 155.80 C 105.90 155.50 102.90 155.60 100.00 156.30 C 97.20 156.90 94.60 157.90 91.70 158.20 C 86.70 158.70 82.00 156.60 79.00 152.70 Z" fill="#ffffff" fill-rule="nonzero" group-id="2,8,19" node-id="241" stroke="none" target-height="47" target-width="96.2" target-x="49.2" target-y="129"></path><path d="M 136.10 174.60 C 133.60 174.60 131.00 174.10 128.60 173.10 C 124.40 171.50 121.00 168.60 118.80 165.00 C 118.40 164.30 118.00 163.60 117.70 162.90 C 116.70 161.00 115.70 159.00 113.90 157.70 C 112.30 156.50 110.20 156.20 108.70 156.00 C 105.70 155.70 102.80 155.80 99.90 156.50 C 98.90 156.70 98.00 157.00 97.00 157.20 C 95.20 157.70 93.40 158.20 91.60 158.30 C 86.50 158.70 81.70 156.60 78.70 152.70 L 78.70 152.70 C 77.90 151.70 76.70 151.20 75.40 151.50 C 70.90 152.50 65.60 153.40 60.40 152.30 C 57.50 151.60 54.70 150.20 52.60 148.10 C 50.30 145.90 49.10 143.20 49.00 140.40 C 48.90 137.40 50.40 134.40 53.10 132.30 C 55.80 130.20 59.10 129.50 61.90 130.40 C 64.50 131.20 66.70 132.90 68.70 134.60 C 70.70 136.30 72.90 138.00 75.40 138.80 C 80.30 140.20 85.10 137.80 89.80 135.40 C 90.90 134.90 92.00 134.30 93.00 133.80 C 98.10 131.40 103.80 130.20 109.40 130.10 C 111.20 130.10 113.30 130.20 114.70 131.60 C 116.30 133.10 116.40 135.60 116.40 137.80 L 116.40 137.90 C 116.50 143.80 118.00 147.80 120.90 150.00 C 123.20 151.70 126.00 152.10 128.90 152.50 C 130.60 152.70 132.30 153.00 133.90 153.50 C 137.10 154.50 140.00 156.80 142.00 159.80 C 144.00 162.80 144.80 166.40 144.50 169.70 C 144.40 170.50 144.20 171.40 143.60 172.20 C 142.90 173.00 141.90 173.40 141.00 173.70 C 139.70 174.30 137.90 174.60 136.10 174.60 Z M 105.90 155.50 C 106.90 155.50 107.90 155.60 108.90 155.70 C 110.40 155.90 112.60 156.20 114.30 157.40 C 116.10 158.70 117.20 160.70 118.20 162.70 C 118.50 163.40 118.90 164.10 119.30 164.70 C 123.60 172.00 133.10 175.80 141.30 173.40 C 142.20 173.10 143.10 172.80 143.70 172.10 C 144.20 171.40 144.40 170.50 144.50 169.80 C 145.30 163.00 140.80 156.10 134.30 154.00 C 132.70 153.50 131.00 153.30 129.30 153.00 C 126.40 152.60 123.40 152.20 121.10 150.40 C 118.10 148.10 116.60 144.10 116.40 138.00 L 116.40 137.90 C 116.40 135.80 116.30 133.40 114.80 132.00 C 113.50 130.80 111.60 130.60 109.80 130.60 C 104.20 130.70 98.60 131.90 93.60 134.20 C 92.50 134.70 91.40 135.20 90.40 135.80 C 85.60 138.20 80.70 140.70 75.70 139.20 C 73.10 138.40 71.00 136.70 68.90 135.00 C 66.90 133.30 64.70 131.60 62.20 130.80 C 59.50 130.00 56.30 130.70 53.70 132.70 C 51.10 134.70 49.70 137.60 49.80 140.40 C 50.00 146.30 55.50 150.60 60.80 151.80 C 65.90 152.90 71.10 152.00 75.60 151.00 C 77.00 150.70 78.40 151.20 79.30 152.40 L 79.30 152.40 C 82.20 156.20 86.90 158.30 91.80 157.90 C 93.60 157.80 95.40 157.30 97.10 156.80 C 98.00 156.50 99.00 156.30 100.00 156.10 C 101.90 155.80 103.90 155.50 105.90 155.50 Z" fill="#000000" fill-rule="nonzero" group-id="2,8,20" node-id="246" stroke="none" target-height="46.300003" target-width="96.4" target-x="48.9" target-y="129.5"></path><path d="M 62.90 125.80 C 65.70 127.80 70.30 126.20 71.30 122.90 C 72.30 119.60 69.40 115.70 65.90 115.80 C 62.40 115.90 59.70 119.80 60.80 123.10 L 62.90 125.80 Z" fill="#ffffff" fill-rule="nonzero" group-id="2,9,21" node-id="254" stroke="none" target-height="12.100006" target-width="12.600002" target-x="59.7" target-y="115.7"></path><path d="M 65.80 126.90 C 64.70 126.90 63.60 126.60 62.80 126.00 C 62.80 126.00 62.80 126.00 62.80 126.00 L 60.70 123.20 C 60.70 123.20 60.70 123.20 60.70 123.10 C 60.20 121.50 60.50 119.60 61.60 118.10 C 62.70 116.50 64.40 115.60 66.00 115.60 C 67.70 115.60 69.40 116.50 70.50 118.00 C 71.60 119.50 72.00 121.40 71.50 123.00 C 71.00 124.60 69.60 126.00 67.80 126.60 C 67.20 126.80 66.50 126.90 65.80 126.90 Z M 63.00 125.70 C 64.30 126.60 66.00 126.70 67.70 126.20 C 69.40 125.60 70.60 124.40 71.10 122.90 C 71.60 121.40 71.20 119.70 70.10 118.30 C 69.10 116.90 67.50 116.10 66.00 116.10 C 66.00 116.10 66.00 116.10 65.90 116.10 C 64.30 116.10 62.80 117.00 61.80 118.50 C 60.80 119.90 60.50 121.70 61.00 123.10 L 63.00 125.70 Z" fill="#000000" fill-rule="nonzero" group-id="2,9,22" node-id="259" stroke="none" target-height="11.300003" target-width="11.799999" target-x="60.2" target-y="115.6"></path><path d="M 22.10 106.70 C 23.50 107.70 25.90 106.90 26.40 105.20 C 26.90 103.50 25.40 101.60 23.70 101.60 C 21.90 101.60 20.50 103.60 21.10 105.30 L 22.10 106.70 Z" fill="#ffffff" fill-rule="nonzero" group-id="2,10,23" node-id="267" stroke="none" target-height="6.0999985" target-width="6.3999996" target-x="20.5" target-y="101.6"></path><path d="M 23.50 107.40 C 22.90 107.40 22.40 107.20 21.90 106.90 C 21.90 106.90 21.90 106.90 21.90 106.90 L 20.80 105.50 C 20.80 105.50 20.80 105.50 20.80 105.40 C 20.50 104.60 20.70 103.60 21.30 102.80 C 21.90 102.00 22.70 101.50 23.60 101.50 C 23.60 101.50 23.60 101.50 23.60 101.50 C 24.50 101.50 25.30 102.00 25.90 102.70 C 26.50 103.50 26.70 104.50 26.40 105.30 C 26.10 106.20 25.40 106.90 24.50 107.20 C 24.30 107.30 23.90 107.40 23.50 107.40 Z M 22.20 106.60 C 22.80 107.00 23.70 107.10 24.50 106.80 C 25.30 106.50 25.90 105.90 26.10 105.20 C 26.30 104.50 26.10 103.60 25.60 102.90 C 25.10 102.20 24.30 101.80 23.60 101.80 C 23.60 101.80 23.60 101.80 23.60 101.80 C 22.80 101.80 22.10 102.20 21.60 102.90 C 21.10 103.60 21.00 104.40 21.20 105.10 L 22.20 106.60 Z" fill="#000000" fill-rule="nonzero" group-id="2,10,24" node-id="272" stroke="none" target-height="5.9000015" target-width="6.200001" target-x="20.5" target-y="101.5"></path></g></g><path d="M 225.60 126.00 C 225.60 181.23 180.83 226.00 125.60 226.00 C 70.37 226.00 25.60 181.23 25.60 126.00 C 25.60 70.77 70.37 26.00 125.60 26.00 C 180.83 26.00 225.60 70.77 225.60 126.00 Z" fill="none" group-id="3" node-id="279" stroke="#000000" stroke-linecap="round" stroke-width="3" target-height="200" target-width="200" target-x="25.6" target-y="26"></path></svg>