<?xml version="1.0" standalone="no"?><!DOCTYPE svg PUBLIC "-//W3C//DTD SVG 1.1//EN" "http://www.w3.org/Graphics/SVG/1.1/DTD/svg11.dtd"><svg height="1024" node-id="1" sillyvg="true" template-height="1024" template-width="1024" version="1.1" viewBox="0 0 1024 1024" width="1024" xmlns="http://www.w3.org/2000/svg" xmlns:xlink="http://www.w3.org/1999/xlink"><defs node-id="61"><linearGradient gradientUnits="userSpaceOnUse" id="paint0_linear_610_4596" node-id="39" spreadMethod="pad" x1="428.032" x2="551.936" y1="-35.84" y2="727.04"><stop offset="0" stop-color="#aec3d8"></stop><stop offset="0.47806" stop-color="#80a6b9"></stop><stop offset="1" stop-color="#5e929f"></stop></linearGradient><linearGradient gradientUnits="userSpaceOnUse" id="paint1_linear_610_4596" node-id="43" spreadMethod="pad" x1="14" x2="876.5" y1="660.5" y2="904.5"><stop offset="0" stop-color="#266a29"></stop><stop offset="1" stop-color="#39661d"></stop></linearGradient><linearGradient gradientUnits="userSpaceOnUse" id="paint2_linear_610_4596" node-id="46" spreadMethod="pad" x1="1007.86" x2="1004.82" y1="218.573" y2="622.201"><stop offset="0" stop-color="#5e6e7a"></stop><stop offset="1" stop-color="#6c93a6"></stop></linearGradient><linearGradient gradientUnits="userSpaceOnUse" id="paint3_linear_610_4596" node-id="49" spreadMethod="pad" x1="564.643" x2="-267.143" y1="655.715" y2="1147.5"><stop offset="0" stop-color="#39661e"></stop><stop offset="1" stop-color="#106f36"></stop></linearGradient><linearGradient gradientUnits="userSpaceOnUse" id="paint4_linear_610_4596" node-id="52" spreadMethod="pad" x1="497.857" x2="534.286" y1="-66.784" y2="692.145"><stop offset="0.611244" stop-color="#597c91"></stop><stop offset="1" stop-color="#617981"></stop></linearGradient><linearGradient gradientUnits="userSpaceOnUse" id="paint5_linear_610_4596" node-id="55" spreadMethod="pad" x1="396.19" x2="701.714" y1="-193.691" y2="1219.87"><stop offset="0" stop-color="#667a7d"></stop><stop offset="0.619407" stop-color="#ffffff" stop-opacity="0.65"></stop></linearGradient><clipPath id="clip0_610_4596" node-id="58"><path d="M 160.00 0.00 L 864.00 0.00 C 952.37 0.00 1024.00 71.63 1024.00 160.00 L 1024.00 864.00 C 1024.00 952.37 952.37 1024.00 864.00 1024.00 L 160.00 1024.00 C 71.63 1024.00 0.00 952.37 0.00 864.00 L 0.00 160.00 C -0.00 71.63 71.63 0.00 160.00 0.00 Z" fill="#000000" fill-rule="nonzero" node-id="102" stroke="none" target-height="1024" target-width="1024" target-x="0" target-y="0"></path></clipPath><mask height="316" id="mask0_610_4596" maskUnits="userSpaceOnUse" node-id="12" width="101" x="690" y="507"><path d="M 695.21 530.25 C 691.83 540.21 689.96 550.97 690.20 561.49 C 692.21 647.46 701.60 736.13 729.63 822.53 L 790.75 822.53 C 754.91 735.22 737.91 629.06 728.64 514.37 C 728.93 508.87 721.28 506.69 716.00 508.21 C 705.92 511.11 698.59 520.29 695.21 530.25 Z" fill="#372c10" fill-rule="nonzero" node-id="106" stroke="none" target-height="315.84003" target-width="100.78998" target-x="689.96" target-y="506.69"></path></mask></defs><g clip-path="url(#clip0_610_4596)" id="sillyvg_g_0" node-id="110"><path d="M 160.00 0.00 L 864.00 0.00 C 952.37 0.00 1024.00 71.63 1024.00 160.00 L 1024.00 864.00 C 1024.00 952.37 952.37 1024.00 864.00 1024.00 L 160.00 1024.00 C 71.63 1024.00 0.00 952.37 0.00 864.00 L 0.00 160.00 C -0.00 71.63 71.63 0.00 160.00 0.00 Z" fill="url(#paint0_linear_610_4596)" fill-rule="nonzero" node-id="112" stroke="none" target-height="1024" target-width="1024" target-x="0" target-y="0"></path><path d="M -6.50 653.00 L 1020.00 621.00 L 1027.00 1136.00 L -13.00 1136.00 L -6.50 653.00 Z" fill="url(#paint1_linear_610_4596)" fill-rule="nonzero" node-id="114" stroke="none" target-height="515" target-width="1040" target-x="-13" target-y="621"></path><path d="M 1142.61 234.50 C 1244.72 306.25 1273.21 292.83 1312.99 278.71 C 1399.33 248.08 1464.97 222.62 1540.45 253.22 L 1540.45 622.20 L 517.39 589.81 C 398.27 585.48 533.71 526.69 564.31 517.39 C 594.91 508.10 621.45 499.61 642.79 488.38 C 668.13 475.05 687.09 452.45 709.24 434.83 C 729.58 418.65 748.88 412.02 773.33 404.58 C 818.10 390.96 880.84 384.80 912.13 347.05 C 981.49 263.39 1062.07 177.91 1142.61 234.50 Z" fill="url(#paint2_linear_610_4596)" fill-opacity="0.4" fill-rule="nonzero" group-id="1" node-id="118" stroke="none" target-height="444.29" target-width="1142.1799" target-x="398.27" target-y="177.91"></path><path d="M 0.00 571.20 L 1020.00 571.20 L 1020.00 571.20 C 1020.00 819.07 819.07 1020.00 571.20 1020.00 L 448.80 1020.00 C 200.94 1020.00 0.00 819.07 0.00 571.20 L 0.00 571.20 Z" fill="url(#paint3_linear_610_4596)" fill-rule="nonzero" node-id="121" stroke="none" target-height="448.8" target-width="1020" target-x="0" target-y="571.2"></path><path d="M 1168.58 939.80 C 1152.26 939.80 394.87 762.33 374.00 754.16 C 280.16 717.44 649.66 671.16 581.06 652.16 C 514.76 633.80 244.46 631.43 244.46 631.43 L 182.24 635.84 C 182.24 635.84 174.73 639.47 170.00 641.96 C 334.22 644.69 499.92 650.10 504.00 658.56 C 508.07 667.02 122.96 697.75 192.44 770.15 C 313.82 896.63 627.88 1025.48 627.88 1025.48 L 1168.58 1025.48 L 1168.58 939.80 Z" fill="#2a3020" fill-rule="nonzero" node-id="123" stroke="none" target-height="394.05" target-width="1045.62" target-x="122.96" target-y="631.43"></path><path d="M 397.83 265.11 C 295.73 336.85 267.24 323.43 227.46 309.32 C 141.12 278.68 75.48 253.22 0.00 283.82 L 0.00 652.80 L 1023.06 620.41 C 1142.17 616.08 1006.74 557.29 976.14 548.00 C 945.54 538.70 918.99 530.21 897.65 518.98 C 872.32 505.65 853.36 483.05 831.21 465.43 C 810.87 449.25 791.56 442.62 767.12 435.18 C 722.35 421.56 659.61 415.40 628.32 377.65 C 558.96 293.99 478.38 208.51 397.83 265.11 Z" fill="url(#paint4_linear_610_4596)" fill-rule="nonzero" node-id="125" stroke="none" target-height="444.28998" target-width="1142.17" target-x="0" target-y="208.51"></path><path d="M 582.38 603.63 C 669.89 510.04 753.49 513.22 763.04 514.96 C 748.83 498.26 728.27 487.42 706.66 483.63 C 685.06 479.84 662.51 482.87 642.06 490.80 C 612.61 502.22 586.49 525.09 576.75 555.14 C 571.51 571.28 571.68 590.46 582.38 603.63 Z" fill="#145335" fill-rule="nonzero" node-id="127" stroke="none" target-height="123.79001" target-width="191.52997" target-x="571.51" target-y="479.84"></path><path d="M 602.34 558.75 C 665.30 505.90 700.68 496.71 763.04 514.96 C 748.83 498.26 728.27 487.42 706.66 483.63 C 685.06 479.84 662.51 482.87 642.06 490.80 C 612.61 502.22 586.49 525.09 576.75 555.14 C 571.51 571.28 587.74 571.01 602.34 558.75 Z" fill="#5aaf34" fill-rule="nonzero" node-id="129" stroke="none" target-height="91.44003" target-width="191.52997" target-x="571.51" target-y="479.84"></path><path d="M 695.21 530.25 C 691.83 540.21 689.96 550.97 690.20 561.49 C 692.21 647.46 701.60 736.13 729.63 822.53 L 790.75 822.53 C 754.91 735.22 737.91 629.06 728.64 514.37 C 728.93 508.87 721.28 506.69 716.00 508.21 C 705.92 511.11 698.59 520.29 695.21 530.25 Z" fill="#412c0e" fill-rule="nonzero" node-id="131" stroke="none" target-height="315.84003" target-width="100.78998" target-x="689.96" target-y="506.69"></path><path d="M 717.63 588.15 C 717.63 584.10 720.91 580.82 724.95 580.82 L 754.25 580.82 C 758.29 580.82 761.57 584.10 761.57 588.15 L 761.57 588.15 C 761.57 592.19 758.29 595.47 754.25 595.47 L 724.95 595.47 C 720.91 595.47 717.63 592.19 717.63 588.15 L 717.63 588.15 Z" fill="#251408" fill-rule="nonzero" group-id="2" node-id="135" stroke="none" target-height="14.649963" target-width="43.940002" target-x="717.63" target-y="580.82"></path><path d="M 661.78 637.59 C 661.78 633.54 665.06 630.26 669.11 630.26 L 698.40 630.26 C 702.45 630.26 705.73 633.54 705.73 637.59 L 705.73 637.59 C 705.73 641.63 702.45 644.91 698.40 644.91 L 669.11 644.91 C 665.06 644.91 661.78 641.63 661.78 637.59 L 661.78 637.59 Z" fill="#251408" fill-rule="nonzero" group-id="2" node-id="137" stroke="none" target-height="14.649963" target-width="43.94995" target-x="661.78" target-y="630.26"></path><path d="M 739.60 708.08 C 739.60 704.03 742.88 700.75 746.92 700.75 L 776.22 700.75 C 780.27 700.75 783.54 704.03 783.54 708.08 L 783.54 708.08 C 783.54 712.12 780.27 715.40 776.22 715.40 L 746.92 715.40 C 742.88 715.40 739.60 712.12 739.60 708.08 L 739.60 708.08 Z" fill="#251408" fill-rule="nonzero" group-id="2" node-id="139" stroke="none" target-height="14.650024" target-width="43.940002" target-x="739.6" target-y="700.75"></path><path d="M 683.75 757.52 C 683.75 753.47 687.03 750.19 691.08 750.19 L 720.38 750.19 C 724.42 750.19 727.70 753.47 727.70 757.52 L 727.70 757.52 C 727.70 761.56 724.42 764.84 720.38 764.84 L 691.08 764.84 C 687.03 764.84 683.75 761.56 683.75 757.52 L 683.75 757.52 Z" fill="#251408" fill-rule="nonzero" group-id="2" node-id="141" stroke="none" target-height="14.650024" target-width="43.950012" target-x="683.75" target-y="750.19"></path><path d="M 695.21 530.25 C 691.83 540.21 689.96 550.97 690.20 561.49 C 692.21 647.46 701.60 736.13 729.63 822.53 L 764.56 822.53 C 764.56 822.53 705.74 679.15 702.39 517.39 C 702.28 512.48 696.78 525.61 695.21 530.25 Z" fill="#4d3b17" fill-opacity="0.4" fill-rule="nonzero" group-id="3" node-id="146" stroke="none" target-height="310.05005" target-width="74.599976" target-x="689.96" target-y="512.48"></path><path d="M 723.53 512.53 C 722.84 515.10 721.30 518.14 718.64 518.04 C 716.38 515.16 714.07 512.34 711.71 509.58 C 691.38 485.82 667.71 467.07 641.40 453.07 C 616.32 439.72 588.85 430.68 559.60 425.74 C 556.67 425.24 553.73 424.79 550.77 424.38 C 547.31 424.29 548.42 418.74 550.79 416.22 C 569.74 396.06 599.18 387.29 626.62 390.88 C 654.06 394.46 679.29 409.51 697.93 429.97 C 718.17 452.19 731.36 483.50 723.53 512.53 Z" fill="#5aaf34" fill-rule="nonzero" node-id="149" stroke="none" target-height="130.85" target-width="184.04999" target-x="547.31" target-y="387.29"></path><path d="M 715.83 516.02 C 718.49 516.12 720.01 513.09 720.71 510.53 C 728.50 481.61 715.37 450.43 695.20 428.29 C 676.64 407.91 651.50 392.92 624.17 389.35 C 596.84 385.78 567.52 394.51 548.64 414.60 C 546.43 416.94 545.32 421.93 548.00 422.63 C 563.22 414.43 580.61 409.63 599.07 409.63 C 654.26 409.63 696.71 452.53 703.07 500.98 C 705.05 503.14 707.01 505.35 708.93 507.59 C 711.28 510.33 713.58 513.14 715.83 516.02 Z" fill="#145335" fill-rule="nonzero" node-id="151" stroke="none" target-height="130.34" target-width="183.18" target-x="545.32" target-y="385.78"></path><path d="M 718.71 483.60 C 718.17 494.17 719.53 505.38 725.80 513.90 C 765.48 437.89 855.09 434.67 855.09 434.67 C 884.50 436.97 845.44 392.39 815.57 391.01 C 805.91 389.87 796.19 391.01 786.97 394.06 C 749.11 406.60 720.77 443.77 718.71 483.60 Z" fill="#5aaf34" fill-rule="nonzero" node-id="153" stroke="none" target-height="124.03003" target-width="166.33002" target-x="718.17" target-y="389.87"></path><path d="M 715.91 481.71 C 715.36 492.24 716.72 503.40 722.96 511.90 C 728.32 504.17 731.42 496.67 737.77 489.74 C 740.52 452.66 781.92 387.50 847.63 407.34 C 848.20 407.54 848.77 407.74 849.33 407.94 C 840.07 397.58 826.13 390.54 812.48 388.93 C 802.87 387.79 793.08 389.48 783.89 392.52 C 746.18 405.01 717.95 442.04 715.91 481.71 Z" fill="#145335" fill-rule="nonzero" node-id="155" stroke="none" target-height="124.399994" target-width="133.97003" target-x="715.36" target-y="387.5"></path><path d="M 754.91 532.56 C 745.27 525.33 730.37 519.26 718.99 515.31 C 714.08 513.60 711.98 507.21 713.67 502.29 C 715.36 497.36 719.86 493.88 724.63 491.80 C 732.06 488.56 740.41 488.08 748.49 488.64 C 779.57 490.79 809.80 508.21 825.61 535.05 C 840.38 560.13 851.93 642.74 831.19 614.36 C 822.46 602.41 799.95 566.33 754.91 532.56 Z" fill="#145335" fill-rule="nonzero" node-id="157" stroke="none" target-height="154.66" target-width="139.95001" target-x="711.98" target-y="488.08"></path><path d="M 714.47 503.61 C 756.75 507.74 785.70 536.69 805.92 558.29 C 826.14 579.89 828.23 530.92 802.70 510.50 C 759.04 475.57 711.71 489.36 714.47 503.61 Z" fill="#5aaf34" fill-rule="nonzero" node-id="159" stroke="none" target-height="104.32001" target-width="116.51996" target-x="711.71" target-y="475.57"></path><path d="M 717.97 534.00 C 717.97 552.70 705.55 559.63 686.84 559.63 C 668.13 559.63 655.71 552.70 655.71 534.00 C 655.71 515.29 670.82 495.55 686.84 495.55 C 702.86 495.55 717.97 515.29 717.97 534.00 Z" fill="#75d745" fill-rule="nonzero" node-id="161" stroke="none" target-height="64.08002" target-width="62.25995" target-x="655.71" target-y="495.55"></path><path d="M 740.86 512.02 C 740.86 530.73 728.44 537.66 709.73 537.66 C 691.02 537.66 678.60 530.73 678.60 512.02 C 678.60 493.31 693.71 473.57 709.73 473.57 C 725.75 473.57 740.86 493.31 740.86 512.02 Z" fill="#88e45b" fill-rule="nonzero" node-id="163" stroke="none" target-height="64.089966" target-width="62.26001" target-x="678.6" target-y="473.57"></path><path d="M 764.66 544.06 C 764.66 562.77 752.24 569.70 733.53 569.70 C 714.82 569.70 702.40 562.77 702.40 544.06 C 702.40 525.36 717.51 505.61 733.53 505.61 C 749.55 505.61 764.66 525.36 764.66 544.06 Z" fill="#5aaf34" fill-rule="nonzero" node-id="165" stroke="none" target-height="64.09003" target-width="62.25995" target-x="702.4" target-y="505.61"></path><path d="M 814.24 832.51 C 796.50 837.78 779.78 832.51 779.78 832.51 C 779.78 832.51 737.72 842.29 737.72 822.50 C 737.72 802.70 760.75 796.67 779.78 796.67 C 798.81 796.67 814.24 812.72 814.24 832.51 Z" fill="#225207" fill-rule="nonzero" node-id="167" stroke="none" target-height="45.619995" target-width="76.52002" target-x="737.72" target-y="796.67"></path><path d="M 763.23 819.76 C 745.49 825.03 728.77 819.76 728.77 819.76 C 728.77 819.76 686.71 829.54 686.71 809.74 C 686.71 789.95 709.74 783.91 728.77 783.91 C 747.80 783.91 763.23 799.96 763.23 819.76 Z" fill="#225207" fill-rule="nonzero" node-id="169" stroke="none" target-height="45.630005" target-width="76.51996" target-x="686.71" target-y="783.91"></path><path d="M 852.50 807.00 C 834.76 812.27 818.04 807.00 818.04 807.00 C 818.04 807.00 775.98 816.78 775.98 796.99 C 775.98 777.19 799.01 771.16 818.04 771.16 C 837.07 771.16 852.50 787.21 852.50 807.00 Z" fill="#225207" fill-rule="nonzero" node-id="171" stroke="none" target-height="45.620056" target-width="76.52002" target-x="775.98" target-y="771.16"></path><path d="M 1168.58 939.80 C 1152.26 939.80 394.87 762.33 374.00 754.16 C 280.16 717.44 649.66 671.16 581.06 652.16 C 514.76 633.80 256.60 643.57 256.60 643.57 L 194.38 647.98 C 194.38 647.98 186.87 651.62 182.14 654.10 C 346.36 656.83 499.92 650.10 504.00 658.56 C 508.07 667.02 122.96 697.75 192.44 770.15 C 313.82 896.63 627.88 1025.48 627.88 1025.48 L 1168.58 1025.48 L 1168.58 939.80 Z" fill="#002b23" fill-rule="nonzero" node-id="173" stroke="none" target-height="391.68" target-width="1045.62" target-x="122.96" target-y="633.8"></path><path d="M 209.12 541.08 C 204.14 532.95 195.81 527.10 186.67 525.32 C 177.53 523.53 167.71 525.83 160.21 531.52 C 159.13 532.34 157.99 533.75 158.69 534.93 C 162.38 533.15 166.71 533.94 170.63 535.07 C 181.16 538.09 191.11 543.26 199.75 550.20 C 190.18 551.02 181.12 556.75 176.07 565.20 C 171.01 573.64 170.08 584.59 173.62 593.82 C 181.14 581.02 191.37 569.94 203.38 561.58 C 204.63 565.74 204.58 570.18 204.36 574.53 C 202.62 609.13 190.43 643.09 169.91 670.48 C 177.27 669.64 184.51 667.74 191.36 664.85 C 193.30 664.03 195.25 663.10 196.73 661.58 C 198.38 659.87 199.30 657.57 200.14 655.33 C 209.15 631.47 214.48 606.14 215.88 580.57 C 216.23 574.27 216.31 567.78 214.15 561.88 C 226.70 566.30 237.82 574.94 245.43 586.18 C 248.56 577.54 246.76 567.30 241.21 560.08 C 235.67 552.86 226.67 548.75 217.76 548.94 C 229.04 540.82 241.97 533.36 255.66 534.55 C 256.48 533.67 255.68 532.23 254.83 531.38 C 248.46 524.97 238.67 522.83 230.04 525.02 C 221.41 527.22 213.99 533.38 209.12 541.08 Z" fill="#2c4053" fill-rule="nonzero" node-id="175" stroke="none" target-height="147.64996" target-width="98.490005" target-x="157.99" target-y="522.83"></path><path d="M 206.43 678.62 C 196.30 681.63 186.74 678.62 186.74 678.62 C 186.74 678.62 162.71 684.21 162.71 672.90 C 162.71 661.59 175.87 658.14 186.74 658.14 C 197.62 658.14 206.43 667.31 206.43 678.62 Z" fill="#1b2f2d" fill-rule="nonzero" node-id="177" stroke="none" target-height="26.070007" target-width="43.719986" target-x="162.71" target-y="658.14"></path><path d="M 189.43 671.34 C 179.30 674.35 169.74 671.34 169.74 671.34 C 169.74 671.34 145.71 676.92 145.71 665.61 C 145.71 654.30 158.87 650.86 169.74 650.86 C 180.62 650.86 189.43 660.03 189.43 671.34 Z" fill="#1b2f2d" fill-rule="nonzero" node-id="179" stroke="none" target-height="26.059998" target-width="43.719986" target-x="145.71" target-y="650.86"></path><path d="M 221.00 666.71 C 212.56 669.22 204.59 666.71 204.59 666.71 C 204.59 666.71 184.57 671.36 184.57 661.94 C 184.57 652.51 195.53 649.64 204.59 649.64 C 213.66 649.64 221.00 657.28 221.00 666.71 Z" fill="#1b2f2d" fill-rule="nonzero" node-id="181" stroke="none" target-height="21.71997" target-width="36.429993" target-x="184.57" target-y="649.64"></path><path d="M 297.22 4.10 C 296.97 2.10 298.40 0.27 300.40 0.03 C 302.40 -0.22 304.23 1.21 304.48 3.21 L 319.33 124.21 C 319.58 126.21 318.15 128.04 316.15 128.28 C 314.14 128.53 312.32 127.10 312.07 125.10 L 297.22 4.10 Z M 721.39 33.59 C 719.38 33.83 717.96 35.66 718.20 37.66 L 730.09 134.46 C 730.33 136.46 732.16 137.89 734.16 137.64 C 736.17 137.40 737.59 135.57 737.35 133.57 L 725.46 36.77 C 725.22 34.77 723.39 33.34 721.39 33.59 Z M 732.89 480.90 C 730.88 481.15 729.46 482.97 729.70 484.98 L 741.59 581.77 C 741.83 583.78 743.66 585.20 745.66 584.96 C 747.67 584.71 749.09 582.89 748.85 580.88 L 736.96 484.08 C 736.72 482.08 734.89 480.65 732.89 480.90 Z M 337.16 272.89 C 335.16 273.14 333.73 274.96 333.98 276.97 L 338.43 313.26 C 338.68 315.27 340.50 316.69 342.51 316.45 C 344.51 316.20 345.94 314.38 345.69 312.37 L 341.24 276.07 C 340.99 274.07 339.17 272.64 337.16 272.89 Z M 582.19 592.75 C 584.20 592.50 586.02 593.93 586.27 595.93 L 590.72 632.23 C 590.97 634.24 589.54 636.06 587.54 636.31 C 585.54 636.55 583.71 635.13 583.47 633.12 L 579.01 596.82 C 578.76 594.82 580.19 592.99 582.19 592.75 Z M 289.62 690.27 C 287.62 690.52 286.19 692.34 286.44 694.35 L 290.89 730.64 C 291.14 732.65 292.96 734.08 294.97 733.83 C 296.97 733.58 298.40 731.76 298.15 729.75 L 293.70 693.46 C 293.45 691.45 291.62 690.02 289.62 690.27 Z M 323.01 828.44 C 322.76 826.44 324.19 824.61 326.19 824.37 C 328.20 824.12 330.02 825.55 330.27 827.55 L 334.73 863.85 C 334.97 865.85 333.55 867.68 331.54 867.92 C 329.54 868.17 327.71 866.75 327.46 864.74 L 323.01 828.44 Z M 143.34 787.79 C 141.33 788.04 139.90 789.87 140.15 791.87 L 144.61 828.17 C 144.85 830.17 146.68 831.60 148.68 831.35 C 150.69 831.11 152.11 829.28 151.87 827.28 L 147.41 790.98 C 147.16 788.98 145.34 787.55 143.34 787.79 Z M 627.77 986.92 C 627.52 984.91 628.95 983.09 630.95 982.84 C 632.96 982.60 634.78 984.02 635.03 986.03 L 639.49 1022.33 C 639.73 1024.33 638.31 1026.16 636.30 1026.40 C 634.30 1026.65 632.47 1025.22 632.23 1023.22 L 627.77 986.92 Z M 374.95 982.84 C 372.95 983.09 371.52 984.91 371.77 986.92 L 376.23 1023.22 C 376.47 1025.22 378.30 1026.65 380.30 1026.40 C 382.31 1026.16 383.73 1024.33 383.49 1022.33 L 379.03 986.03 C 378.78 984.02 376.96 982.60 374.95 982.84 Z M 826.00 836.56 C 824.00 836.80 822.57 838.63 822.82 840.63 L 827.27 876.93 C 827.52 878.94 829.35 880.36 831.35 880.12 C 833.36 879.87 834.78 878.04 834.53 876.04 L 830.08 839.74 C 829.83 837.74 828.01 836.31 826.00 836.56 Z M 932.53 779.68 C 932.28 777.67 933.71 775.85 935.72 775.60 C 937.72 775.36 939.54 776.78 939.79 778.79 L 944.25 815.09 C 944.49 817.09 943.07 818.92 941.06 819.16 C 939.06 819.41 937.24 817.98 936.99 815.98 L 932.53 779.68 Z M 813.81 714.65 C 811.81 714.90 810.38 716.72 810.63 718.73 L 815.08 755.03 C 815.33 757.03 817.15 758.46 819.16 758.21 C 821.16 757.96 822.59 756.14 822.34 754.13 L 817.89 717.84 C 817.64 715.83 815.82 714.41 813.81 714.65 Z M 79.20 718.73 C 78.95 716.72 80.38 714.90 82.38 714.65 C 84.39 714.41 86.21 715.83 86.46 717.84 L 90.92 754.13 C 91.16 756.14 89.74 757.96 87.73 758.21 C 85.73 758.46 83.90 757.03 83.66 755.03 L 79.20 718.73 Z M 192.10 617.13 C 190.09 617.37 188.67 619.20 188.91 621.20 L 193.37 657.50 C 193.62 659.51 195.44 660.93 197.44 660.69 C 199.45 660.44 200.88 658.62 200.63 656.61 L 196.17 620.31 C 195.93 618.31 194.10 616.88 192.10 617.13 Z M 237.67 877.20 C 237.43 875.20 238.85 873.37 240.86 873.13 C 242.86 872.88 244.69 874.31 244.93 876.31 L 252.19 919.40 C 252.44 921.41 251.01 923.23 249.01 923.48 C 247.00 923.72 245.18 922.30 244.93 920.29 L 237.67 877.20 Z M 512.57 583.19 C 510.56 583.43 508.74 582.01 508.49 580.00 L 504.03 543.70 C 503.79 541.70 505.21 539.87 507.22 539.63 C 509.22 539.38 511.05 540.81 511.29 542.81 L 515.75 579.11 C 516.00 581.12 514.57 582.94 512.57 583.19 Z M 81.52 298.58 C 81.27 296.57 82.70 294.75 84.70 294.50 C 86.71 294.26 88.53 295.68 88.78 297.69 L 96.21 358.19 C 96.45 360.19 95.03 362.01 93.02 362.26 C 91.02 362.51 89.19 361.08 88.95 359.08 L 81.52 298.58 Z M 121.46 563.88 L 121.46 563.88 L 114.03 503.38 C 113.79 501.37 111.96 499.95 109.96 500.19 C 108.82 500.33 107.87 500.98 107.31 501.88 C 106.94 502.46 106.73 503.16 106.75 503.90 C 106.75 504.02 106.76 504.14 106.77 504.27 L 114.20 564.77 C 114.32 565.77 114.84 566.63 115.58 567.20 C 116.32 567.78 117.27 568.08 118.28 567.95 C 118.45 567.93 118.61 567.90 118.78 567.86 C 120.51 567.39 121.69 565.71 121.46 563.88 Z M 157.28 915.66 L 157.28 915.66 L 164.71 976.15 C 164.74 976.40 164.80 976.65 164.88 976.88 C 165.42 978.49 167.03 979.55 168.79 979.34 C 169.04 979.31 169.28 979.25 169.51 979.17 C 171.12 978.63 172.19 977.02 171.97 975.26 L 164.54 914.76 C 164.30 912.76 162.47 911.34 160.47 911.58 L 160.47 911.58 C 158.47 911.83 157.04 913.65 157.28 915.66 Z M 354.08 595.62 L 354.08 595.61 C 353.87 593.86 354.93 592.24 356.54 591.70 C 356.77 591.62 357.02 591.57 357.27 591.54 C 358.60 591.38 359.85 591.95 360.61 592.94 C 360.86 593.26 361.05 593.61 361.18 594.00 C 361.26 594.23 361.31 594.47 361.34 594.72 L 368.77 655.22 L 368.77 655.22 C 368.95 656.73 368.20 658.13 366.96 658.84 C 366.55 659.08 366.09 659.24 365.59 659.30 C 364.42 659.44 363.32 659.02 362.55 658.25 C 362.00 657.69 361.61 656.95 361.51 656.11 L 354.08 595.62 Z M 9.25 589.60 C 9.00 587.60 10.43 585.77 12.43 585.53 C 14.44 585.28 16.26 586.71 16.51 588.71 L 23.94 649.21 C 24.18 651.21 22.76 653.04 20.75 653.28 C 18.75 653.53 16.92 652.11 16.68 650.10 L 9.25 589.60 Z M 32.54 439.42 C 30.54 439.67 29.11 441.49 29.36 443.50 L 35.30 491.89 C 35.55 493.90 37.37 495.32 39.38 495.08 C 41.38 494.83 42.81 493.01 42.56 491.00 L 36.62 442.60 C 36.37 440.60 34.55 439.17 32.54 439.42 Z M 853.30 289.17 C 853.05 287.17 854.48 285.35 856.49 285.10 C 858.49 284.85 860.32 286.28 860.56 288.28 L 862.05 300.38 C 862.29 302.39 860.87 304.21 858.86 304.46 C 856.86 304.70 855.03 303.28 854.79 301.27 L 853.30 289.17 Z M 881.53 519.07 C 881.28 517.06 882.71 515.24 884.71 514.99 C 886.72 514.75 888.54 516.17 888.79 518.18 L 890.27 530.27 C 890.52 532.28 889.09 534.11 887.09 534.35 C 885.09 534.60 883.26 533.17 883.01 531.17 L 881.53 519.07 Z M 490.77 138.81 C 488.77 139.06 487.34 140.88 487.59 142.89 L 489.07 154.99 C 489.32 156.99 491.14 158.42 493.15 158.17 C 495.15 157.93 496.58 156.10 496.33 154.10 L 494.85 142.00 C 494.60 139.99 492.78 138.57 490.77 138.81 Z M 519.00 368.71 C 516.99 368.95 515.57 370.78 515.81 372.78 L 517.30 384.88 C 517.55 386.89 519.37 388.31 521.38 388.06 C 523.38 387.82 524.81 385.99 524.56 383.99 L 523.07 371.89 C 522.83 369.88 521.00 368.46 519.00 368.71 Z M 119.68 171.45 C 117.67 171.70 116.25 173.52 116.49 175.53 L 131.35 296.52 C 131.59 298.53 133.42 299.95 135.43 299.70 C 137.43 299.46 138.85 297.63 138.61 295.63 L 123.75 174.63 C 123.51 172.63 121.68 171.20 119.68 171.45 Z M 560.66 438.63 C 558.66 438.88 557.23 440.70 557.48 442.71 L 561.94 479.01 C 562.18 481.01 564.01 482.44 566.01 482.19 C 568.02 481.95 569.44 480.12 569.20 478.12 L 564.74 441.82 C 564.49 439.81 562.67 438.39 560.66 438.63 Z M 681.45 162.74 C 681.21 160.74 682.63 158.91 684.64 158.66 C 686.64 158.42 688.47 159.84 688.71 161.85 L 693.17 198.15 C 693.41 200.15 691.99 201.98 689.99 202.22 C 687.98 202.47 686.15 201.04 685.91 199.04 L 681.45 162.74 Z M 917.99 180.69 C 917.74 178.68 919.17 176.86 921.17 176.61 C 923.18 176.36 925.00 177.79 925.25 179.79 L 932.68 240.29 C 932.92 242.30 931.50 244.12 929.49 244.37 C 927.49 244.61 925.66 243.19 925.42 241.18 L 917.99 180.69 Z M 943.25 386.38 C 943.00 384.37 944.42 382.55 946.43 382.30 C 948.43 382.05 950.26 383.48 950.50 385.49 L 957.93 445.98 C 958.18 447.99 956.75 449.81 954.75 450.06 C 952.74 450.31 950.92 448.88 950.67 446.87 L 943.25 386.38 Z M 996.94 793.69 C 994.94 793.93 993.51 795.76 993.76 797.76 L 1001.19 858.26 C 1001.43 860.26 1003.26 861.69 1005.26 861.45 C 1007.27 861.20 1008.69 859.37 1008.45 857.37 L 1001.02 796.87 C 1000.77 794.87 998.95 793.44 996.94 793.69 Z M 775.20 966.89 C 774.96 964.88 776.38 963.06 778.39 962.81 C 780.39 962.57 782.22 963.99 782.46 966.00 L 789.89 1026.50 C 790.14 1028.50 788.71 1030.32 786.71 1030.57 C 784.70 1030.82 782.88 1029.39 782.63 1027.39 L 775.20 966.89 Z" fill="url(#paint5_linear_610_4596)" fill-opacity="0.64004725" fill-rule="evenodd" group-id="4" node-id="185" stroke="none" target-height="1031.0399" target-width="999.69" target-x="9" target-y="-0.22"></path></g></svg>