<?xml version="1.0" standalone="no"?><!DOCTYPE svg PUBLIC "-//W3C//DTD SVG 1.1//EN" "http://www.w3.org/Graphics/SVG/1.1/DTD/svg11.dtd"><svg height="250" node-id="1" sillyvg="true" template-height="250" template-width="250" version="1.1" viewBox="0 0 250 250" width="250" xmlns="http://www.w3.org/2000/svg" xmlns:xlink="http://www.w3.org/1999/xlink"><defs node-id="116"><clipPath id="SVGID_2_" node-id="8"><path d="M 225.60 126.00 C 225.60 181.23 180.83 226.00 125.60 226.00 C 70.37 226.00 25.60 181.23 25.60 126.00 C 25.60 70.77 70.37 26.00 125.60 26.00 C 180.83 26.00 225.60 70.77 225.60 126.00 Z" fill="#000000" fill-rule="nonzero" node-id="119" stroke="none" target-height="200" target-width="200" target-x="25.6" target-y="26"></path></clipPath></defs><g node-id="402"><path d="M 225.60 126.00 C 225.60 181.23 180.83 226.00 125.60 226.00 C 70.37 226.00 25.60 181.23 25.60 126.00 C 25.60 70.77 70.37 26.00 125.60 26.00 C 180.83 26.00 225.60 70.77 225.60 126.00 Z" fill="#ffffff" fill-rule="nonzero" group-id="1" node-id="127" stroke="none" target-height="200" target-width="200" target-x="25.6" target-y="26"></path></g><g node-id="403"><g clip-path="url(#SVGID_2_)" group-id="2" id="sillyvg_g_1" node-id="130"><path d="M 283.90 91.60 L 282.70 110.90 C 275.60 113.80 245.80 125.90 230.50 132.10 C 227.60 128.90 212.80 125.80 212.80 125.80 C 215.20 125.10 218.00 124.40 220.50 123.70 C 221.80 123.30 223.10 123.00 224.20 122.30 C 225.30 121.60 226.30 120.60 227.30 119.70 C 229.30 118.00 231.80 117.00 234.20 116.00 C 239.60 113.70 278.00 99.70 283.90 91.60 Z" fill="#9c4ed3" fill-rule="nonzero" group-id="2,4,18,32,34" node-id="139" stroke="none" target-height="40.500008" target-width="71.09999" target-x="212.8" target-y="91.6"></path><path d="M 71.90 145.70 C 68.40 145.20 65.00 144.60 61.50 144.10 C 60.00 143.90 58.40 143.60 56.90 143.30 L 56.90 143.30 C 59.00 142.30 60.10 140.30 61.30 138.40 L 61.50 138.50 C 70.20 138.30 79.40 137.70 86.60 135.80 C 96.60 133.20 107.30 133.60 117.60 134.80 C 123.10 135.40 128.60 136.60 134.10 136.10 C 145.60 135.00 154.80 126.50 165.10 121.30 C 178.80 114.40 194.60 113.30 209.50 109.50 C 235.60 102.80 259.50 87.30 282.10 72.40 L 282.20 72.40 C 282.30 73.50 282.30 74.60 282.10 75.60 C 281.90 77.50 281.30 79.40 281.40 81.30 C 281.50 82.20 281.70 83.20 281.90 84.10 C 282.50 86.70 283.40 89.00 284.00 91.60 C 278.10 99.70 239.70 113.80 234.30 116.00 C 231.90 117.00 229.40 118.10 227.40 119.70 C 226.40 120.60 225.40 121.60 224.30 122.30 C 223.20 123.00 221.90 123.40 220.60 123.70 C 218.20 124.40 215.40 125.10 212.90 125.80 L 212.80 125.90 C 208.70 123.80 204.40 122.00 199.80 121.30 C 192.90 120.20 185.80 121.60 179.10 123.60 C 174.90 124.80 170.70 126.50 166.60 128.30 C 165.00 129.00 163.50 129.70 162.00 130.40 L 162.00 130.40 C 162.00 130.40 167.40 139.50 173.70 142.10 C 168.90 144.60 164.30 148.00 159.10 149.30 C 153.50 150.60 147.80 149.40 142.10 148.90 C 137.80 148.60 133.40 148.70 129.10 148.60 C 119.90 148.40 110.70 147.10 101.80 144.80 C 98.50 143.90 95.20 143.00 91.70 142.90 C 85.40 142.90 79.50 146.50 73.40 145.80 C 72.80 145.80 72.30 145.80 71.90 145.70 Z" fill="#ffffff" fill-rule="nonzero" group-id="2,4,18,32,35" node-id="144" stroke="none" target-height="78.200005" target-width="227.1" target-x="56.9" target-y="72.4"></path><path d="M 282.00 72.40 L 282.00 72.40 C 259.40 87.20 235.50 102.80 209.40 109.50 C 194.50 113.30 178.70 114.30 165.00 121.30 C 154.70 126.50 145.50 135.00 134.00 136.10 C 128.50 136.60 123.00 135.40 117.50 134.80 C 107.20 133.70 96.50 133.20 86.50 135.80 C 79.30 137.70 70.10 138.30 61.40 138.50 L 61.20 138.40 C 61.80 137.50 62.40 136.50 63.20 135.70 C 65.00 133.80 66.90 131.90 69.10 130.30 C 71.10 129.00 73.20 128.00 75.40 127.00 C 81.70 124.30 88.00 121.80 94.40 119.50 L 94.40 119.50 C 103.10 119.50 110.00 119.00 118.70 119.00 C 124.10 119.00 129.50 119.00 134.70 117.90 C 151.20 114.60 164.20 101.90 179.80 95.50 C 189.90 91.30 201.00 89.90 211.60 87.30 C 228.70 83.00 246.30 74.20 260.40 63.80 C 262.60 63.80 264.80 63.70 266.90 63.60 C 268.40 63.50 269.90 63.40 271.40 63.40 C 272.70 63.40 273.90 63.40 275.20 63.50 C 276.50 63.60 277.90 63.90 279.00 64.70 C 280.40 65.80 281.00 67.60 281.40 69.30 C 281.80 70.40 282.00 71.40 282.00 72.40 Z" fill="#18d5f6" fill-rule="nonzero" group-id="2,4,18,32,36" node-id="149" stroke="none" target-height="75.1" target-width="220.8" target-x="61.2" target-y="63.4"></path><path d="M 181.30 139.40 C 177.20 136.60 172.90 134.20 168.30 132.50 C 166.20 131.70 164.10 131.10 162.00 130.40 C 163.50 129.70 165.10 129.00 166.60 128.30 L 166.60 128.40 C 169.00 128.40 170.80 128.70 173.10 129.50 C 175.50 130.40 177.80 131.70 180.10 132.90 C 188.80 137.80 197.70 142.90 204.60 150.20 C 207.90 153.70 210.70 157.60 214.50 160.50 C 221.90 166.00 231.70 166.50 240.80 166.80 C 245.80 167.00 250.70 167.10 255.60 166.40 C 260.50 165.60 265.80 163.50 269.40 160.10 C 271.20 160.80 273.10 161.60 274.90 162.30 C 269.20 165.70 262.60 167.50 256.20 168.80 C 242.90 171.60 228.80 172.10 215.80 168.20 C 214.10 167.70 212.50 167.10 211.20 166.00 C 210.20 165.20 209.50 164.10 208.80 163.10 C 205.90 159.20 202.30 155.90 198.60 152.80 C 197.50 151.90 196.40 150.90 195.30 150.00 C 194.10 149.00 192.80 147.90 191.50 146.90 C 188.10 144.40 184.80 141.70 181.30 139.40 Z" fill="#12d8f9" fill-rule="nonzero" group-id="2,4,18,32,37" node-id="154" stroke="none" target-height="43.800003" target-width="112.899994" target-x="162" target-y="128.3"></path><path d="M 253.50 153.60 C 258.80 155.80 264.10 158.00 269.50 160.10 C 265.80 163.40 260.60 165.60 255.70 166.40 C 250.80 167.20 245.80 167.00 240.90 166.80 C 231.70 166.50 221.90 165.90 214.60 160.50 C 210.80 157.70 207.90 153.70 204.70 150.20 C 197.80 142.90 188.90 137.90 180.20 132.90 C 177.90 131.60 175.70 130.30 173.20 129.50 C 170.90 128.70 169.10 128.40 166.70 128.40 L 166.70 128.30 C 170.80 126.50 175.00 124.80 179.20 123.60 C 185.90 121.60 193.00 120.20 199.90 121.30 C 204.50 122.00 208.70 123.90 212.90 125.90 C 213.50 126.20 214.10 126.50 214.60 126.80 C 218.60 128.90 222.60 131.20 226.20 133.90 C 228.40 135.60 230.50 137.40 232.50 139.40 C 234.00 141.00 235.50 142.80 237.10 144.30 C 241.50 148.60 247.60 151.10 253.50 153.60 Z" fill="#4c3ce5" fill-rule="nonzero" group-id="2,4,18,32,38" node-id="159" stroke="none" target-height="47" target-width="102.8" target-x="166.7" target-y="120.2"></path><path d="M 214.10 65.10 C 229.40 62.70 245.10 64.20 260.60 63.90 C 246.40 74.30 228.80 83.10 211.80 87.40 C 201.20 90.10 190.10 91.50 180.00 95.60 C 164.40 102.00 151.40 114.70 134.90 118.00 C 129.60 119.00 124.20 119.10 118.90 119.10 C 110.20 119.10 103.30 119.60 94.60 119.60 L 94.60 119.60 C 104.10 116.20 113.70 113.30 123.50 110.90 C 128.00 109.80 132.60 108.70 137.10 107.60 C 156.80 102.50 175.80 94.60 193.40 84.30 C 199.30 80.60 210.50 71.30 214.10 65.10 Z" fill="#12b9d4" fill-rule="nonzero" group-id="2,4,18,32,39" node-id="164" stroke="none" target-height="56.899998" target-width="166" target-x="94.6" target-y="62.7"></path><path d="M 228.80 197.40 C 229.70 198.20 230.50 198.90 231.10 199.60 C 225.10 202.00 211.10 201.60 205.20 199.10 C 196.10 195.20 187.30 189.10 183.30 180.00 C 182.50 178.20 181.90 176.40 181.20 174.60 C 179.60 171.00 177.40 167.70 175.50 164.20 C 175.50 164.20 182.30 169.80 184.80 177.80 C 187.20 185.70 203.70 203.00 228.80 197.40 L 228.80 197.40 Z" fill="#c4c4fa" fill-rule="nonzero" group-id="2,4,18,32,40" node-id="169" stroke="none" target-height="38.800003" target-width="55.600006" target-x="175.5" target-y="164.2"></path><path d="M 228.80 197.40 L 228.80 197.40 C 203.70 203.00 187.20 185.70 184.70 177.70 C 182.20 169.70 175.40 164.10 175.40 164.10 C 174.30 161.90 173.80 158.90 172.60 156.50 L 172.60 156.50 C 174.60 158.10 177.80 157.10 180.30 156.80 C 186.20 156.00 192.40 158.00 196.70 162.20 C 197.90 163.40 198.90 164.70 200.10 165.90 C 201.40 167.30 206.40 168.90 207.90 170.20 L 207.90 170.20 C 208.90 172.80 209.90 175.50 211.40 178.70 C 212.40 180.90 213.50 183.10 214.70 185.20 C 217.00 188.90 224.30 193.60 228.80 197.40 Z" fill="#3c1ab7" fill-rule="nonzero" group-id="2,4,18,32,41" node-id="174" stroke="none" target-height="47" target-width="56.199997" target-x="172.6" target-y="156"></path><path d="M 230.50 132.10 C 228.80 132.80 227.40 133.40 226.10 133.90 L 226.10 133.90 C 222.50 131.20 218.50 128.90 214.50 126.80 C 213.90 126.50 213.30 126.20 212.80 125.90 L 212.90 125.80 C 212.80 125.80 227.60 128.90 230.50 132.10 Z" fill="#7824a0" fill-rule="nonzero" group-id="2,4,18,32,42" node-id="179" stroke="none" target-height="8.099991" target-width="17.699997" target-x="212.8" target-y="125.8"></path><path d="M 204.40 59.30 L 214.10 65.10 C 210.50 71.40 199.30 80.60 193.10 84.30 C 175.50 94.60 156.50 102.40 136.80 107.60 C 132.30 108.80 127.80 109.80 123.20 110.90 C 113.40 113.30 103.80 116.30 94.30 119.60 C 87.90 121.90 81.50 124.40 75.30 127.10 C 73.10 128.00 70.90 129.00 69.00 130.40 C 66.80 131.90 64.90 133.80 63.10 135.80 C 62.30 136.60 61.70 137.50 61.10 138.50 C 59.90 140.40 58.80 142.30 56.70 143.40 L 56.70 143.40 C 54.00 142.90 51.30 142.10 48.90 140.90 C 46.40 139.70 43.90 137.60 42.20 135.10 L 42.30 135.10 C 51.70 126.80 63.30 119.50 75.50 117.00 C 82.60 115.50 90.00 115.50 97.20 113.80 C 112.60 110.30 125.80 99.70 141.40 96.80 C 146.10 95.90 151.00 95.80 155.70 94.80 C 169.30 91.90 180.30 82.20 190.50 72.70 C 195.40 68.20 199.40 63.90 204.30 59.40 L 204.40 59.30 Z" fill="#2e4e89" fill-rule="nonzero" group-id="2,4,18,32,43" node-id="184" stroke="none" target-height="84.09999" target-width="171.90001" target-x="42.2" target-y="59.3"></path><path d="M 207.90 170.10 L 207.90 170.10 C 206.40 168.90 201.50 167.20 200.10 165.80 C 198.90 164.60 197.90 163.30 196.70 162.10 C 192.40 158.00 186.20 155.90 180.30 156.70 C 177.80 157.10 174.60 158.00 172.60 156.40 L 172.60 156.40 C 171.90 154.90 170.90 153.70 169.20 153.00 C 175.00 151.90 180.70 150.40 186.30 148.60 C 188.00 148.10 189.70 147.50 191.40 147.00 C 192.70 148.00 193.90 149.10 195.20 150.10 C 196.30 151.00 197.40 151.90 198.50 152.90 L 198.50 152.90 C 204.00 159.90 205.80 164.60 207.90 170.10 Z" fill="#2c0a8c" fill-rule="nonzero" group-id="2,4,18,32,44" node-id="189" stroke="none" target-height="23.100006" target-width="38.699997" target-x="169.2" target-y="147"></path><path d="M 204.40 59.30 L 204.30 59.40 C 199.40 63.90 195.40 68.20 190.50 72.70 C 180.20 82.10 169.30 91.90 155.70 94.80 C 151.00 95.80 146.20 95.90 141.40 96.80 C 125.80 99.60 112.60 110.30 97.20 113.80 C 90.10 115.40 82.70 115.50 75.50 117.00 C 63.30 119.60 51.70 126.80 42.30 135.10 L 42.20 135.10 C 41.30 133.80 40.60 132.30 40.30 130.80 C 40.20 128.70 40.60 126.60 41.20 124.70 L 41.30 124.70 C 46.10 117.00 55.70 114.00 64.60 112.20 C 73.50 110.40 82.80 109.90 91.10 106.40 C 91.90 106.10 92.60 105.70 93.40 105.40 L 93.50 105.40 C 94.00 107.00 95.80 108.10 97.60 107.60 C 98.80 107.30 100.00 106.60 100.40 105.60 C 100.60 105.20 100.60 104.80 100.60 104.40 C 100.60 103.50 100.20 102.70 99.50 102.00 C 102.00 100.50 104.60 99.00 107.20 97.70 C 116.10 93.30 125.90 91.30 135.30 88.10 C 157.20 80.70 175.70 67.20 194.40 53.50 L 194.40 53.50 L 204.40 59.30 Z" fill="#2e619f" fill-rule="nonzero" group-id="2,4,18,32,45" node-id="194" stroke="none" target-height="81.600006" target-width="164.2" target-x="40.2" target-y="53.5"></path><path d="M 194.50 53.30 L 194.50 53.30 C 175.90 67.00 157.30 80.50 135.40 88.00 C 126.00 91.20 116.20 93.20 107.30 97.60 C 104.70 98.90 102.10 100.40 99.60 101.90 C 99.00 101.30 98.30 100.90 97.50 100.80 C 95.80 100.60 94.10 101.70 93.50 103.30 C 93.50 103.40 93.40 103.60 93.40 103.70 C 93.30 104.20 93.30 104.80 93.50 105.20 L 93.40 105.20 C 92.60 105.60 91.90 105.90 91.10 106.20 C 82.70 109.70 73.50 110.20 64.60 112.00 C 55.70 113.80 46.10 116.80 41.30 124.50 L 41.20 124.50 C 42.50 120.70 44.90 117.20 48.00 114.50 C 52.60 110.40 58.40 107.90 64.20 105.90 C 73.70 102.60 83.70 100.60 92.90 96.60 C 98.60 94.10 104.00 90.90 109.50 88.10 C 123.50 81.10 138.80 76.90 153.00 70.30 C 165.00 64.70 176.10 57.10 186.00 48.30 L 194.50 53.30 Z" fill="#4b83d8" fill-rule="nonzero" group-id="2,4,18,32,46" node-id="199" stroke="none" target-height="76.2" target-width="153.3" target-x="41.2" target-y="48.3"></path><path d="M 191.40 147.00 C 189.70 147.60 188.00 148.10 186.30 148.60 L 186.30 148.60 C 186.30 148.60 186.60 145.40 175.00 142.50 C 174.50 142.40 174.10 142.20 173.70 142.10 C 176.10 140.80 178.60 139.80 181.30 139.40 C 184.80 141.70 188.10 144.40 191.40 147.00 Z" fill="#7824a0" fill-rule="nonzero" group-id="2,4,18,32,47" node-id="204" stroke="none" target-height="9.200012" target-width="17.699997" target-x="173.7" target-y="139.4"></path><path d="M 169.20 153.00 C 161.40 154.60 153.40 155.50 145.40 155.50 C 134.30 155.50 123.40 153.80 112.50 152.10 C 99.40 150.00 86.40 148.00 73.30 145.90 C 79.40 146.50 85.30 142.90 91.60 143.00 C 95.00 143.00 98.40 144.00 101.70 144.90 C 110.60 147.20 119.80 148.50 129.00 148.70 C 133.30 148.80 137.70 148.70 142.00 149.00 C 147.70 149.40 153.50 150.70 159.00 149.40 C 164.20 148.20 168.80 144.80 173.60 142.20 C 174.00 142.40 174.50 142.50 174.90 142.60 C 186.60 145.50 186.20 148.70 186.20 148.70 L 186.20 148.70 C 180.70 150.40 175.00 151.90 169.20 153.00 Z" fill="#9c4ed3" fill-rule="nonzero" group-id="2,4,18,32,48" node-id="209" stroke="none" target-height="13.300003" target-width="113.3" target-x="73.3" target-y="142.2"></path><path d="M 181.30 139.40 C 178.60 139.80 176.10 140.90 173.70 142.10 C 167.40 139.50 162.00 130.40 162.00 130.40 L 162.00 130.40 C 164.10 131.00 166.30 131.70 168.30 132.50 C 172.90 134.20 177.20 136.60 181.30 139.40 Z" fill="#c4c4fa" fill-rule="nonzero" group-id="2,4,18,32,49" node-id="214" stroke="none" target-height="11.700012" target-width="19.300003" target-x="162" target-y="130.4"></path><path d="M 94.60 105.40 C 94.90 106.20 95.70 106.80 96.60 106.80 C 97.10 106.80 97.50 106.60 97.90 106.40 C 98.40 106.00 98.70 105.40 98.70 104.70 C 98.70 103.50 97.80 102.60 96.60 102.60 C 95.40 102.60 94.50 103.50 94.50 104.70 C 94.50 104.90 94.50 105.10 94.60 105.40 C 94.60 105.40 94.60 105.40 94.60 105.40 Z M 99.60 101.90 C 100.20 102.50 100.60 103.40 100.70 104.30 C 100.70 104.70 100.70 105.10 100.50 105.50 C 100.10 106.50 98.90 107.10 97.70 107.50 C 95.90 108.00 94.10 106.90 93.60 105.30 C 93.40 104.80 93.40 104.30 93.50 103.80 C 93.50 103.70 93.60 103.50 93.60 103.40 C 94.10 101.80 95.90 100.70 97.60 100.90 C 98.30 100.90 99.10 101.30 99.60 101.90 Z" fill="#ffffff" fill-rule="nonzero" group-id="2,4,18,32,50" node-id="219" stroke="none" target-height="7.300003" target-width="7.2999954" target-x="93.4" target-y="100.7"></path><path d="M 96.60 102.50 C 97.80 102.50 98.70 103.40 98.70 104.60 C 98.70 105.30 98.40 105.90 97.90 106.30 L 97.90 106.30 C 96.80 102.80 94.70 105.30 94.60 105.40 C 94.50 105.20 94.50 104.90 94.50 104.60 C 94.50 103.40 95.40 102.50 96.60 102.50 Z" fill="#c6aaf5" fill-rule="nonzero" group-id="2,4,18,32,51" node-id="224" stroke="none" target-height="3.800003" target-width="4.199997" target-x="94.5" target-y="102.5"></path><path d="M 97.90 106.30 L 97.90 106.30 C 97.50 106.60 97.10 106.70 96.60 106.70 C 95.70 106.70 94.90 106.10 94.60 105.30 C 94.60 105.30 94.60 105.30 94.60 105.30 C 94.70 105.20 96.80 102.80 97.90 106.30 Z" fill="#271a3e" fill-rule="nonzero" group-id="2,4,18,32,52" node-id="229" stroke="none" target-height="3.899994" target-width="3.300003" target-x="94.6" target-y="102.8"></path><path d="M 274.90 162.50 C 274.90 162.50 274.90 162.50 274.90 162.50 L 273.20 161.80 C 271.90 161.30 270.60 160.70 269.30 160.20 C 264.00 158.00 258.70 155.80 253.30 153.70 C 247.70 151.40 241.40 148.80 236.70 144.40 C 235.70 143.40 234.70 142.40 233.80 141.40 C 233.20 140.80 232.70 140.10 232.10 139.50 C 230.30 137.60 228.20 135.80 225.90 134.10 C 222.80 131.80 219.10 129.50 214.30 127.00 C 213.70 126.70 213.10 126.40 212.60 126.10 C 209.20 124.40 204.60 122.30 199.70 121.50 C 192.30 120.30 184.80 122.10 179.10 123.70 C 175.40 124.80 171.40 126.30 166.60 128.40 C 165.20 129.00 163.70 129.70 162.00 130.50 C 161.90 130.50 161.80 130.50 161.80 130.40 C 161.80 130.30 161.80 130.20 161.90 130.20 C 163.70 129.40 165.20 128.70 166.50 128.10 C 171.40 126.00 175.30 124.50 179.00 123.40 C 184.70 121.70 192.30 119.90 199.80 121.10 C 204.80 121.90 209.40 124.00 212.80 125.70 C 213.30 126.00 213.90 126.30 214.50 126.60 C 219.30 129.10 222.90 131.30 226.10 133.70 C 228.50 135.50 230.50 137.30 232.40 139.20 C 233.00 139.80 233.60 140.50 234.10 141.10 C 235.00 142.10 236.00 143.20 237.00 144.10 C 241.70 148.50 247.90 151.10 253.50 153.40 C 258.80 155.60 264.10 157.80 269.50 159.90 C 270.80 160.40 272.10 161.00 273.40 161.50 L 275.00 162.20 C 275.10 162.20 275.10 162.30 275.10 162.40 C 275.00 162.50 275.00 162.50 274.90 162.50 Z" fill="#000000" fill-rule="nonzero" group-id="2,4,18,33,53" node-id="237" stroke="none" target-height="42.6" target-width="113.3" target-x="161.8" target-y="119.9"></path><path d="M 236.00 171.30 C 228.80 171.30 222.00 170.40 215.80 168.50 C 214.20 168.00 212.50 167.50 211.10 166.30 C 210.30 165.60 209.60 164.70 209.00 163.80 C 208.90 163.70 208.80 163.50 208.70 163.40 C 205.70 159.30 201.90 155.90 198.60 153.10 C 197.50 152.10 196.30 151.20 195.30 150.30 C 194.00 149.30 192.80 148.20 191.50 147.20 C 188.80 145.00 185.10 142.10 181.30 139.50 C 176.80 136.40 172.50 134.20 168.30 132.60 C 166.20 131.80 164.10 131.20 162.00 130.50 C 161.90 130.50 161.90 130.40 161.90 130.30 C 161.90 130.20 162.00 130.10 162.10 130.10 L 162.10 130.10 C 162.10 130.10 162.10 130.10 162.10 130.10 C 164.20 130.70 166.30 131.40 168.40 132.20 C 172.60 133.80 176.90 136.10 181.50 139.10 C 185.30 141.70 188.90 144.50 191.70 146.80 C 193.00 147.80 194.20 148.80 195.50 149.90 C 196.50 150.80 197.70 151.70 198.80 152.70 C 202.10 155.50 206.00 159.00 209.00 163.10 C 209.10 163.20 209.20 163.40 209.30 163.50 C 209.90 164.40 210.60 165.20 211.40 165.90 C 212.70 167.00 214.50 167.60 216.00 168.10 C 227.90 171.60 241.40 171.80 256.30 168.70 C 261.80 167.50 268.90 165.70 275.00 162.20 C 275.10 162.20 275.20 162.20 275.20 162.30 C 275.20 162.40 275.20 162.50 275.10 162.50 C 269.00 166.10 261.90 167.90 256.30 169.10 C 249.10 170.50 242.40 171.30 236.00 171.30 Z" fill="#000000" fill-rule="nonzero" group-id="2,4,18,33,54" node-id="242" stroke="none" target-height="41.699997" target-width="113.30002" target-x="161.9" target-y="130.1"></path><path d="M 247.10 167.10 C 245.00 167.10 242.80 167.00 240.80 166.90 C 230.50 166.50 221.50 165.80 214.40 160.50 C 211.70 158.50 209.50 156.00 207.40 153.50 C 206.40 152.40 205.50 151.30 204.40 150.20 C 197.50 142.90 188.60 137.80 180.00 133.00 C 177.80 131.70 175.50 130.40 173.00 129.60 C 170.80 128.80 169.10 128.50 166.60 128.50 C 166.50 128.50 166.40 128.40 166.40 128.30 C 166.40 128.20 166.50 128.10 166.60 128.10 C 169.10 128.10 170.90 128.50 173.10 129.30 C 175.60 130.20 177.90 131.50 180.10 132.70 C 188.70 137.60 197.70 142.60 204.60 150.00 C 205.60 151.10 206.60 152.20 207.60 153.30 C 209.70 155.70 211.90 158.30 214.50 160.20 C 221.50 165.40 230.50 166.10 240.70 166.50 C 245.60 166.70 250.60 166.90 255.50 166.10 C 260.90 165.20 265.90 163.00 269.20 159.90 L 269.30 160.00 L 269.40 160.00 L 269.50 160.10 C 269.50 160.10 269.50 160.10 269.50 160.10 C 266.10 163.20 261.00 165.50 255.60 166.40 C 252.80 167.00 249.90 167.10 247.10 167.10 Z" fill="#000000" fill-rule="nonzero" group-id="2,4,18,33,55" node-id="247" stroke="none" target-height="39" target-width="103.100006" target-x="166.4" target-y="128.1"></path><path d="M 219.40 201.30 C 219.00 201.30 218.50 201.30 218.00 201.30 C 212.70 201.20 207.80 200.40 205.00 199.20 C 197.40 196.00 187.40 190.00 183.00 180.00 C 182.60 179.10 182.20 178.10 181.90 177.20 C 181.60 176.40 181.30 175.50 180.90 174.60 C 179.90 172.30 178.60 170.10 177.40 168.00 C 176.70 166.70 175.90 165.40 175.20 164.10 C 174.60 163.00 174.20 161.70 173.80 160.30 C 173.40 159.00 173.00 157.60 172.40 156.40 C 171.60 154.70 170.50 153.60 169.10 153.00 C 169.10 153.00 169.10 153.00 169.10 153.00 C 169.10 153.00 169.10 153.00 169.10 153.00 C 169.00 153.00 169.00 152.90 169.00 152.80 C 169.00 152.70 169.10 152.70 169.20 152.70 C 169.20 152.70 169.20 152.70 169.30 152.70 C 170.80 153.30 171.90 154.50 172.70 156.20 C 173.30 157.40 173.70 158.80 174.10 160.10 C 174.50 161.50 174.90 162.70 175.50 163.80 C 176.20 165.10 177.00 166.40 177.70 167.70 C 178.90 169.80 180.20 172.00 181.20 174.30 C 181.60 175.10 181.90 176.00 182.20 176.90 C 182.50 177.80 182.90 178.80 183.30 179.70 C 187.70 189.60 197.60 195.50 205.10 198.70 C 211.10 201.20 225.10 201.50 230.90 199.20 C 231.00 199.20 231.10 199.20 231.10 199.30 C 231.10 199.40 231.10 199.50 231.00 199.50 C 228.50 200.70 224.20 201.30 219.40 201.30 Z" fill="#000000" fill-rule="nonzero" group-id="2,4,18,33,56" node-id="252" stroke="none" target-height="48.800003" target-width="62.100006" target-x="169" target-y="152.7"></path><path d="M 231.10 199.70 C 231.10 199.70 231.00 199.70 231.00 199.60 C 230.40 199.00 229.70 198.30 228.70 197.50 C 227.40 196.40 225.80 195.20 224.10 193.90 C 220.20 190.90 216.20 187.90 214.50 185.10 C 213.30 183.00 212.20 180.80 211.20 178.60 C 209.70 175.40 208.70 172.70 207.70 170.10 L 207.70 170.10 C 205.60 164.70 203.90 160.00 198.40 153.10 C 198.30 153.00 198.40 152.90 198.40 152.90 C 198.50 152.80 198.60 152.90 198.60 152.90 C 204.10 159.90 205.90 164.60 208.00 170.00 L 208.00 170.00 C 209.00 172.60 210.00 175.30 211.50 178.50 C 212.50 180.60 213.60 182.90 214.80 185.00 C 216.40 187.70 220.40 190.80 224.30 193.70 C 226.00 195.00 227.50 196.20 228.90 197.30 C 229.90 198.10 230.60 198.80 231.20 199.50 C 231.30 199.60 231.30 199.70 231.20 199.70 C 231.10 199.70 231.10 199.70 231.10 199.70 Z" fill="#000000" fill-rule="nonzero" group-id="2,4,18,33,57" node-id="257" stroke="none" target-height="46.899994" target-width="33" target-x="198.3" target-y="152.8"></path><path d="M 96.80 107.70 C 95.30 107.70 93.90 106.70 93.40 105.30 C 93.20 104.80 93.20 104.20 93.30 103.70 C 93.30 103.60 93.40 103.40 93.40 103.30 C 94.00 101.60 95.80 100.50 97.60 100.70 C 98.40 100.80 99.20 101.20 99.80 101.80 C 100.50 102.50 100.90 103.40 100.90 104.30 C 100.90 104.80 100.90 105.20 100.70 105.60 C 100.30 106.50 99.20 107.30 97.80 107.70 C 97.40 107.70 97.10 107.70 96.80 107.70 Z M 97.10 100.90 C 95.60 100.90 94.20 101.90 93.70 103.30 C 93.70 103.40 93.60 103.60 93.60 103.70 C 93.50 104.20 93.50 104.70 93.70 105.20 C 94.20 106.80 96.00 107.70 97.60 107.30 C 99.00 106.90 99.90 106.30 100.30 105.40 C 100.40 105.10 100.50 104.70 100.50 104.30 C 100.50 103.50 100.10 102.70 99.50 102.00 C 99.50 102.00 99.50 102.00 99.50 102.00 C 98.90 101.40 98.20 101.10 97.50 101.00 C 97.40 100.90 97.20 100.90 97.10 100.90 Z" fill="#000000" fill-rule="nonzero" group-id="2,4,18,33,58" node-id="262" stroke="none" target-height="7.199997" target-width="7.7000046" target-x="93.2" target-y="100.5"></path><path d="M 153.50 150.00 C 151.00 150.00 148.50 149.70 146.00 149.50 C 144.70 149.40 143.30 149.20 141.90 149.10 C 139.00 148.90 136.10 148.90 133.30 148.80 C 131.90 148.80 130.40 148.80 129.00 148.80 C 119.80 148.60 110.60 147.30 101.60 145.00 C 101.20 144.90 100.80 144.80 100.30 144.70 C 97.40 144.00 94.50 143.20 91.50 143.20 C 91.50 143.20 91.40 143.20 91.40 143.20 C 88.50 143.20 85.60 144.00 82.90 144.70 C 79.70 145.60 76.40 146.50 73.10 146.10 C 72.60 146.00 72.10 146.00 71.70 145.90 C 71.60 145.90 71.50 145.90 71.40 145.80 C 71.30 145.80 71.30 145.70 71.30 145.60 C 71.30 145.50 71.40 145.50 71.50 145.50 C 71.60 145.50 71.70 145.50 71.80 145.60 C 72.20 145.70 72.70 145.80 73.20 145.80 C 76.40 146.10 79.50 145.30 82.80 144.40 C 85.60 143.60 88.50 142.90 91.50 142.90 C 94.50 142.90 97.50 143.70 100.40 144.40 C 100.80 144.50 101.20 144.60 101.60 144.70 C 110.50 147.00 119.70 148.30 128.90 148.50 C 130.30 148.50 131.80 148.50 133.20 148.50 C 136.00 148.50 139.00 148.50 141.90 148.80 C 143.30 148.90 144.60 149.10 146.00 149.20 C 150.30 149.70 154.70 150.20 158.90 149.20 C 162.60 148.30 166.00 146.30 169.30 144.40 C 170.70 143.60 172.10 142.80 173.50 142.10 C 176.40 140.60 178.80 139.70 181.20 139.40 C 181.20 139.40 181.30 139.40 181.30 139.40 C 181.40 139.40 181.50 139.50 181.50 139.50 C 181.50 139.60 181.40 139.70 181.40 139.70 C 181.40 139.70 181.30 139.70 181.30 139.70 C 179.00 140.10 176.60 140.90 173.70 142.40 C 172.30 143.10 170.90 143.90 169.60 144.70 C 166.30 146.70 162.80 148.70 159.10 149.50 C 157.30 149.90 155.40 150.00 153.50 150.00 Z" fill="#000000" fill-rule="nonzero" group-id="2,4,18,33,59" node-id="267" stroke="none" target-height="10.800003" target-width="110.2" target-x="71.3" target-y="139.4"></path><path d="M 145.30 155.70 C 134.20 155.70 123.20 154.00 112.50 152.30 C 99.40 150.20 86.40 148.20 73.30 146.10 C 72.90 146.00 72.40 146.00 72.00 145.90 L 71.90 145.90 C 70.20 145.60 68.50 145.40 66.80 145.10 C 65.00 144.80 63.30 144.50 61.50 144.30 C 60.00 144.10 58.40 143.80 56.80 143.50 C 53.60 142.90 51.10 142.10 48.90 141.00 C 46.30 139.70 43.80 137.60 42.10 135.20 C 41.10 133.80 40.50 132.30 40.10 130.90 C 40.10 130.90 40.10 130.90 40.10 130.90 C 40.00 128.90 40.30 126.80 41.00 124.70 C 42.20 121.00 44.60 117.40 47.80 114.60 C 52.80 110.20 59.10 107.60 64.10 105.90 C 67.70 104.70 71.50 103.60 75.10 102.50 C 81.00 100.80 87.10 99.00 92.80 96.50 C 96.40 94.90 99.80 93.10 103.20 91.30 C 105.20 90.20 107.30 89.10 109.40 88.00 C 116.90 84.20 125.00 81.20 132.70 78.30 C 139.40 75.80 146.30 73.20 152.80 70.20 C 164.30 64.80 175.40 57.40 185.80 48.20 C 185.90 48.20 185.90 48.10 186.00 48.20 L 204.40 59.20 L 214.10 65.00 C 214.20 65.00 214.20 65.10 214.20 65.20 C 210.60 71.60 199.30 80.80 193.20 84.40 C 175.60 94.70 156.60 102.50 136.90 107.70 C 134.30 108.40 131.60 109.00 128.90 109.70 C 127.10 110.10 125.20 110.60 123.30 111.10 C 113.60 113.50 103.90 116.50 94.40 119.80 C 88.00 122.10 81.60 124.60 75.40 127.30 C 73.10 128.30 71.00 129.20 69.10 130.50 C 66.90 132.00 65.00 133.90 63.20 135.80 C 62.40 136.60 61.80 137.60 61.20 138.50 C 61.10 138.70 61.00 138.80 60.90 139.00 C 59.90 140.70 58.90 142.30 57.10 143.30 C 58.50 143.60 59.90 143.80 61.30 144.00 C 63.10 144.30 64.80 144.60 66.60 144.80 C 68.30 145.10 70.00 145.30 71.70 145.60 L 71.80 145.60 C 72.20 145.70 72.70 145.70 73.10 145.80 C 86.20 147.90 99.20 149.90 112.30 152.00 C 123.00 153.70 134.10 155.40 145.10 155.40 C 145.10 155.40 145.20 155.40 145.20 155.40 C 152.80 155.40 160.60 154.60 169.00 152.90 C 174.50 151.80 180.10 150.40 186.10 148.60 C 187.70 148.10 189.50 147.60 191.20 147.00 C 191.20 147.00 191.20 147.00 191.30 147.00 C 191.40 147.00 191.50 147.10 191.50 147.20 C 191.50 147.30 191.40 147.30 191.40 147.40 C 189.70 148.00 187.90 148.50 186.30 149.00 C 180.20 150.80 174.60 152.30 169.20 153.40 C 160.80 155.10 153.00 155.90 145.40 155.90 C 145.40 155.70 145.30 155.70 145.30 155.70 Z M 40.50 130.70 C 40.80 132.10 41.50 133.50 42.40 134.90 C 44.00 137.30 46.50 139.40 49.10 140.60 C 51.20 141.60 53.60 142.40 56.80 143.00 C 58.70 142.10 59.70 140.40 60.80 138.70 C 60.90 138.50 61.00 138.40 61.10 138.20 C 61.60 137.30 62.30 136.40 63.10 135.50 C 64.90 133.60 66.80 131.60 69.00 130.10 C 70.90 128.80 73.00 127.80 75.30 126.80 C 81.50 124.10 87.90 121.60 94.30 119.30 C 103.80 115.90 113.50 113.00 123.20 110.60 C 125.10 110.10 127.00 109.70 128.80 109.20 C 131.40 108.60 134.10 107.90 136.70 107.20 C 156.40 102.10 175.30 94.30 192.90 84.00 C 199.00 80.40 210.10 71.30 213.70 65.00 L 194.30 53.40 L 185.90 48.40 C 175.60 57.60 164.50 65.00 152.90 70.40 C 146.30 73.50 139.40 76.10 132.80 78.60 C 125.00 81.50 117.00 84.50 109.50 88.30 C 107.40 89.40 105.30 90.50 103.30 91.60 C 99.90 93.40 96.50 95.30 92.90 96.90 C 87.20 99.40 81.00 101.20 75.10 102.90 C 71.50 103.90 67.80 105.00 64.10 106.30 C 59.20 108.00 52.90 110.50 48.00 114.90 C 44.90 117.70 42.50 121.20 41.30 124.80 C 40.80 126.70 40.50 128.70 40.50 130.70 Z" fill="#000000" fill-rule="nonzero" group-id="2,4,18,33,60" node-id="272" stroke="none" target-height="107.799995" target-width="174.2" target-x="40" target-y="48.1"></path><path d="M 212.80 126.00 C 212.70 126.00 212.70 126.00 212.60 125.90 C 212.60 125.80 212.60 125.70 212.70 125.70 C 213.90 125.40 215.30 125.00 216.50 124.60 C 217.80 124.20 219.10 123.90 220.30 123.50 C 221.60 123.10 222.90 122.80 224.00 122.10 C 224.70 121.60 225.40 121.00 226.00 120.50 C 226.30 120.20 226.70 119.90 227.10 119.60 C 229.20 117.90 231.80 116.80 234.10 115.90 C 234.80 115.60 236.10 115.10 237.90 114.40 C 249.00 110.10 278.60 98.50 283.80 91.50 C 283.90 91.40 284.00 91.40 284.00 91.50 C 284.10 91.60 284.10 91.70 284.00 91.70 C 278.80 98.80 249.20 110.30 238.00 114.70 C 236.20 115.40 234.90 115.90 234.20 116.20 C 231.90 117.10 229.40 118.20 227.30 119.90 C 226.90 120.20 226.60 120.50 226.30 120.80 C 225.70 121.40 225.00 122.00 224.20 122.50 C 223.10 123.20 221.70 123.60 220.50 123.90 C 219.30 124.20 217.90 124.60 216.70 125.00 C 215.40 125.30 214.10 125.60 212.80 126.00 C 212.80 126.00 212.80 126.00 212.80 126.00 Z" fill="#000000" fill-rule="nonzero" group-id="2,4,18,33,61" node-id="277" stroke="none" target-height="34.6" target-width="71.5" target-x="212.6" target-y="91.4"></path><path d="M 226.10 134.00 C 226.00 134.00 226.00 134.00 225.90 133.90 C 225.90 133.80 225.90 133.70 226.00 133.70 L 227.20 133.20 C 228.20 132.80 229.30 132.40 230.40 131.90 C 236.10 129.60 243.90 126.40 251.70 123.20 C 264.60 118.00 278.00 112.50 282.50 110.70 L 283.70 91.50 C 283.40 90.20 283.00 89.00 282.60 87.80 C 282.20 86.60 281.80 85.40 281.50 84.10 C 281.30 83.20 281.00 82.20 281.00 81.30 C 280.90 80.00 281.10 78.70 281.40 77.40 C 281.50 76.80 281.60 76.20 281.70 75.50 C 281.80 74.50 281.80 73.40 281.80 72.30 C 281.70 71.30 281.60 70.30 281.40 69.30 C 281.10 67.90 280.50 65.90 279.10 64.80 C 278.00 64.00 276.60 63.70 275.40 63.60 C 274.30 63.50 273.00 63.50 271.60 63.50 C 270.50 63.50 269.40 63.60 268.30 63.70 C 267.90 63.70 267.50 63.70 267.10 63.80 C 265.00 63.90 262.90 64.00 260.60 64.00 C 255.80 64.10 250.80 64.00 246.00 63.90 C 235.50 63.70 224.60 63.50 214.10 65.10 C 214.00 65.10 213.90 65.10 213.90 65.00 C 213.90 64.90 213.90 64.80 214.00 64.80 C 224.50 63.20 235.40 63.40 245.90 63.60 C 250.70 63.70 255.60 63.80 260.50 63.70 C 262.80 63.70 264.90 63.60 267.00 63.50 C 267.40 63.50 267.80 63.50 268.20 63.40 C 269.30 63.30 270.40 63.30 271.50 63.20 C 272.90 63.20 274.20 63.20 275.30 63.30 C 276.60 63.40 278.00 63.70 279.20 64.50 C 280.80 65.70 281.40 67.70 281.70 69.20 C 281.90 70.20 282.10 71.30 282.10 72.30 C 282.20 73.40 282.10 74.50 282.00 75.60 C 281.90 76.20 281.80 76.90 281.70 77.50 C 281.50 78.70 281.30 80.00 281.30 81.30 C 281.40 82.20 281.60 83.20 281.80 84.10 C 282.10 85.40 282.50 86.60 282.90 87.80 C 283.30 89.00 283.70 90.20 284.00 91.50 C 284.00 91.50 284.00 91.50 284.00 91.50 L 282.80 110.80 C 282.80 110.90 282.80 110.90 282.70 110.90 C 278.30 112.70 264.80 118.20 251.80 123.40 C 244.00 126.60 236.20 129.70 230.50 132.10 C 229.30 132.60 228.20 133.00 227.30 133.40 L 226.10 134.00 C 226.10 134.00 226.10 134.00 226.10 134.00 Z" fill="#000000" fill-rule="nonzero" group-id="2,4,18,33,62" node-id="282" stroke="none" target-height="70.8" target-width="70.100006" target-x="213.9" target-y="63.2"></path><path d="M 96.60 106.90 C 95.70 106.90 94.80 106.30 94.50 105.40 C 94.50 105.40 94.50 105.40 94.50 105.40 C 94.40 105.10 94.40 104.90 94.40 104.60 C 94.40 103.30 95.40 102.30 96.70 102.30 C 98.00 102.30 99.00 103.30 99.00 104.60 C 99.00 105.30 98.70 106.00 98.10 106.40 C 97.60 106.70 97.10 106.90 96.60 106.90 Z M 94.80 105.30 C 95.10 106.00 95.80 106.50 96.60 106.50 C 97.00 106.50 97.50 106.40 97.80 106.10 C 98.30 105.70 98.60 105.20 98.60 104.60 C 98.60 103.50 97.70 102.70 96.70 102.70 C 95.60 102.70 94.80 103.60 94.80 104.60 C 94.70 104.80 94.70 105.10 94.80 105.30 C 94.80 105.30 94.80 105.30 94.80 105.30 Z" fill="#000000" fill-rule="nonzero" group-id="2,4,18,33,63" node-id="287" stroke="none" target-height="4.5999985" target-width="4.5999985" target-x="94.4" target-y="102.3"></path><path d="M 96.70 103.40 L 97.00 103.20 C 97.00 103.20 98.00 103.40 98.10 104.50 C 98.10 104.80 98.00 104.90 98.00 104.90 C 98.00 104.90 97.70 103.60 96.70 103.40" fill="#ffffff" fill-rule="nonzero" group-id="2,5,19" node-id="297" stroke="none" target-height="1.7000046" target-width="1.4000015" target-x="96.7" target-y="103.2"></path><path d="M 96.50 105.10 C 96.50 105.10 97.10 105.30 97.00 105.90 L 96.80 106.00 C 96.80 106.00 96.70 105.40 96.40 105.50 L 96.50 105.10 Z" fill="#ffffff" fill-rule="nonzero" group-id="2,6,20" node-id="305" stroke="none" target-height="0.9000015" target-width="0.69999695" target-x="96.4" target-y="105.1"></path><path d="M 259.30 131.40 C 259.20 131.40 259.20 131.40 259.20 131.30 C 259.20 131.20 259.20 131.10 259.30 131.10 L 265.20 128.10 C 270.50 125.40 276.50 122.30 282.90 121.70 C 283.00 121.70 283.10 121.80 283.10 121.80 C 283.10 121.90 283.00 122.00 283.00 122.00 C 276.70 122.60 270.70 125.70 265.50 128.40 L 259.30 131.40 C 259.40 131.40 259.40 131.40 259.30 131.40 Z" fill="#000000" fill-rule="nonzero" group-id="2,7,21" node-id="313" stroke="none" target-height="9.699997" target-width="23.899994" target-x="259.2" target-y="121.7"></path><path d="M 272.20 132.70 C 272.10 132.70 272.10 132.70 272.10 132.60 C 272.10 132.50 272.10 132.40 272.20 132.40 C 275.60 130.60 279.20 129.10 282.80 128.10 C 282.90 128.10 283.00 128.10 283.00 128.20 C 283.00 128.30 283.00 128.40 282.90 128.40 C 279.20 129.40 275.60 130.90 272.20 132.70 C 272.20 132.70 272.20 132.70 272.20 132.70 Z" fill="#000000" fill-rule="nonzero" group-id="2,8,22" node-id="321" stroke="none" target-height="4.599991" target-width="10.899994" target-x="272.1" target-y="128.1"></path><path d="M 34.30 113.50 C 34.30 113.50 34.20 113.50 34.20 113.50 C 34.10 113.40 34.10 113.30 34.20 113.30 C 38.90 108.00 44.00 102.70 50.80 102.10 C 51.60 102.00 52.40 102.00 53.10 102.00 C 55.00 102.00 56.90 102.00 58.50 101.00 C 58.60 101.00 58.70 101.00 58.70 101.10 C 58.70 101.20 58.70 101.30 58.60 101.30 C 56.90 102.30 54.90 102.30 53.00 102.30 C 52.20 102.30 51.50 102.30 50.70 102.40 C 44.00 103.00 38.90 108.20 34.30 113.50 C 34.40 113.50 34.30 113.50 34.30 113.50 Z" fill="#000000" fill-rule="nonzero" group-id="2,9,23" node-id="329" stroke="none" target-height="12.5" target-width="24.600002" target-x="34.1" target-y="101"></path><path d="M 34.30 102.60 C 34.30 102.60 34.20 102.60 34.20 102.60 C 34.10 102.50 34.10 102.40 34.20 102.40 C 36.50 99.50 39.90 97.60 43.60 97.10 C 43.70 97.10 43.80 97.20 43.80 97.20 C 43.80 97.30 43.70 97.40 43.70 97.40 C 40.10 97.90 36.80 99.80 34.60 102.60 C 34.40 102.60 34.30 102.60 34.30 102.60 Z" fill="#000000" fill-rule="nonzero" group-id="2,10,24" node-id="337" stroke="none" target-height="5.5" target-width="9.700001" target-x="34.1" target-y="97.1"></path><path d="M 236.50 166.80 C 236.50 166.80 236.50 166.80 236.50 166.80 C 236.40 166.80 231.40 166.40 225.50 164.20 C 222.00 162.90 219.00 161.20 216.30 159.30 C 213.00 156.80 210.50 153.90 208.80 150.50 C 204.90 142.90 194.80 136.80 186.90 133.00 C 178.40 128.90 170.70 126.60 170.60 126.50 C 170.50 126.50 170.50 126.40 170.50 126.30 C 170.50 126.20 170.60 126.20 170.70 126.20 C 170.80 126.20 178.50 128.60 187.10 132.70 C 192.10 135.10 196.40 137.70 199.90 140.30 C 204.30 143.60 207.40 146.90 209.10 150.30 C 213.00 157.90 220.20 161.90 225.60 163.90 C 231.50 166.10 236.50 166.50 236.50 166.50 C 236.60 166.50 236.70 166.60 236.70 166.70 C 236.60 166.80 236.60 166.80 236.50 166.80 Z" fill="#000000" fill-rule="nonzero" group-id="2,11,25" node-id="345" stroke="none" target-height="40.600006" target-width="66.2" target-x="170.5" target-y="126.2"></path><path d="M 247.00 167.10 C 247.00 167.10 247.00 167.10 247.00 167.10 C 235.50 164.70 229.20 162.60 224.60 159.40 C 219.90 156.20 216.70 151.80 211.80 145.20 L 211.10 144.30 C 205.80 137.00 196.20 132.20 189.10 129.40 C 181.40 126.40 174.90 125.10 174.80 125.10 C 174.70 125.10 174.70 125.00 174.70 124.90 C 174.70 124.80 174.80 124.80 174.90 124.80 C 175.00 124.80 181.50 126.10 189.20 129.10 C 193.70 130.90 197.80 132.90 201.20 135.10 C 205.50 137.80 208.90 140.90 211.30 144.10 L 212.00 145.00 C 221.80 158.40 224.50 162.10 246.90 166.70 C 247.00 166.70 247.00 166.80 247.00 166.90 C 247.20 167.10 247.10 167.10 247.00 167.10 Z" fill="#000000" fill-rule="nonzero" group-id="2,12,26" node-id="353" stroke="none" target-height="42.300003" target-width="72.5" target-x="174.7" target-y="124.8"></path><path d="M 258.70 165.60 C 256.70 165.60 251.60 165.40 245.40 163.70 C 240.80 162.40 236.50 160.50 232.70 158.00 C 227.90 154.90 223.90 151.00 220.70 146.30 C 213.50 135.70 202.70 130.10 194.80 127.20 C 186.30 124.10 179.50 123.50 179.40 123.50 C 179.30 123.50 179.20 123.40 179.20 123.30 C 179.20 123.20 179.30 123.10 179.40 123.10 C 179.50 123.10 186.40 123.70 194.90 126.80 C 199.90 128.60 204.50 131.00 208.50 133.70 C 213.50 137.20 217.70 141.30 220.90 146.00 C 228.10 156.60 238.20 161.20 245.40 163.30 C 253.20 165.50 259.40 165.20 259.40 165.20 C 259.50 165.20 259.60 165.30 259.60 165.40 C 259.60 165.50 259.50 165.60 259.40 165.60 C 259.60 165.60 259.30 165.60 258.70 165.60 Z" fill="#000000" fill-rule="nonzero" group-id="2,13,27" node-id="361" stroke="none" target-height="42.500008" target-width="80.40001" target-x="179.2" target-y="123.1"></path><path d="M 260.20 163.40 C 258.00 163.40 255.40 163.20 252.40 162.60 C 247.80 161.70 243.30 159.90 239.20 157.40 C 234.00 154.30 229.20 150.00 224.90 144.60 C 215.30 132.50 205.80 126.80 199.60 124.20 C 192.80 121.40 188.30 121.50 188.20 121.50 C 188.10 121.50 188.00 121.40 188.00 121.30 C 188.00 121.20 188.10 121.10 188.20 121.10 C 188.20 121.10 192.80 121.00 199.70 123.80 C 203.70 125.50 207.70 127.80 211.50 130.70 C 216.30 134.30 220.90 138.90 225.20 144.30 C 234.80 156.40 245.40 160.70 252.60 162.20 C 260.40 163.80 265.90 162.50 266.00 162.50 C 266.10 162.50 266.20 162.50 266.20 162.60 C 266.20 162.70 266.20 162.80 266.10 162.80 C 265.90 162.90 263.70 163.40 260.20 163.40 Z" fill="#000000" fill-rule="nonzero" group-id="2,14,28" node-id="369" stroke="none" target-height="42.800003" target-width="78.20001" target-x="188" target-y="121"></path><path d="M 266.40 161.10 C 261.80 161.10 257.30 160.50 253.00 159.40 C 249.20 158.40 245.50 156.90 242.20 155.00 C 236.50 151.70 233.60 148.30 233.60 148.30 C 233.60 148.30 233.60 148.30 233.60 148.30 C 225.50 136.80 217.00 130.20 211.20 126.70 C 205.00 122.90 200.60 121.70 200.60 121.70 C 200.50 121.70 200.50 121.60 200.50 121.50 C 200.50 121.40 200.60 121.40 200.70 121.40 C 200.70 121.40 205.20 122.60 211.40 126.40 C 217.20 130.00 225.80 136.60 233.90 148.10 C 234.00 148.20 236.90 151.60 242.40 154.80 C 247.60 157.80 256.30 161.30 268.30 160.90 C 268.40 160.90 268.50 161.00 268.50 161.10 C 268.50 161.20 268.40 161.30 268.30 161.30 C 267.60 161.10 267.00 161.10 266.40 161.10 Z" fill="#000000" fill-rule="nonzero" group-id="2,15,29" node-id="377" stroke="none" target-height="39.9" target-width="68" target-x="200.5" target-y="121.4"></path><path d="M 261.50 157.00 C 261.50 157.00 261.50 157.00 261.50 157.00 C 253.30 156.60 246.60 152.80 242.50 149.70 C 238.00 146.30 235.30 143.00 235.30 143.00 C 235.20 142.90 235.30 142.80 235.30 142.80 C 235.40 142.70 235.50 142.80 235.50 142.80 C 235.50 142.80 238.20 146.10 242.70 149.50 C 246.90 152.60 253.50 156.40 261.60 156.80 C 261.70 156.80 261.80 156.90 261.80 157.00 C 261.60 156.90 261.60 157.00 261.50 157.00 Z" fill="#000000" fill-rule="nonzero" group-id="2,16,30" node-id="385" stroke="none" target-height="14.300003" target-width="26.59999" target-x="235.2" target-y="142.7"></path><path d="M 101.30 101.60 C 101.20 101.60 101.20 101.60 101.20 101.50 C 100.10 99.80 98.90 98.90 97.60 98.80 C 96.10 98.60 95.00 99.60 95.00 99.60 C 94.90 99.70 94.80 99.70 94.80 99.60 C 94.70 99.50 94.70 99.40 94.80 99.40 C 94.80 99.40 96.00 98.30 97.70 98.50 C 99.10 98.70 100.40 99.70 101.50 101.40 C 101.50 101.40 101.50 101.50 101.30 101.60 C 101.40 101.60 101.30 101.60 101.30 101.60 Z" fill="#000000" fill-rule="nonzero" group-id="2,17,31" node-id="393" stroke="none" target-height="3.2999954" target-width="6.800003" target-x="94.7" target-y="98.3"></path></g></g><path d="M 225.60 126.00 C 225.60 181.23 180.83 226.00 125.60 226.00 C 70.37 226.00 25.60 181.23 25.60 126.00 C 25.60 70.77 70.37 26.00 125.60 26.00 C 180.83 26.00 225.60 70.77 225.60 126.00 Z" fill="none" group-id="3" node-id="400" stroke="#000000" stroke-linecap="round" stroke-width="3" target-height="200" target-width="200" target-x="25.6" target-y="26"></path></svg>